<svg width="97" height="97" viewBox="0 0 97 97" fill="none" xmlns="http://www.w3.org/2000/svg">
<path d="M15.2136 44.266C15.1094 44.5254 15.0563 44.8024 15.0571 45.082V51.9253C15.0571 53.0985 15.9739 54.0431 17.112 54.0431H23.7465C24.8846 54.0431 25.8014 53.0985 25.8014 51.9253H28.3301C28.3301 54.5433 26.2857 56.65 23.7465 56.65H17.1091C14.5699 56.65 12.5256 54.5433 12.5256 51.9253V45.082C12.5255 44.8086 12.5483 44.5356 12.5937 44.266H15.2136ZM23.7489 40.3559C26.2881 40.3559 28.3325 42.4631 28.3325 45.081H25.8014C25.8014 43.9074 24.8846 42.9628 23.7465 42.9628H13.0085C13.7587 41.4148 15.3096 40.3559 17.1091 40.3559H23.7489Z" fill="white"/>
<path d="M53.0112 44.266C52.9071 44.5254 52.8538 44.8024 52.8542 45.082C52.8542 46.2556 53.771 47.2002 54.9091 47.2002H61.547C64.0857 47.2002 66.1301 49.3074 66.1301 51.9249C66.1301 54.5423 64.0857 56.65 61.547 56.65H51.0216V54.0431H61.547C62.6846 54.0431 63.6014 53.0985 63.6014 51.9249C63.6014 50.7513 62.6846 49.8071 61.547 49.8071H54.9096C52.3704 49.8071 50.3261 47.6999 50.3261 45.082C50.3258 44.8086 50.3485 44.5356 50.3937 44.266H53.0112ZM65.4341 40.3559V42.9628H50.808C51.5587 41.4148 53.112 40.3559 54.9091 40.3559H65.4341Z" fill="white"/>
<path d="M81.9969 40.3569C83.3975 40.3569 84.5256 41.5199 84.5256 42.9638V56.65H81.9969V51.1103H71.2497V48.5034H81.9969V42.9638H68.7211C68.7211 41.5199 69.8491 40.3569 71.2497 40.3569H81.9969ZM71.2497 44.266V56.65H68.7211V44.266H71.2497Z" fill="white"/>
<path d="M46.6464 40.8854L43.3296 54.2423H42.3931L41.3669 50.1071C41.3669 50.1071 41.052 48.8371 39.8726 48.8371H38.617C37.4381 48.8371 37.1227 50.1071 37.1227 50.1071L36.097 54.2423H35.1605L31.8437 40.8854H29.4019L33.0341 55.5143C33.0341 55.5143 33.3514 56.7868 34.5283 56.7868H36.36C36.4272 56.1704 36.6974 55.5938 37.128 55.1476C37.128 55.1476 38.9736 53.1033 39.2448 51.034C39.515 53.1052 41.3626 55.1495 41.3626 55.1495C41.7932 55.5957 42.0633 56.1723 42.1306 56.7887H43.9622C45.1411 56.7887 45.4565 55.5163 45.4565 55.5163L49.0886 40.8873L46.6464 40.8854Z" fill="white"/>
<path d="M37.116 59.1565C37.2485 59.3177 37.3953 59.4667 37.5547 59.6015C37.7122 59.7369 37.8819 59.8576 38.0616 59.9619C38.4157 60.1738 38.8211 60.2846 39.2337 60.2821C39.6436 60.2783 40.044 60.1381 40.3996 59.9322C40.7568 59.7173 41.0843 59.4565 41.3736 59.1565C41.3049 59.2352 41.2353 59.3139 41.1648 59.3917L40.9406 59.613C40.86 59.6807 40.7817 59.7517 40.6977 59.8155C40.6137 59.8794 40.5292 59.9432 40.4371 59.996C40.392 60.0234 40.3473 60.0517 40.3012 60.0786L40.1572 60.1496C40.1105 60.1738 40.0624 60.1953 40.0132 60.2139L39.9388 60.2432L39.9019 60.2581L39.8635 60.2701L39.7099 60.3152C39.658 60.3272 39.6052 60.3368 39.5529 60.3474C39.5004 60.3573 39.4473 60.3643 39.394 60.3685C39.3672 60.3685 39.3408 60.3747 39.3139 60.3762H39.2337C39.0194 60.3791 38.8059 60.3493 38.6006 60.2879C38.3967 60.2257 38.2019 60.137 38.0212 60.0239C37.6632 59.7999 37.3551 59.5046 37.116 59.1565Z" fill="white"/>
<path d="M37.3713 56.7867C37.3402 57.0151 37.3329 57.2461 37.3497 57.476C37.3646 57.7031 37.4116 57.927 37.4894 58.1408C37.5667 58.3538 37.6828 58.5507 37.8316 58.7216C37.9847 58.8924 38.1627 59.039 38.3596 59.1565C38.14 59.0706 37.9407 58.9398 37.7745 58.7725C37.6911 58.6877 37.6171 58.5942 37.5537 58.4936C37.4912 58.3925 37.4388 58.2854 37.3972 58.1739C37.3166 57.951 37.2748 57.7159 37.2734 57.4789C37.2687 57.2444 37.3017 57.0107 37.3713 56.7867Z" fill="white"/>
</svg>
