<svg width="96" height="97" viewBox="0 0 96 97" fill="none" xmlns="http://www.w3.org/2000/svg">
<path d="M14.304 44.2727C14.2001 44.5322 14.1471 44.8092 14.148 45.0887V51.9234C14.148 53.0951 15.0634 54.0383 16.201 54.0383H22.8341C23.9712 54.0383 24.887 53.0951 24.887 51.9234H27.4138C27.4138 54.5375 25.3714 56.6418 22.8341 56.6418H16.2019C13.6646 56.6418 11.6218 54.5375 11.6218 51.9234V45.0863C11.6216 44.8129 11.6444 44.5399 11.6899 44.2703L14.304 44.2727ZM22.8326 40.3674C25.3699 40.3674 27.4123 42.4722 27.4123 45.0863H24.887C24.887 43.9146 23.9712 42.971 22.8341 42.971H12.1042C12.8544 41.4249 14.4038 40.3674 16.2019 40.3674H22.8326Z" fill="white"/>
<path d="M52.4856 44.266C52.3815 44.5254 52.3282 44.8024 52.3286 45.082C52.3286 46.2556 53.2454 47.2002 54.3835 47.2002H61.0214C63.5602 47.2002 65.6045 49.3074 65.6045 51.9249C65.6045 54.5423 63.5602 56.65 61.0214 56.65H50.496V54.0431H61.0214C62.159 54.0431 63.0758 53.0985 63.0758 51.9249C63.0758 50.7513 62.159 49.8071 61.0214 49.8071H54.384C51.8448 49.8071 49.8005 47.6999 49.8005 45.082C49.8002 44.8086 49.8229 44.5356 49.8682 44.266H52.4856ZM64.9085 40.3559V42.9628H50.2824C51.0331 41.4148 52.5864 40.3559 54.3835 40.3559H64.9085Z" fill="white"/>
<path d="M81.4714 40.3569C82.872 40.3569 84 41.5199 84 42.9638V56.65H81.4714V51.1103H70.7242V48.5034H81.4714V42.9638H68.1955C68.1955 41.5199 69.3235 40.3569 70.7242 40.3569H81.4714ZM70.7242 44.266V56.65H68.1955V44.266H70.7242Z" fill="white"/>
<path d="M32.6275 44.6846C32.5244 44.9344 32.4716 45.202 32.472 45.4723V52.0847C32.4714 52.3537 32.524 52.62 32.6267 52.8686C32.7293 53.1171 32.8801 53.343 33.0702 53.5331C33.2604 53.7232 33.4863 53.8739 33.7348 53.9765C33.9834 54.0791 34.2498 54.1316 34.5187 54.131H41.1302C41.3992 54.1316 41.6656 54.0791 41.9141 53.9765C42.1627 53.8739 42.3886 53.7232 42.5787 53.5331C42.7689 53.343 42.9197 53.1171 43.0223 52.8686C43.125 52.62 43.1775 52.3537 43.177 52.0847H45.696C45.6973 52.6847 45.5801 53.279 45.3512 53.8335C45.1222 54.388 44.7859 54.8918 44.3617 55.316C43.9374 55.7402 43.4336 56.0764 42.879 56.3054C42.3245 56.5343 41.7302 56.6514 41.1302 56.65H34.5182C33.9183 56.6515 33.3239 56.5344 32.7693 56.3055C32.2147 56.0766 31.7108 55.7404 31.2865 55.3162C30.8622 54.892 30.5259 54.3881 30.2969 53.8336C30.0679 53.279 29.9507 52.6847 29.952 52.0847V45.4723C29.9521 45.2083 29.9747 44.9447 30.0197 44.6846H32.6275ZM41.1302 40.906C41.7302 40.9047 42.3246 41.0219 42.8792 41.2509C43.4337 41.4799 43.9376 41.8162 44.3619 42.2405C44.7861 42.6648 45.1224 43.1687 45.3513 43.7233C45.5803 44.2779 45.6974 44.8723 45.696 45.4723H43.177C43.1775 45.2033 43.125 44.9369 43.0223 44.6883C42.9197 44.4398 42.7689 44.2139 42.5788 44.0237C42.3886 43.8336 42.1627 43.6828 41.9142 43.5802C41.6656 43.4775 41.3992 43.425 41.1302 43.4255H30.432C30.8111 42.6668 31.3944 42.029 32.1163 41.5839C32.8383 41.1388 33.6701 40.904 34.5182 40.906H41.1302Z" fill="white"/>
<path d="M45.4046 45.7828C45.1868 46.0815 45.0625 46.4381 45.0474 46.8075C45.0322 47.1768 45.127 47.5424 45.3196 47.8579C45.5122 48.1734 45.794 48.4247 46.1295 48.5801C46.4649 48.7354 46.8389 48.7878 47.2041 48.7306C47.5693 48.6735 47.9094 48.5093 48.1813 48.2588C48.4532 48.0084 48.6447 47.6829 48.7316 47.3236C48.8186 46.9643 48.797 46.5873 48.6697 46.2403C48.5424 45.8932 48.315 45.5917 48.0163 45.3739C47.818 45.2291 47.5931 45.1248 47.3545 45.067C47.1159 45.0092 46.8683 44.999 46.6257 45.037C46.3832 45.075 46.1505 45.1604 45.9409 45.2884C45.7314 45.4164 45.5492 45.5844 45.4046 45.7828Z" fill="white"/>
<path d="M45.3226 40.9497C45.1542 41.1803 45.058 41.4557 45.0462 41.7409C45.0344 42.0262 45.1074 42.3086 45.2561 42.5523C45.4048 42.7961 45.6224 42.9902 45.8815 43.1103C46.1405 43.2303 46.4293 43.2709 46.7114 43.2267C46.9935 43.1826 47.2562 43.0558 47.4662 42.8624C47.6762 42.669 47.8241 42.4176 47.8912 42.1401C47.9584 41.8626 47.9417 41.5714 47.8433 41.3034C47.7449 41.0354 47.5693 40.8025 47.3386 40.6343C47.0293 40.4091 46.6433 40.3158 46.2653 40.3749C45.8873 40.434 45.5482 40.6408 45.3226 40.9497Z" fill="white"/>
<path d="M43.2048 44.0116C43.1011 44.1532 43.0418 44.3224 43.0343 44.4978C43.0267 44.6732 43.0714 44.8469 43.1626 44.9968C43.2538 45.1468 43.3874 45.2664 43.5466 45.3405C43.7057 45.4145 43.8833 45.4397 44.0567 45.4129C44.2302 45.386 44.3918 45.3083 44.5211 45.1896C44.6505 45.0709 44.7417 44.9165 44.7832 44.746C44.8248 44.5754 44.8149 44.3964 44.7547 44.2315C44.6945 44.0666 44.5868 43.9232 44.4451 43.8196C44.3511 43.7507 44.2444 43.701 44.1312 43.6734C44.0179 43.6457 43.9004 43.6407 43.7852 43.6585C43.67 43.6763 43.5594 43.7167 43.4598 43.7773C43.3603 43.8379 43.2736 43.9175 43.2048 44.0116Z" fill="white"/>
</svg>
