<svg width="325" height="77" viewBox="0 0 325 77" fill="none" xmlns="http://www.w3.org/2000/svg">
<path d="M95.0958 32.9889C95.7689 32.8897 95.7689 32.8897 96.6334 32.8855C96.9564 32.8823 97.2794 32.879 97.6121 32.8757C97.9666 32.8762 98.321 32.877 98.6754 32.8779C99.0383 32.8768 99.4012 32.8754 99.7641 32.8739C100.526 32.8716 101.288 32.8722 102.049 32.8748C103.023 32.8777 103.997 32.8725 104.971 32.8651C105.721 32.8603 106.471 32.8604 107.221 32.8619C107.58 32.8619 107.939 32.8604 108.298 32.8572C108.801 32.8534 109.305 32.8568 109.808 32.8605C110.094 32.8606 110.38 32.8606 110.675 32.8606C111.667 33.0192 112.228 33.3996 113.014 34.0128C113.584 34.8083 113.588 35.4973 113.574 36.4606C113.572 36.7038 113.571 36.947 113.569 37.1975C113.526 37.8525 113.526 37.8525 113.27 38.6204C113.397 38.8738 113.397 38.8738 113.526 39.1324C113.68 40.3068 113.794 41.4604 113.21 42.523C112.577 43.2773 112.17 43.6801 111.222 43.9959C110.712 44.0225 110.201 44.0339 109.69 44.0371C109.375 44.0396 109.06 44.0421 108.735 44.0446C108.391 44.0458 108.047 44.0469 107.703 44.0479C107.35 44.0494 106.997 44.0508 106.644 44.0523C105.905 44.055 105.165 44.0565 104.426 44.0574C103.478 44.0588 102.531 44.065 101.583 44.0722C100.854 44.077 100.126 44.0783 99.397 44.0787C99.0475 44.0795 98.6981 44.0816 98.3486 44.0849C97.8603 44.0893 97.3719 44.0883 96.8836 44.0871C96.6057 44.0881 96.3278 44.089 96.0414 44.09C95.3517 43.9959 95.3517 43.9959 94.878 43.6653C94.3627 42.8993 94.4804 42.0001 94.4908 41.1082C94.4907 40.9009 94.4906 40.6935 94.4904 40.48C94.491 40.0419 94.4935 39.6038 94.4978 39.1657C94.5038 38.4949 94.503 37.8244 94.5013 37.1535C94.5028 36.7279 94.5046 36.3023 94.5068 35.8767C94.5066 35.6759 94.5064 35.4751 94.5061 35.2682C94.5189 34.2897 94.5403 33.8222 95.0958 32.9889ZM97.6555 35.8047C97.6555 36.227 97.6555 36.6494 97.6555 37.0846C99.4324 37.104 101.209 37.1175 102.986 37.1267C103.591 37.1306 104.196 37.1358 104.801 37.1425C105.669 37.1518 106.537 37.1561 107.405 37.1595C107.676 37.1635 107.948 37.1675 108.228 37.1716C108.479 37.1716 108.73 37.1717 108.989 37.1717C109.211 37.1734 109.432 37.1751 109.661 37.1769C109.838 37.1464 110.016 37.116 110.198 37.0846C110.367 36.8311 110.536 36.5777 110.71 36.3166C110.254 35.7546 110.254 35.7546 109.661 35.7431C109.328 35.7448 109.328 35.7448 108.989 35.7466C108.738 35.7466 108.487 35.7466 108.228 35.7467C107.956 35.7493 107.685 35.752 107.405 35.7547C106.988 35.7558 106.988 35.7558 106.563 35.7569C105.674 35.7597 104.784 35.7662 103.895 35.7727C103.293 35.7752 102.691 35.7776 102.089 35.7797C100.611 35.7853 99.1334 35.7939 97.6555 35.8047ZM97.6555 39.9003C97.6555 40.3226 97.6555 40.745 97.6555 41.1802C101.795 41.1802 105.934 41.1802 110.198 41.1802C110.283 40.8423 110.367 40.5044 110.454 40.1563C110.199 39.8441 110.199 39.8441 109.691 39.8695C109.469 39.8701 109.247 39.8706 109.018 39.8712C108.767 39.8712 108.516 39.8713 108.257 39.8713C107.984 39.8726 107.711 39.8739 107.43 39.8753C107.152 39.8757 106.874 39.876 106.587 39.8764C105.695 39.8778 104.803 39.881 103.911 39.8843C103.308 39.8856 102.705 39.8867 102.102 39.8878C100.62 39.8906 99.1376 39.8949 97.6555 39.9003Z" fill="white"/>
<path d="M172.506 32.8937C172.832 32.8921 173.158 32.8905 173.494 32.8889C173.848 32.8911 174.202 32.8935 174.555 32.896C174.92 32.8961 175.284 32.896 175.648 32.8956C176.41 32.8956 177.171 32.8983 177.933 32.9029C178.91 32.9088 179.886 32.9089 180.863 32.9072C181.615 32.9063 182.366 32.908 183.117 32.9105C183.477 32.9115 183.838 32.9118 184.198 32.9114C184.701 32.9113 185.203 32.9149 185.706 32.9187C185.992 32.9199 186.278 32.921 186.572 32.9223C187.247 32.989 187.247 32.989 187.759 33.5009C187.901 34.8334 187.901 34.8334 187.462 35.4628C186.803 35.9416 186.329 35.9068 185.518 35.9154C185.064 35.923 185.064 35.923 184.602 35.9308C184.112 35.9332 184.112 35.9332 183.613 35.9357C183.278 35.9403 182.944 35.9449 182.6 35.9496C181.713 35.9618 180.825 35.9694 179.938 35.9761C179.032 35.9837 178.126 35.9957 177.22 36.0072C175.443 36.0292 173.666 36.0465 171.889 36.0607C171.973 36.3141 172.058 36.5675 172.145 36.8286C172.318 36.8301 172.492 36.8316 172.67 36.8332C174.477 36.8495 176.283 36.8712 178.089 36.8958C178.763 36.9043 179.438 36.9115 180.112 36.9173C181.081 36.9259 182.05 36.9393 183.019 36.9536C183.32 36.9553 183.621 36.9569 183.932 36.9586C184.214 36.9636 184.495 36.9687 184.786 36.9739C185.033 36.9768 185.28 36.9796 185.535 36.9825C186.54 37.1315 187.215 37.5853 187.951 38.2685C188.514 39.3386 188.681 40.5162 188.406 41.7012C188.04 42.6444 187.616 43.2446 186.735 43.74C185.908 44.0157 185.306 44.0301 184.435 44.0331C183.963 44.0356 183.963 44.0356 183.48 44.0381C183.136 44.0385 182.792 44.0388 182.448 44.039C182.095 44.0398 181.742 44.0406 181.389 44.0415C180.65 44.0431 179.91 44.0435 179.171 44.0434C178.223 44.0434 177.276 44.0469 176.328 44.0513C175.599 44.0541 174.871 44.0546 174.142 44.0545C173.793 44.0548 173.443 44.0559 173.094 44.0579C172.605 44.0604 172.117 44.0594 171.629 44.0581C171.351 44.0585 171.073 44.0589 170.786 44.0592C170.097 43.996 170.097 43.996 169.329 43.484C169.249 42.5881 169.249 42.5881 169.329 41.6922C170.008 41.0128 170.336 41.1107 171.285 41.0986C171.588 41.0935 171.89 41.0884 172.201 41.0832C172.529 41.0802 172.857 41.0773 173.195 41.0742C173.529 41.0693 173.864 41.0643 174.208 41.0592C175.098 41.0461 175.987 41.0359 176.877 41.0264C177.785 41.0162 178.692 41.0031 179.6 40.9902C181.381 40.9654 183.162 40.9439 184.943 40.9242C185.028 40.5864 185.112 40.2485 185.199 39.9003C185.023 39.9026 184.847 39.9049 184.666 39.9072C182.83 39.9299 180.995 39.9453 179.159 39.9566C178.474 39.9612 177.79 39.9687 177.105 39.9776C176.12 39.99 175.135 39.9958 174.15 40.0003C173.845 40.0056 173.539 40.0109 173.224 40.0163C171.598 40.0168 170.547 40.0063 169.329 38.8764C168.548 37.7308 168.318 36.6472 168.561 35.2928C169.467 33.5152 170.538 32.8926 172.506 32.8937Z" fill="white"/>
<path d="M234.551 32.8855C234.989 32.8806 234.989 32.8806 235.436 32.8756C235.749 32.8764 236.063 32.8771 236.386 32.8779C236.71 32.8766 237.034 32.8752 237.368 32.8739C238.053 32.8722 238.737 32.8722 239.422 32.8747C240.297 32.8777 241.172 32.8725 242.046 32.865C242.885 32.8592 243.723 32.861 244.561 32.8619C245.03 32.8576 245.03 32.8576 245.509 32.8532C247.143 32.8666 248.222 32.8801 249.449 34.0128C249.957 34.7447 250.031 35.3394 250.025 36.2206C250.027 36.5186 250.027 36.5186 250.029 36.8226C249.961 37.3405 249.961 37.3405 249.449 37.8525C248.569 37.9484 248.569 37.9484 247.657 37.8525C247.061 37.2756 246.897 36.851 246.634 36.0606C242.579 36.0606 238.524 36.0606 234.347 36.0606C234.262 36.3985 234.178 36.7364 234.091 37.0845C234.425 37.0785 234.425 37.0785 234.766 37.0723C235.61 37.0591 236.454 37.0495 237.298 37.0423C237.66 37.0385 238.023 37.0333 238.385 37.0266C241.924 36.9625 245.481 37.204 248.244 39.6523C249.941 41.3096 249.941 41.3096 250.009 42.588C249.961 43.4839 249.961 43.4839 249.449 43.9959C248.599 44.1039 248.599 44.1039 247.657 43.9959C247.004 43.4719 247.004 43.4719 246.41 42.78C244.762 41.0075 243.097 40.2569 240.687 40.1037C240.383 40.0943 240.079 40.0849 239.765 40.0752C239.434 40.0645 239.104 40.0538 238.763 40.0428C238.416 40.0326 238.069 40.0224 237.722 40.0123C237.371 40.0012 237.019 39.99 236.667 39.9788C235.808 39.9516 234.95 39.9255 234.091 39.9003C234.1 40.153 234.109 40.4058 234.118 40.6662C234.125 40.9942 234.132 41.3222 234.139 41.6601C234.148 41.9868 234.157 42.3134 234.166 42.65C234.129 43.0628 234.129 43.0628 234.091 43.4839C233.203 44.076 232.831 44.1046 231.787 43.9959C231.361 43.7167 231.361 43.7167 231.019 43.228C230.92 42.4367 230.92 42.4367 230.917 41.4711C230.916 41.2997 230.916 41.1283 230.915 40.9517C230.914 40.5892 230.916 40.2266 230.919 39.8641C230.923 39.3129 230.919 38.7621 230.914 38.2109C230.915 37.8578 230.916 37.5047 230.917 37.1515C230.918 36.832 230.919 36.5125 230.92 36.1833C231.03 35.1906 231.241 34.5917 231.787 33.7568C232.728 33.0685 233.394 32.8917 234.551 32.8855Z" fill="white"/>
<path d="M129.857 32.8855C130.295 32.8806 130.295 32.8806 130.742 32.8756C131.055 32.8764 131.369 32.8771 131.691 32.8779C132.015 32.8766 132.34 32.8752 132.673 32.8739C133.358 32.8722 134.043 32.8722 134.728 32.8747C135.603 32.8777 136.477 32.8725 137.352 32.865C138.19 32.8592 139.028 32.861 139.867 32.8619C140.336 32.8576 140.336 32.8576 140.815 32.8532C142.449 32.8666 143.528 32.8801 144.755 34.0128C145.263 34.7447 145.337 35.3394 145.331 36.2206C145.333 36.5186 145.333 36.5186 145.335 36.8226C145.267 37.3405 145.267 37.3405 144.755 37.8525C143.875 37.9484 143.875 37.9484 142.963 37.8525C142.367 37.2756 142.203 36.851 141.939 36.0606C137.885 36.0606 133.83 36.0606 129.653 36.0606C129.568 36.3985 129.484 36.7364 129.397 37.0845C129.731 37.0785 129.731 37.0785 130.072 37.0723C130.916 37.0591 131.76 37.0495 132.604 37.0423C132.966 37.0385 133.328 37.0333 133.691 37.0266C137.23 36.9625 140.787 37.204 143.55 39.6523C145.247 41.3096 145.247 41.3096 145.315 42.588C145.267 43.4839 145.267 43.4839 144.755 43.9959C143.905 44.1039 143.905 44.1039 142.963 43.9959C142.309 43.4719 142.309 43.4719 141.715 42.78C140.068 41.0075 138.403 40.2569 135.993 40.1037C135.689 40.0943 135.385 40.0849 135.071 40.0752C134.74 40.0645 134.409 40.0538 134.069 40.0428C133.722 40.0326 133.375 40.0224 133.028 40.0123C132.676 40.0012 132.325 39.99 131.973 39.9788C131.114 39.9516 130.255 39.9255 129.397 39.9003C129.406 40.153 129.414 40.4058 129.424 40.6662C129.431 40.9942 129.437 41.3222 129.445 41.6601C129.454 41.9868 129.462 42.3134 129.472 42.65C129.434 43.0628 129.434 43.0628 129.397 43.4839C128.509 44.076 128.137 44.1046 127.093 43.9959C126.667 43.7167 126.667 43.7167 126.325 43.228C126.226 42.4367 126.226 42.4367 126.223 41.4711C126.222 41.2997 126.221 41.1283 126.221 40.9517C126.22 40.5892 126.222 40.2266 126.225 39.8641C126.229 39.3129 126.225 38.7621 126.22 38.2109C126.22 37.8578 126.221 37.5047 126.223 37.1515C126.224 36.832 126.225 36.5125 126.226 36.1833C126.336 35.1906 126.547 34.5917 127.093 33.7568C128.034 33.0685 128.699 32.8917 129.857 32.8855Z" fill="white"/>
<path d="M256.902 32.9227C257.376 32.9203 257.376 32.9203 257.859 32.9178C258.203 32.9187 258.547 32.9198 258.89 32.9209C259.244 32.9206 259.597 32.9201 259.95 32.9194C260.689 32.9187 261.428 32.9198 262.166 32.9222C263.115 32.9251 264.062 32.9234 265.01 32.9203C265.739 32.9185 266.468 32.9191 267.196 32.9204C267.546 32.9208 267.896 32.9203 268.245 32.9191C268.733 32.9178 269.221 32.9202 269.709 32.9227C269.986 32.9231 270.264 32.9235 270.55 32.9239C271.207 32.9889 271.207 32.9889 271.719 33.5009C271.783 34.3968 271.783 34.3968 271.719 35.2927C271.049 35.9626 270.76 35.8701 269.826 35.8741C269.393 35.878 269.393 35.878 268.951 35.882C268.638 35.8825 268.324 35.8831 268.002 35.8836C267.343 35.8901 266.684 35.8966 266.026 35.9031C264.984 35.911 263.942 35.9167 262.9 35.9215C261.896 35.9263 260.893 35.9371 259.89 35.9476C259.578 35.9477 259.266 35.9477 258.944 35.9477C258.654 35.9511 258.363 35.9546 258.064 35.9581C257.809 35.9594 257.553 35.9607 257.29 35.962C256.506 36.0769 256.158 36.279 255.593 36.8286C255.236 37.8977 255.178 38.8983 255.529 39.9803C255.932 40.5244 256.244 40.6716 256.873 40.9242C257.551 41.0041 257.551 41.0041 258.297 40.9977C258.582 41.0011 258.867 41.0045 259.161 41.0081C259.621 41.0101 259.621 41.0101 260.09 41.0122C260.406 41.0159 260.721 41.0197 261.046 41.0235C262.227 41.0374 263.407 41.047 264.587 41.0562C265.744 41.0654 266.901 41.0784 268.058 41.0922C268.365 41.0935 268.673 41.0949 268.99 41.0963C269.415 41.1014 269.415 41.1014 269.85 41.1067C270.225 41.1095 270.225 41.1095 270.608 41.1123C271.207 41.1802 271.207 41.1802 271.719 41.6921C271.783 42.588 271.783 42.588 271.719 43.4839C271.032 44.1715 270.682 44.0634 269.721 44.0703C269.253 44.0752 269.253 44.0752 268.776 44.0802C268.433 44.0809 268.091 44.0815 267.749 44.0819C267.398 44.0835 267.047 44.0852 266.696 44.087C265.96 44.0901 265.223 44.0911 264.486 44.0908C263.546 44.0907 262.606 44.0977 261.665 44.1065C260.94 44.1122 260.214 44.1132 259.489 44.113C258.975 44.1139 258.461 44.1194 257.946 44.125C256.174 44.1162 254.965 44.0774 253.545 42.972C252.261 41.4099 251.883 39.7251 251.928 37.7395C252.144 35.992 252.96 34.6173 254.313 33.5009C255.184 32.9545 255.882 32.9242 256.902 32.9227Z" fill="white"/>
<path d="M195.188 32.9227C195.499 32.9211 195.81 32.9194 196.13 32.9178C196.465 32.9188 196.799 32.9199 197.144 32.9209C197.492 32.9206 197.839 32.9201 198.186 32.9194C198.913 32.9187 199.64 32.9198 200.367 32.9222C201.299 32.9251 202.232 32.9234 203.164 32.9203C203.881 32.9185 204.598 32.9191 205.315 32.9204C205.826 32.9209 206.337 32.9194 206.849 32.9178C207.158 32.9194 207.467 32.921 207.786 32.9227C208.196 32.9233 208.196 32.9233 208.614 32.9239C209.261 32.9889 209.261 32.9889 209.773 33.5009C209.837 34.3968 209.837 34.3968 209.773 35.2927C209.107 35.959 208.831 35.8688 207.903 35.87C207.62 35.8718 207.336 35.8736 207.044 35.8754C206.582 35.875 206.582 35.875 206.111 35.8746C205.464 35.8798 204.818 35.8852 204.171 35.8906C203.147 35.8964 202.124 35.9009 201.1 35.9021C200.115 35.9046 199.129 35.9132 198.144 35.9226C197.837 35.9214 197.531 35.9201 197.215 35.9187C196.787 35.9238 196.787 35.9238 196.35 35.929C196.1 35.9297 195.849 35.9305 195.59 35.9312C194.742 36.0966 194.443 36.4253 193.903 37.0845C193.444 38.001 193.527 39.0202 193.839 39.9803C194.241 40.5238 194.555 40.6712 195.182 40.9242C195.851 41.0057 195.851 41.0057 196.583 41.0017C196.863 41.006 197.143 41.0103 197.432 41.0146C197.733 41.0168 198.034 41.0189 198.344 41.0212C198.654 41.0255 198.964 41.0299 199.283 41.0343C200.273 41.048 201.263 41.0583 202.254 41.0682C203.246 41.0794 204.238 41.0913 205.23 41.1047C205.848 41.1129 206.465 41.1198 207.083 41.1253C207.361 41.1287 207.64 41.1322 207.927 41.1357C208.173 41.1382 208.419 41.1406 208.672 41.1431C209.261 41.1802 209.261 41.1802 209.773 41.4361C209.823 42.986 209.823 42.986 209.773 43.4839C209.09 44.1675 208.753 44.0634 207.798 44.0703C207.491 44.0735 207.184 44.0768 206.868 44.0802C206.368 44.081 206.368 44.081 205.858 44.0819C205.513 44.0835 205.168 44.0852 204.823 44.087C204.099 44.0901 203.374 44.0911 202.65 44.0908C201.725 44.0907 200.8 44.0977 199.875 44.1065C199.161 44.1122 198.448 44.1132 197.734 44.113C197.229 44.1139 196.723 44.1194 196.217 44.125C194.456 44.1161 193.268 44.0663 191.855 42.972C190.57 41.4099 190.193 39.7251 190.238 37.7395C190.454 35.992 191.269 34.6173 192.623 33.5009C193.488 32.9599 194.176 32.9242 195.188 32.9227Z" fill="white"/>
<path d="M151.928 32.9227C152.239 32.9211 152.55 32.9194 152.87 32.9178C153.205 32.9188 153.539 32.9199 153.884 32.9209C154.232 32.9206 154.579 32.9201 154.926 32.9194C155.653 32.9187 156.38 32.9198 157.107 32.9222C158.04 32.9251 158.972 32.9234 159.905 32.9203C160.621 32.9185 161.338 32.9191 162.055 32.9204C162.566 32.9209 163.077 32.9194 163.589 32.9178C163.898 32.9194 164.207 32.921 164.526 32.9227C164.936 32.9233 164.936 32.9233 165.354 32.9239C166.001 32.9889 166.001 32.9889 166.513 33.5009C166.577 34.3968 166.577 34.3968 166.513 35.2927C165.847 35.959 165.571 35.8688 164.643 35.87C164.36 35.8718 164.076 35.8736 163.784 35.8754C163.322 35.875 163.322 35.875 162.851 35.8746C162.205 35.8798 161.558 35.8852 160.911 35.8906C159.887 35.8964 158.864 35.9009 157.84 35.9021C156.855 35.9046 155.87 35.9132 154.884 35.9226C154.578 35.9214 154.271 35.9201 153.955 35.9187C153.527 35.9238 153.527 35.9238 153.09 35.929C152.84 35.9297 152.589 35.9305 152.33 35.9312C151.482 36.0966 151.183 36.4253 150.643 37.0845C150.184 38.001 150.267 39.0202 150.579 39.9803C150.981 40.5238 151.295 40.6712 151.922 40.9242C152.591 41.0057 152.591 41.0057 153.323 41.0017C153.603 41.006 153.883 41.0103 154.172 41.0146C154.473 41.0168 154.774 41.0189 155.084 41.0212C155.394 41.0255 155.704 41.0299 156.023 41.0343C157.013 41.048 158.004 41.0583 158.994 41.0682C159.986 41.0794 160.978 41.0913 161.97 41.1047C162.588 41.1129 163.205 41.1198 163.823 41.1253C164.101 41.1287 164.38 41.1322 164.667 41.1357C164.913 41.1382 165.159 41.1406 165.412 41.1431C166.001 41.1802 166.001 41.1802 166.513 41.4361C166.563 42.986 166.563 42.986 166.513 43.4839C165.83 44.1675 165.493 44.0634 164.538 44.0703C164.231 44.0735 163.925 44.0768 163.608 44.0802C163.108 44.081 163.108 44.081 162.598 44.0819C162.253 44.0835 161.908 44.0852 161.563 44.087C160.839 44.0901 160.114 44.0911 159.39 44.0908C158.465 44.0907 157.54 44.0977 156.615 44.1065C155.901 44.1122 155.188 44.1132 154.474 44.113C153.969 44.1139 153.463 44.1194 152.957 44.125C151.196 44.1161 150.008 44.0663 148.595 42.972C147.31 41.4099 146.933 39.7251 146.978 37.7395C147.194 35.992 148.009 34.6173 149.363 33.5009C150.228 32.9599 150.916 32.9242 151.928 32.9227Z" fill="white"/>
<path d="M274.503 32.9209C274.682 32.9222 274.862 32.9235 275.047 32.9249C275.226 32.9236 275.406 32.9223 275.591 32.9209C276.071 32.9889 276.071 32.9889 276.583 33.5008C276.731 34.0783 276.826 34.6562 276.926 35.2437C277.122 35.894 277.333 36.1551 277.863 36.5726C278.88 36.9116 279.866 36.8836 280.927 36.9005C281.265 36.9076 281.265 36.9076 281.609 36.9148C282.572 36.9349 283.535 36.9523 284.499 36.9699C285.201 36.9831 285.904 36.9978 286.607 37.0125C286.826 37.016 287.045 37.0195 287.27 37.023C288.812 37.0556 288.812 37.0556 289.382 37.3405C289.368 36.9658 289.368 36.9658 289.355 36.5836C289.348 36.2579 289.341 35.9322 289.334 35.5966C289.32 35.1111 289.32 35.1111 289.307 34.6157C289.382 33.7568 289.382 33.7568 289.712 33.2629C290.441 32.8067 291.109 32.9132 291.941 32.9889C292.615 33.6626 292.517 34.1507 292.524 35.0678C292.523 35.2819 292.522 35.496 292.521 35.7166C292.522 35.9363 292.522 36.1559 292.523 36.3822C292.523 36.847 292.522 37.3118 292.52 37.7766C292.517 38.4895 292.52 39.2023 292.523 39.9152C292.523 40.3662 292.522 40.8172 292.521 41.2681C292.522 41.4822 292.523 41.6964 292.524 41.917C292.512 43.4251 292.512 43.4251 291.941 43.9959C291.061 44.0919 291.061 44.0919 290.15 43.9959C289.431 43.3967 289.386 43.0093 289.286 42.076C289.205 41.1692 289.205 41.1692 288.621 40.6214C287.566 39.9885 286.726 40.0065 285.517 40.0092C285.294 40.0056 285.071 40.002 284.841 39.9982C284.131 39.9875 283.421 39.9836 282.71 39.9802C281.999 39.9728 281.288 39.9639 280.577 39.954C280.135 39.9483 279.693 39.9442 279.251 39.942C278.95 39.9393 278.95 39.9393 278.643 39.9366C278.467 39.9357 278.291 39.9348 278.11 39.9339C277.576 39.8982 277.097 39.789 276.583 39.6443C276.592 39.8941 276.601 40.1438 276.61 40.4012C276.617 40.7269 276.624 41.0526 276.631 41.3881C276.64 41.7118 276.649 42.0355 276.658 42.369C276.583 43.2279 276.583 43.2279 276.244 43.7209C275.572 44.1514 275.055 44.0929 274.279 43.9959C273.853 43.6666 273.853 43.6666 273.511 43.2279C273.438 42.481 273.41 41.7898 273.418 41.0431C273.418 40.8295 273.418 40.6159 273.418 40.3959C273.418 39.9447 273.421 39.4934 273.425 39.0423C273.431 38.3501 273.43 37.6582 273.429 36.966C273.43 36.5279 273.432 36.0898 273.434 35.6516C273.434 35.4439 273.434 35.2362 273.433 35.0222C273.458 33.0689 273.458 33.0689 274.503 32.9209Z" fill="white"/>
<path d="M220.268 32.381C220.479 32.379 220.69 32.377 220.908 32.375C222.418 32.6156 223.149 33.5553 224.028 34.7328C224.191 34.9498 224.191 34.9498 224.357 35.1713C224.704 35.6361 225.046 36.1037 225.388 36.5726C225.503 36.7314 225.619 36.8902 225.738 37.0538C226.483 38.0818 227.221 39.1149 227.947 40.1563C228.139 40.4245 228.33 40.6928 228.527 40.9692C229.082 41.8719 229.091 42.4425 228.971 43.484C228.459 43.9959 228.459 43.9959 227.598 44.0989C226.668 43.9959 226.668 43.9959 226.097 43.533C225.931 43.3109 225.766 43.0888 225.596 42.86C225.404 42.6066 225.212 42.3532 225.014 42.0921C224.796 41.7889 224.579 41.4849 224.364 41.1802C224.173 40.9109 224.173 40.9109 223.978 40.6362C223.434 39.8679 222.89 39.0995 222.357 38.3235C221.721 37.4017 221.102 36.5634 220.268 35.8047C218.524 38.0606 216.788 40.3167 215.167 42.6637C214.434 43.7132 214.434 43.7132 213.869 43.9959C212.524 44.1104 212.524 44.1104 211.853 43.7079C211.417 42.9811 211.465 42.5339 211.565 41.6921C211.938 41.0086 212.418 40.4234 212.909 39.8203C213.191 39.4609 213.473 39.1009 213.754 38.7404C213.899 38.5543 214.045 38.3682 214.195 38.1765C215.063 37.0357 215.863 35.8437 216.659 34.652C217.626 33.2457 218.461 32.3641 220.268 32.381Z" fill="white"/>
<path d="M83.8328 32.381C84.044 32.379 84.2552 32.377 84.4728 32.375C85.9824 32.6156 86.7141 33.5553 87.5925 34.7328C87.7554 34.9498 87.7554 34.9498 87.9216 35.1713C88.2684 35.6361 88.6111 36.1037 88.9524 36.5726C89.068 36.7314 89.1836 36.8902 89.3027 37.0538C90.0481 38.0818 90.7856 39.1149 91.5121 40.1563C91.7035 40.4245 91.8949 40.6928 92.0921 40.9692C92.6464 41.8719 92.6562 42.4425 92.536 43.484C92.0241 43.9959 92.0241 43.9959 91.1631 44.0989C90.2322 43.9959 90.2322 43.9959 89.6613 43.533C89.496 43.3109 89.3307 43.0888 89.1603 42.86C88.9683 42.6066 88.7762 42.3532 88.5784 42.0921C88.3606 41.7889 88.1441 41.4849 87.9284 41.1802C87.7373 40.9109 87.7373 40.9109 87.5422 40.6362C86.9983 39.8679 86.4548 39.0995 85.9219 38.3235C85.2854 37.4017 84.6668 36.5634 83.8328 35.8047C82.0888 38.0606 80.3526 40.3167 78.7319 42.6637C77.9988 43.7132 77.9988 43.7132 77.4334 43.9959C76.0884 44.1104 76.0884 44.1104 75.4176 43.7079C74.9815 42.9811 75.0292 42.5339 75.1296 41.6921C75.503 41.0086 75.9831 40.4234 76.4735 39.8203C76.7558 39.4609 77.0375 39.1009 77.3184 38.7404C77.4642 38.5543 77.6099 38.3682 77.76 38.1765C78.6282 37.0357 79.4276 35.8437 80.2239 34.652C81.1904 33.2457 82.0254 32.3641 83.8328 32.381Z" fill="white"/>
<path d="M54.9076 32.9889C55.3875 32.8959 55.3875 32.8959 55.9315 32.9089C56.111 32.9099 56.2905 32.9109 56.4754 32.9119C56.9554 32.9889 56.9554 32.9889 57.4674 33.5008C57.5449 34.2128 57.5449 34.2128 57.5643 35.1097C57.5775 35.5905 57.5775 35.5905 57.5908 36.0811C57.5976 36.4175 57.6044 36.7539 57.6113 37.1005C57.6266 37.7648 57.6429 38.4291 57.6603 39.0933C57.6665 39.389 57.6726 39.6846 57.6789 39.9893C57.6471 40.6482 57.6471 40.6482 57.9793 40.9241C58.4399 40.953 58.9016 40.9643 59.3631 40.9686C59.8065 40.9737 59.8065 40.9737 60.2588 40.979C60.5806 40.9817 60.9024 40.9844 61.234 40.9871C61.735 40.9934 62.236 40.9997 62.737 41.0061C63.9774 41.0217 65.2178 41.0347 66.4582 41.0462C67.153 41.0527 67.8478 41.0606 68.5427 41.0699C69.1987 41.0786 69.8548 41.0852 70.5109 41.0896C70.8072 41.0939 71.1036 41.0982 71.409 41.1025C71.8017 41.1065 71.8017 41.1065 72.2024 41.1105C72.8259 41.1801 72.8259 41.1801 73.3379 41.6921C73.4019 42.588 73.4019 42.588 73.3379 43.4839C72.6491 44.1727 72.2984 44.062 71.3353 44.0661C70.8662 44.0698 70.8662 44.0698 70.3876 44.0735C70.0445 44.0735 69.7014 44.0732 69.3582 44.0728C69.0068 44.0738 68.6554 44.0749 68.304 44.0762C67.5663 44.0781 66.8287 44.078 66.091 44.0766C65.1482 44.0752 64.2056 44.0795 63.2628 44.0854C62.5363 44.0892 61.8099 44.0894 61.0834 44.0886C60.5676 44.0888 60.0518 44.0924 59.536 44.096C59.062 44.0936 59.062 44.0936 58.5785 44.0911C58.3015 44.0913 58.0245 44.0915 57.7392 44.0916C56.6011 43.9525 55.7291 43.5695 54.9556 42.716C54.1263 41.3193 54.348 39.7096 54.3482 38.1394C54.3476 37.5984 54.343 37.0575 54.3381 36.5165C54.3374 36.1726 54.3369 35.8286 54.3366 35.4846C54.3356 35.1718 54.3345 34.859 54.3335 34.5367C54.3956 33.7568 54.3956 33.7568 54.9076 32.9889Z" fill="white"/>
<path d="M51.8358 32.9889C52.3478 33.5009 52.3478 33.5009 52.4118 34.3968C52.3478 35.2927 52.3478 35.2927 51.8358 35.8046C51.4241 35.9753 51.0074 36.134 50.5879 36.2846C49.6045 36.6663 48.897 36.9834 48.2522 37.8524C48.1677 38.1059 48.0832 38.3593 47.9962 38.6204C48.8731 40.0611 49.9614 40.5513 51.4959 41.1851C52.0918 41.4361 52.0918 41.4361 52.3478 41.6921C52.3958 42.572 52.3958 42.572 52.3478 43.4839C51.8358 43.9959 51.8358 43.9959 51.0679 44.0919C49.1942 44.0294 47.4297 43.1323 46.0694 41.8781C45.4232 41.1205 45.0614 40.2998 44.6685 39.3883C44.5141 39.5754 44.5141 39.5754 44.3565 39.7663C43.7849 40.2551 43.4914 40.2596 42.7487 40.2522C42.5507 40.2542 42.3527 40.2562 42.1487 40.2582C41.4641 40.1317 41.2367 39.9467 40.8288 39.3883C40.729 38.2704 40.7103 37.7743 41.3408 36.8285C41.9237 36.7266 41.9237 36.7266 42.6047 36.7326C42.9408 36.7296 42.9408 36.7296 43.2836 36.7266C43.999 36.8448 44.2225 37.0401 44.6685 37.5965C44.8005 37.2903 44.9325 36.984 45.0685 36.6686C45.966 34.8924 47.3884 33.911 49.2041 33.1649C50.1332 32.8849 50.8703 32.8873 51.8358 32.9889Z" fill="white"/>
<path d="M33.8695 32.869C35.9067 32.8399 37.4628 33.5852 39.005 34.8928C39.1845 35.1093 39.3641 35.3257 39.549 35.5487C39.7443 35.7705 39.9397 35.9922 40.1409 36.2207C40.7588 37.4565 40.7696 38.5437 40.5729 39.9003C39.6221 41.916 37.8448 43.0775 35.8033 43.819C35.0458 44.0402 34.4429 44.1293 33.6615 43.9959C33.1656 43.724 33.1656 43.724 32.8936 43.228C32.7976 42.3641 32.7976 42.3641 33.1496 41.4362C33.8317 41.0328 34.5256 40.7514 35.2614 40.4583C36.1978 40.0566 36.6623 39.7092 37.2452 38.8764C37.3287 38.2055 37.3287 38.2055 36.9892 37.5965C35.9486 36.4888 34.5469 36.0588 33.1496 35.5487C32.701 33.1712 32.701 33.1712 33.8695 32.869Z" fill="white"/>
<path d="M196.222 37.0433C196.492 37.0408 196.762 37.0384 197.04 37.0358C197.332 37.0348 197.625 37.0337 197.926 37.0326C198.375 37.0304 198.375 37.0304 198.833 37.0281C199.466 37.0257 200.1 37.024 200.733 37.0231C201.706 37.0206 202.678 37.0126 203.651 37.0046C204.265 37.0029 204.879 37.0015 205.493 37.0006C205.786 36.9974 206.078 36.9942 206.38 36.991C206.65 36.9917 206.92 36.9925 207.198 36.9933C207.436 36.9924 207.674 36.9914 207.92 36.9905C208.109 37.0215 208.298 37.0526 208.493 37.0845C209.045 37.912 209.125 38.1728 209.005 39.1324C208.582 39.7067 208.354 39.8815 207.643 39.9961C207.41 39.9959 207.177 39.9958 206.936 39.9956C206.539 39.998 206.539 39.998 206.134 40.0004C205.848 39.9981 205.563 39.9957 205.268 39.9933C204.975 39.9934 204.682 39.9935 204.38 39.9937C203.76 39.9931 203.14 39.9906 202.52 39.9863C201.569 39.9803 200.617 39.9811 199.665 39.9828C199.064 39.9813 198.463 39.9795 197.861 39.9773C197.575 39.9775 197.289 39.9777 196.994 39.978C196.73 39.9755 196.466 39.9731 196.194 39.9706C195.961 39.9694 195.728 39.9682 195.488 39.967C194.926 39.9003 194.926 39.9003 194.414 39.3883C194.345 38.7002 194.392 38.0339 194.414 37.3405C195.057 37.0192 195.503 37.0486 196.222 37.0433Z" fill="white"/>
<path d="M152.962 37.0433C153.232 37.0408 153.502 37.0384 153.78 37.0358C154.072 37.0348 154.365 37.0337 154.666 37.0326C155.115 37.0304 155.115 37.0304 155.573 37.0281C156.206 37.0257 156.84 37.024 157.473 37.0231C158.446 37.0206 159.418 37.0126 160.391 37.0046C161.005 37.0029 161.619 37.0015 162.233 37.0006C162.526 36.9974 162.819 36.9942 163.12 36.991C163.39 36.9917 163.66 36.9925 163.938 36.9933C164.176 36.9924 164.414 36.9914 164.66 36.9905C164.849 37.0215 165.038 37.0526 165.233 37.0845C165.785 37.912 165.865 38.1728 165.745 39.1324C165.322 39.7067 165.094 39.8815 164.383 39.9961C164.15 39.9959 163.917 39.9958 163.676 39.9956C163.279 39.998 163.279 39.998 162.874 40.0004C162.588 39.9981 162.303 39.9957 162.009 39.9933C161.715 39.9934 161.422 39.9935 161.12 39.9937C160.5 39.9931 159.88 39.9906 159.26 39.9863C158.309 39.9803 157.357 39.9811 156.406 39.9828C155.804 39.9813 155.203 39.9795 154.601 39.9773C154.315 39.9775 154.029 39.9777 153.734 39.978C153.47 39.9755 153.206 39.9731 152.934 39.9706C152.701 39.9694 152.468 39.9682 152.228 39.967C151.666 39.9003 151.666 39.9003 151.155 39.3883C151.085 38.7002 151.132 38.0339 151.155 37.3405C151.797 37.0192 152.243 37.0486 152.962 37.0433Z" fill="white"/>
<path d="M221.01 39.2824C221.548 39.3884 221.548 39.3884 222.092 39.9323C222.359 40.8102 222.313 41.3268 222.06 42.2041C221.415 42.8492 221.16 42.7922 220.268 42.796C220.041 42.8003 219.814 42.8046 219.58 42.809C219.287 42.763 219.287 42.763 218.988 42.7161C218.358 41.7703 218.377 41.2742 218.476 40.1563C219.176 39.2021 219.897 39.2425 221.01 39.2824Z" fill="white"/>
<path d="M84.5748 39.2824C85.1127 39.3884 85.1127 39.3884 85.6567 39.9323C85.9239 40.8102 85.8781 41.3268 85.6247 42.2041C84.9796 42.8492 84.7249 42.7922 83.8328 42.796C83.6058 42.8003 83.3788 42.8046 83.1449 42.809C82.8519 42.763 82.8519 42.763 82.553 42.7161C81.9224 41.7703 81.9412 41.2742 82.041 40.1563C82.7412 39.2021 83.4622 39.2425 84.5748 39.2824Z" fill="white"/>
</svg>
