<svg width="96" height="97" viewBox="0 0 96 97" fill="none" xmlns="http://www.w3.org/2000/svg">
<path d="M14.688 44.266C14.5838 44.5254 14.5307 44.8024 14.5315 45.082V51.9253C14.5315 53.0985 15.4483 54.0431 16.5864 54.0431H23.221C24.359 54.0431 25.2758 53.0985 25.2758 51.9253H27.8045C27.8045 54.5433 25.7602 56.65 23.221 56.65H16.5835C14.0443 56.65 12 54.5433 12 51.9253V45.082C11.9999 44.8086 12.0227 44.5356 12.0682 44.266H14.688ZM23.2234 40.3559C25.7626 40.3559 27.8069 42.4631 27.8069 45.081H25.2758C25.2758 43.9074 24.359 42.9628 23.221 42.9628H12.4829C13.2331 41.4148 14.784 40.3559 16.5835 40.3559H23.2234Z" fill="white"/>
<path d="M52.4856 44.266C52.3815 44.5254 52.3282 44.8024 52.3286 45.082C52.3286 46.2556 53.2454 47.2002 54.3835 47.2002H61.0214C63.5602 47.2002 65.6045 49.3074 65.6045 51.9249C65.6045 54.5423 63.5602 56.65 61.0214 56.65H50.496V54.0431H61.0214C62.159 54.0431 63.0758 53.0985 63.0758 51.9249C63.0758 50.7513 62.159 49.8071 61.0214 49.8071H54.384C51.8448 49.8071 49.8005 47.6999 49.8005 45.082C49.8002 44.8086 49.8229 44.5356 49.8682 44.266H52.4856ZM64.9085 40.3559V42.9628H50.2824C51.0331 41.4148 52.5864 40.3559 54.3835 40.3559H64.9085Z" fill="white"/>
<path d="M81.4714 40.3569C82.872 40.3569 84 41.5199 84 42.9638V56.65H81.4714V51.1103H70.7242V48.5034H81.4714V42.9638H68.1955C68.1955 41.5199 69.3235 40.3569 70.7242 40.3569H81.4714ZM70.7242 44.266V56.65H68.1955V44.266H70.7242Z" fill="white"/>
<path d="M35.0909 40.4601C34.4739 40.4587 33.8628 40.5792 33.2925 40.8146C32.7222 41.0501 32.2041 41.3958 31.7678 41.8321C31.3315 42.2683 30.9857 42.7864 30.7502 43.3566C30.5147 43.9269 30.3942 44.538 30.3955 45.155V56.65H32.9875V45.1555C32.9868 44.7528 33.1018 44.3584 33.3188 44.0192C33.5358 43.68 33.8456 43.4103 34.2115 43.2422L44.0122 53.0438V56.65H46.6042V51.9695L35.0909 40.4601Z" fill="white"/>
<path d="M44.011 40.4601L44.0107 40.4602V40.4601H44.011Z" fill="white"/>
<path d="M44.011 40.4601L44.0107 40.4602V40.4601H44.011Z" fill="white"/>
<path d="M46.6018 40.3569H43.139V43.1193L44.0107 43.8196V47.5492L46.6027 50.1412V40.4601H46.4784L46.6018 40.3617V40.3569Z" fill="white"/>
<path d="M46.6018 40.3617V43.8196H46.6013V40.4601H46.4784L46.6018 40.3617Z" fill="white"/>
</svg>
