<svg width="184" height="80" viewBox="0 0 184 80" fill="none" xmlns="http://www.w3.org/2000/svg">
<path d="M126.101 33.2228C129.174 34.7282 130.479 39.8476 131.642 42.8088C131.707 43.0048 131.772 43.2008 131.84 43.4028C131.97 43.4028 132.101 43.4028 132.236 43.4028C132.236 40.0049 132.236 36.6069 132.236 33.106C133.346 33.106 134.457 33.106 135.602 33.106C135.615 34.6053 135.626 36.1046 135.633 37.604C135.636 38.3003 135.64 38.9966 135.647 39.6929C135.654 40.4946 135.657 41.2962 135.66 42.0979C135.664 42.4705 135.664 42.4705 135.669 42.8506C135.669 44.6082 135.488 45.8552 134.216 47.1651C133.408 47.636 132.555 47.6928 131.642 47.5611C130.15 47.119 129.364 46.0735 128.63 44.7545C128.407 44.3078 128.196 43.8575 127.991 43.4028C127.878 43.1596 127.878 43.1596 127.763 42.9115C126.905 41.0478 126.057 39.174 125.305 37.2643C125.174 37.2643 125.044 37.2643 124.909 37.2643C124.909 40.6623 124.909 44.0602 124.909 47.5611C123.798 47.5611 122.687 47.5611 121.543 47.5611C121.525 46.0721 121.51 44.5831 121.502 43.0939C121.498 42.4023 121.492 41.7107 121.483 41.0191C121.473 40.2218 121.469 39.4246 121.465 38.6272C121.461 38.3819 121.457 38.1366 121.453 37.8838C121.453 36.1867 121.612 34.6382 122.842 33.3783C123.914 32.9495 124.985 32.8969 126.101 33.2228Z" fill="white"/>
<path d="M94.6256 33.0609C94.8197 33.0609 95.0139 33.0609 95.214 33.061C95.4211 33.063 95.6282 33.0651 95.8416 33.0672C96.1626 33.068 96.1626 33.068 96.49 33.0689C97.1719 33.0711 97.8538 33.076 98.5357 33.0811C98.9987 33.0831 99.4616 33.0849 99.9245 33.0865C101.058 33.0909 102.192 33.0977 103.325 33.1058C103.325 34.1514 103.325 35.1969 103.325 36.2741C103.071 36.2759 102.818 36.2778 102.556 36.2797C101.614 36.2876 100.673 36.3006 99.7309 36.3152C99.3233 36.3208 98.9158 36.325 98.5082 36.3278C97.9222 36.332 97.3364 36.3412 96.7505 36.3514C96.4773 36.3518 96.4773 36.3518 96.1985 36.3522C95.1768 36.3705 95.1768 36.3705 94.291 36.8424C93.9644 37.2554 93.9644 37.2554 94.0556 37.7963C94.1748 38.2411 94.1748 38.2411 94.4145 38.4523C94.8472 38.4765 95.2807 38.4879 95.714 38.494C95.985 38.4996 96.256 38.5053 96.527 38.511C96.9536 38.5192 97.3801 38.5265 97.8068 38.5317C101.471 38.581 101.471 38.581 102.798 39.6001C103.806 40.8323 104.216 41.9346 104.164 43.5357C104.012 45.024 103.534 45.9111 102.4 46.8857C101.145 47.6462 99.8489 47.6148 98.4251 47.5996C98.1248 47.5988 98.1248 47.5988 97.8184 47.5979C97.1829 47.5957 96.5475 47.5908 95.912 47.5857C95.4795 47.5837 95.047 47.5819 94.6145 47.5803C93.5577 47.576 92.501 47.5691 91.4443 47.561C91.4443 46.5155 91.4443 45.4699 91.4443 44.3927C91.6851 44.3898 91.9258 44.3869 92.1739 44.384C93.0688 44.3725 93.9637 44.3572 94.8586 44.3408C95.2456 44.3342 95.6326 44.3286 96.0196 44.3241C96.5766 44.3175 97.1334 44.3071 97.6903 44.296C97.949 44.2941 97.949 44.2941 98.2129 44.2922C99.1432 44.2698 99.8081 44.2231 100.553 43.6007C100.702 43.1056 100.702 43.1056 100.553 42.6106C100.072 42.1117 99.7928 42.0199 99.0963 41.9466C98.8368 41.9478 98.5773 41.9489 98.3099 41.95C98.0219 41.9475 97.7339 41.945 97.4459 41.9423C96.9953 41.9415 96.5448 41.9423 96.0943 41.9452C92.7902 41.9581 92.7902 41.9581 91.6423 40.8284C90.4574 39.3093 90.491 37.7202 90.6522 35.8781C91.0187 34.8304 91.7055 34.1043 92.6324 33.5019C93.3252 33.1799 93.8634 33.0569 94.6256 33.0609Z" fill="white"/>
<path d="M68.8706 33.1059C69.9815 33.1059 71.0923 33.1059 72.2369 33.1059C72.2369 34.9356 72.2369 36.7652 72.2369 38.6503C73.1354 38.6258 74.0339 38.6013 74.9596 38.5761C75.2418 38.5693 75.5241 38.5626 75.8149 38.5557C76.038 38.5486 76.2612 38.5416 76.4911 38.5343C76.8333 38.525 76.8333 38.525 77.1824 38.5155C77.7598 38.4546 78.0942 38.3751 78.5734 38.0563C79.256 37.0535 79.2727 36.0848 79.3036 34.9128C79.3103 34.7387 79.3171 34.5646 79.3241 34.3853C79.3403 33.9589 79.3532 33.5324 79.3654 33.1059C80.4763 33.1059 81.5872 33.1059 82.7317 33.1059C82.8695 38.6015 82.8695 38.6015 81.5436 40.4325C81.6661 40.5917 81.7886 40.751 81.9149 40.9151C82.8356 42.3108 82.7857 43.9787 82.7565 45.5932C82.7547 45.7835 82.7529 45.9738 82.751 46.1699C82.7464 46.6336 82.7393 47.0973 82.7317 47.561C81.6208 47.561 80.51 47.561 79.3654 47.561C79.3543 47.1743 79.3543 47.1743 79.343 46.7798C79.33 46.4379 79.3168 46.096 79.3036 45.7541C79.2969 45.4999 79.2969 45.4999 79.29 45.2405C79.2477 44.2408 79.1857 43.4414 78.5734 42.6106C77.3586 41.8376 76.0295 41.9086 74.6254 41.8805C73.8372 41.86 73.049 41.8396 72.2369 41.8186C72.2369 43.7136 72.2369 45.6086 72.2369 47.561C71.126 47.561 70.0151 47.561 68.8706 47.561C68.8706 42.7908 68.8706 38.0206 68.8706 33.1059Z" fill="white"/>
<path d="M149.116 34.2569C150.507 35.3809 151.305 36.5363 151.839 38.2543C151.839 38.385 151.839 38.5157 151.839 38.6504C148.669 38.9247 148.669 38.9247 147.734 38.2745C147.347 37.7964 147.347 37.7964 147.005 37.3045C146.518 36.6278 146.102 36.4916 145.305 36.2742C144.016 36.0797 142.98 36.5276 141.938 37.2643C141.083 38.2662 140.686 39.2798 140.708 40.6073C140.831 41.826 141.501 42.7478 142.334 43.6008C143.335 44.2991 144.322 44.3539 145.503 44.1948C146.279 43.9768 146.906 43.7116 147.323 42.9974C147.401 42.8535 147.478 42.7095 147.557 42.5612C147.829 42.1435 147.829 42.1435 148.275 41.8186C149.445 41.6088 150.661 41.7297 151.839 41.8186C151.735 42.6115 151.583 43.2176 151.183 43.9102C151.102 44.0534 151.021 44.1966 150.938 44.3441C150.334 45.2802 149.744 45.9177 148.795 46.5091C148.613 46.6242 148.432 46.7394 148.245 46.858C146.425 47.8482 144.106 47.8581 142.1 47.4249C141.614 47.2431 141.193 47.0375 140.75 46.769C140.611 46.6873 140.473 46.6056 140.329 46.5215C138.721 45.4489 137.697 43.8621 137.272 41.988C136.935 39.7698 137.211 37.7296 138.486 35.8534C141.062 32.484 145.656 31.8354 149.116 34.2569Z" fill="white"/>
<path d="M64.9598 34.2569C66.35 35.3809 67.1485 36.5363 67.6825 38.2543C67.6825 38.385 67.6825 38.5157 67.6825 38.6504C64.5127 38.9247 64.5127 38.9247 63.5775 38.2745C63.19 37.7964 63.19 37.7964 62.8481 37.3045C62.361 36.6278 61.945 36.4916 61.148 36.2742C59.8592 36.0797 58.8232 36.5276 57.7817 37.2643C56.926 38.2662 56.5292 39.2798 56.5511 40.6073C56.6747 41.826 57.3441 42.7478 58.1777 43.6008C59.1786 44.2991 60.165 44.3539 61.346 44.1948C62.122 43.9768 62.7498 43.7116 63.1668 42.9974C63.2439 42.8535 63.321 42.7095 63.4004 42.5612C63.6726 42.1435 63.6726 42.1435 64.1182 41.8186C65.2887 41.6088 66.5042 41.7297 67.6825 41.8186C67.5786 42.6115 67.4267 43.2176 67.0265 43.9102C66.9456 44.0534 66.8647 44.1966 66.7813 44.3441C66.1774 45.2802 65.5869 45.9177 64.638 46.5091C64.4567 46.6242 64.2755 46.7394 64.0888 46.858C62.2679 47.8482 59.949 47.8581 57.9433 47.4249C57.4578 47.2431 57.0366 47.0375 56.5936 46.769C56.4547 46.6873 56.3159 46.6056 56.1728 46.5215C54.5639 45.4489 53.5407 43.8621 53.1152 41.988C52.7783 39.7698 53.0548 37.7296 54.3296 35.8534C56.9057 32.484 61.4996 31.8354 64.9598 34.2569Z" fill="white"/>
<path d="M104.117 33.1059C105.294 33.1059 106.47 33.1059 107.682 33.1059C109.163 36.0425 109.163 36.0425 109.74 37.3013C109.818 37.4704 109.896 37.6394 109.976 37.8135C110.127 38.1438 110.277 38.4749 110.425 38.8068C110.91 39.909 110.91 39.909 111.84 40.6305C112.542 40.6622 112.542 40.6622 113.226 40.4324C113.908 39.7146 114.304 38.908 114.695 38.0098C114.755 37.8755 114.815 37.7411 114.877 37.6026C115.066 37.1769 115.254 36.7503 115.441 36.3236C115.631 35.8943 115.822 35.4651 116.013 35.0361C116.131 34.77 116.248 34.5035 116.366 34.2368C116.768 33.3258 116.768 33.3258 116.988 33.1059C117.254 33.0888 117.521 33.0847 117.787 33.0865C117.948 33.0872 118.108 33.0878 118.273 33.0885C118.441 33.0901 118.609 33.0918 118.783 33.0935C118.952 33.0944 119.121 33.0953 119.295 33.0962C119.714 33.0985 120.134 33.1021 120.553 33.1059C120.439 34.0699 120.136 34.8661 119.72 35.7334C119.657 35.8682 119.594 36.0029 119.529 36.1417C119.395 36.4258 119.26 36.7095 119.125 36.9929C118.921 37.421 118.719 37.8501 118.518 38.2794C116.554 42.4466 116.554 42.4466 115.59 43.1057C115.461 43.1975 115.332 43.2894 115.199 43.3841C114.81 43.6007 114.81 43.6007 114.018 43.7987C114.018 45.0403 114.018 46.2818 114.018 47.561C112.907 47.561 111.796 47.561 110.652 47.561C110.652 46.3194 110.652 45.0779 110.652 43.7987C110.26 43.668 109.868 43.5373 109.464 43.4027C108.53 42.7466 108.055 42.1387 107.57 41.1131C107.508 40.9826 107.445 40.8522 107.381 40.7177C107.236 40.4123 107.092 40.1061 106.95 39.7993C106.701 39.2646 106.449 38.7315 106.196 38.1988C105.957 37.6964 105.72 37.1933 105.484 36.6901C105.365 36.4379 105.246 36.1858 105.127 35.9338C104.958 35.5762 104.792 35.2178 104.625 34.8594C104.527 34.6504 104.429 34.4414 104.329 34.226C104.117 33.6999 104.117 33.6999 104.117 33.1059Z" fill="white"/>
<path d="M32.6337 33.1059C37.2732 33.1059 41.9127 33.1059 46.6928 33.1059C46.6928 34.1514 46.6928 35.1969 46.6928 36.2741C44.9285 36.2741 43.1642 36.2741 41.3464 36.2741C41.3464 39.9988 41.3464 43.7235 41.3464 47.561C40.2355 47.561 39.1247 47.561 37.9801 47.561C37.9801 43.8364 37.9801 40.1117 37.9801 36.2741C36.2158 36.2741 34.4515 36.2741 32.6337 36.2741C32.6337 35.2286 32.6337 34.1831 32.6337 33.1059Z" fill="white"/>
<path d="M48.2769 33.1059C49.3225 33.1059 50.368 33.1059 51.4452 33.1059C51.4452 37.8761 51.4452 42.6463 51.4452 47.561C50.3997 47.561 49.3542 47.561 48.2769 47.561C48.2769 42.7908 48.2769 38.0206 48.2769 33.1059Z" fill="white"/>
</svg>
