<svg width="184" height="97" viewBox="0 0 184 97" fill="none" xmlns="http://www.w3.org/2000/svg">
<path d="M13.9898 43.2494C13.876 43.5289 13.8176 43.8279 13.8178 44.1296V51.5256C13.8171 51.8261 13.8758 52.1237 13.9905 52.4015C14.1051 52.6792 14.2735 52.9315 14.486 53.144C14.6985 53.3564 14.9508 53.5249 15.2285 53.6395C15.5063 53.7542 15.8039 53.8129 16.1044 53.8122H23.4953C23.7958 53.8129 24.0934 53.7542 24.3711 53.6395C24.6488 53.5249 24.9012 53.3564 25.1136 53.144C25.3261 52.9315 25.4945 52.6792 25.6092 52.4015C25.7239 52.1237 25.7825 51.8261 25.7819 51.5256H28.6148C28.6162 52.1963 28.485 52.8607 28.229 53.4806C27.9729 54.1005 27.597 54.6637 27.1228 55.1379C26.6485 55.6122 26.0853 55.9881 25.4654 56.2442C24.8455 56.5002 24.1812 56.6313 23.5105 56.63H16.1044C15.4337 56.6313 14.7693 56.5002 14.1494 56.2442C13.5295 55.9881 12.9663 55.6122 12.4921 55.1379C12.0178 54.6637 11.6419 54.1005 11.3858 53.4806C11.1298 52.8607 10.9987 52.1963 11 51.5256V44.1043C10.9997 43.8093 11.0251 43.5148 11.0759 43.2241L13.9898 43.2494ZM23.4953 39.0253C24.1651 39.022 24.829 39.1508 25.449 39.4043C26.069 39.6579 26.6329 40.0313 27.1085 40.503C27.584 40.9748 27.9618 41.5357 28.2203 42.1537C28.4788 42.7716 28.6128 43.4345 28.6148 44.1043H25.7819C25.7825 43.8039 25.7239 43.5062 25.6092 43.2285C25.4945 42.9508 25.3261 42.6985 25.1136 42.486C24.9012 42.2735 24.6488 42.1051 24.3711 41.9905C24.0934 41.8758 23.7958 41.8171 23.4953 41.8178H11.5362C11.9593 40.9721 12.6091 40.2608 13.4131 39.7632C14.2171 39.2656 15.1437 39.0014 16.0892 39L23.4953 39.0253Z" fill="white"/>
<path d="M33.6736 43.2496C33.5599 43.5291 33.5015 43.8281 33.5016 44.1299C33.5003 44.4308 33.5585 44.7289 33.6729 45.0072C33.7872 45.2856 33.9555 45.5385 34.1681 45.7515C34.3806 45.9645 34.6331 46.1333 34.9112 46.2483C35.1893 46.3633 35.4873 46.4222 35.7882 46.4215H43.1791C43.8494 46.4215 44.5132 46.5535 45.1325 46.8101C45.7518 47.0666 46.3145 47.4426 46.7885 47.9165C47.2624 48.3905 47.6384 48.9532 47.8949 49.5725C48.1515 50.1918 48.2835 50.8555 48.2835 51.5259C48.2835 52.1962 48.1515 52.8599 47.8949 53.4792C47.6384 54.0985 47.2624 54.6612 46.7885 55.1352C46.3145 55.6092 45.7518 55.9851 45.1325 56.2417C44.5132 56.4982 43.8494 56.6302 43.1791 56.6302H31.4427V53.8124H43.164C43.7224 53.7479 44.2377 53.4802 44.6117 53.0605C44.9857 52.6407 45.1923 52.0982 45.1923 51.536C45.1923 50.9738 44.9857 50.4312 44.6117 50.0115C44.2377 49.5917 43.7224 49.3241 43.164 49.2595H35.773C35.0259 49.2594 34.2879 49.0954 33.611 48.7791C32.9341 48.4628 32.3348 48.0019 31.8553 47.4288C31.3759 46.8558 31.0279 46.1846 30.836 45.4625C30.6441 44.7405 30.6129 43.9851 30.7446 43.2496H33.6736ZM47.5095 39.0255V41.8433H31.2201C31.6431 40.9977 32.293 40.2863 33.097 39.7887C33.901 39.2912 34.8275 39.0269 35.773 39.0255H47.5095Z" fill="white"/>
<path d="M73.4967 39C74.244 39 74.9607 39.2969 75.4891 39.8253C76.0176 40.3537 76.3144 41.0704 76.3144 41.8178V56.6047H73.4967V50.6201H61.5275V47.8023H73.4967V41.8178H58.7148C58.7141 41.448 58.7864 41.0817 58.9274 40.7398C59.0685 40.398 59.2756 40.0873 59.5368 39.8256C59.7981 39.5639 60.1084 39.3563 60.45 39.2146C60.7915 39.0729 61.1577 39 61.5275 39H73.4967ZM61.5275 43.2494V56.6047H58.7148V43.2494H61.5275Z" fill="white"/>
<path d="M92.3863 39C93.7401 39 95.0384 39.5378 95.9956 40.495C96.9529 41.4523 97.4906 42.7506 97.4906 44.1043C97.4906 45.4581 96.9529 46.7564 95.9956 47.7137C95.0384 48.6709 93.7401 49.2087 92.3863 49.2087H92.356L96.6003 56.6047H93.3677L89.1284 49.2087H82.7088V56.6047H79.891V43.2494H82.7088V46.4162H92.3863C92.9748 46.3885 93.53 46.1353 93.9367 45.709C94.3434 45.2828 94.5703 44.7163 94.5703 44.1271C94.5703 43.538 94.3434 42.9714 93.9367 42.5452C93.53 42.1189 92.9748 41.8657 92.3863 41.838H79.891V39H92.3863Z" fill="white"/>
<path d="M115.085 39C115.455 38.9993 115.822 39.0718 116.164 39.2131C116.507 39.3545 116.817 39.562 117.079 39.8238C117.341 40.0856 117.549 40.3965 117.69 40.7387C117.831 41.0808 117.904 41.4475 117.903 41.8178V56.6047H115.085V50.6201H103.121V47.8023H115.085V41.8178H100.303C100.303 41.4475 100.375 41.0808 100.517 40.7387C100.658 40.3965 100.865 40.0856 101.127 39.8238C101.389 39.562 101.7 39.3545 102.042 39.2131C102.384 39.0718 102.751 38.9993 103.121 39H115.085ZM103.121 43.2494V56.6047H100.303V43.2494H103.121Z" fill="white"/>
<path d="M133.98 39C135 39.0005 135.997 39.306 136.842 39.8772C137.687 40.4484 138.342 41.2593 138.722 42.2056C139.103 43.1519 139.192 44.1905 138.978 45.1878C138.764 46.1851 138.257 47.0956 137.521 47.8023C138.259 48.5081 138.769 49.4187 138.984 50.4169C139.2 51.4151 139.111 52.4549 138.73 53.4023C138.349 54.3496 137.693 55.1611 136.846 55.7319C135.999 56.3027 135.001 56.6067 133.98 56.6047H121.48V43.2494H124.297V46.4162H133.975C134.285 46.4308 134.594 46.3824 134.884 46.2739C135.175 46.1654 135.44 45.9992 135.664 45.7852C135.889 45.5712 136.067 45.3139 136.189 45.0289C136.311 44.7439 136.374 44.4371 136.374 44.1271C136.374 43.8171 136.311 43.5103 136.189 43.2253C136.067 42.9403 135.889 42.6831 135.664 42.4691C135.44 42.2551 135.175 42.0888 134.884 41.9803C134.594 41.8719 134.285 41.8234 133.975 41.838H121.48V39H133.98ZM124.297 53.7869H133.98C134.538 53.7223 135.054 53.4547 135.428 53.035C135.802 52.6152 136.008 52.0726 136.008 51.5104C136.008 50.9483 135.802 50.4057 135.428 49.9859C135.054 49.5662 134.538 49.2986 133.98 49.234H124.297V53.7869Z" fill="white"/>
<path d="M151.832 39V41.8178H148.033V53.7869H151.832V56.6047H141.426V53.7869H145.226V39H151.832ZM143.809 39V41.8178H141.426V39H143.809Z" fill="white"/>
<path d="M169.351 39C170.099 39 170.815 39.2969 171.344 39.8253C171.872 40.3537 172.169 41.0704 172.169 41.8178V56.6047H169.351V50.6201H157.382V47.8023H169.351V41.8178H154.579C154.579 41.0704 154.876 40.3537 155.405 39.8253C155.933 39.2969 156.65 39 157.397 39H169.351ZM157.382 43.2494V56.6047H154.579V43.2494H157.382Z" fill="white"/>
</svg>
