<svg width="96" height="97" viewBox="0 0 96 97" fill="none" xmlns="http://www.w3.org/2000/svg">
<path d="M16.08 44.266C15.9762 44.5255 15.9233 44.8025 15.924 45.082V51.9254C15.924 53.0985 16.8403 54.0431 17.9784 54.0431H24.6144C25.7525 54.0431 26.6688 53.0985 26.6688 51.9254H29.1974C29.1974 54.5433 27.1536 56.65 24.6144 56.65H17.9765C15.4373 56.65 13.393 54.5433 13.393 51.9254V45.082C13.3929 44.8086 13.4157 44.5356 13.4611 44.266H16.08ZM24.6144 40.3569C27.1536 40.3569 29.1974 42.4641 29.1974 45.082H26.6688C26.6688 43.9084 25.7525 42.9638 24.6144 42.9638H13.8758C14.6266 41.4158 16.177 40.3569 17.9765 40.3569H24.6144Z" fill="white"/>
<path d="M52.4856 44.266C52.3815 44.5254 52.3282 44.8024 52.3286 45.082C52.3286 46.2556 53.2454 47.2002 54.3835 47.2002H61.0214C63.5602 47.2002 65.6045 49.3074 65.6045 51.9249C65.6045 54.5423 63.5602 56.65 61.0214 56.65H50.496V54.0431H61.0214C62.159 54.0431 63.0758 53.0985 63.0758 51.9249C63.0758 50.7513 62.159 49.8071 61.0214 49.8071H54.384C51.8448 49.8071 49.8005 47.6999 49.8005 45.082C49.8002 44.8086 49.8229 44.5356 49.8682 44.266H52.4856ZM64.9085 40.3559V42.9628H50.2824C51.0331 41.4148 52.5864 40.3559 54.3835 40.3559H64.9085Z" fill="white"/>
<path d="M81.4714 40.3569C82.872 40.3569 84 41.5199 84 42.9638V56.65H81.4714V51.1103H70.7242V48.5034H81.4714V42.9638H68.1955C68.1955 41.5199 69.3235 40.3569 70.7242 40.3569H81.4714ZM70.7242 44.266V56.65H68.1955V44.266H70.7242Z" fill="white"/>
<path d="M37.2245 51.8769V56.4316H34.213V49.3564L37.2245 51.8769Z" fill="white"/>
<path d="M37.2251 43.2014H37.225V43.9449H37.2251V43.2014Z" fill="white"/>
<path d="M42.7099 40.3569H33.1992V43.0449L34.213 43.726V47.3553L35.3424 48.3009L37.225 49.8762H42.7099C44.8613 49.8762 46.5936 47.7537 46.5936 45.1166C46.5936 42.4794 44.8613 40.3569 42.7099 40.3569ZM42.7099 47.2502H37.225V42.983H42.7099C43.6747 42.983 44.4514 43.9348 44.4514 45.117C44.4514 46.2993 43.6747 47.2502 42.7099 47.2502Z" fill="white"/>
</svg>
