<svg width="178" height="78" viewBox="0 0 178 78" fill="none" xmlns="http://www.w3.org/2000/svg">
<path d="M107.263 32.8259C108.729 32.8086 110.196 32.7946 111.662 32.7864C112.343 32.7824 113.024 32.7771 113.705 32.7684C114.363 32.7601 115.021 32.7556 115.679 32.7536C116.051 32.7515 116.422 32.7456 116.794 32.7396C118.099 32.7392 118.978 32.7669 120.019 33.5874C120.536 34.1601 120.663 34.524 120.668 35.2913C120.67 35.4781 120.672 35.665 120.675 35.8575C120.674 36.0582 120.674 36.2589 120.673 36.4657C120.674 36.6733 120.675 36.8808 120.676 37.0946C120.677 37.5334 120.677 37.9723 120.675 38.4111C120.674 39.0814 120.679 39.7514 120.685 40.4217C120.686 40.8484 120.686 41.275 120.685 41.7017C120.687 41.9016 120.689 42.1016 120.692 42.3076C120.681 43.4209 120.631 44.1646 119.829 45.0114C119.024 45.4876 118.439 45.6533 117.508 45.6474C117.28 45.6474 117.051 45.6473 116.815 45.6473C116.571 45.6443 116.327 45.6414 116.076 45.6383C115.822 45.6373 115.567 45.6365 115.313 45.6359C114.646 45.6337 113.979 45.6281 113.312 45.6218C112.631 45.6159 111.949 45.6133 111.268 45.6104C109.933 45.6046 108.598 45.5935 107.263 45.5826C107.263 42.441 107.263 39.2994 107.263 36.0626C108.268 36.0626 109.273 36.0626 110.309 36.0626C110.309 38.4502 110.309 40.8378 110.309 43.2978C111.369 43.2742 112.43 43.2506 113.522 43.2264C113.857 43.2199 114.191 43.2134 114.536 43.2068C114.8 43.2001 115.065 43.1932 115.329 43.1862C115.467 43.184 115.605 43.1819 115.747 43.1797C116.542 43.1807 116.542 43.1807 117.163 42.7266C117.226 41.9726 117.289 41.2186 117.354 40.4418C115.218 40.4418 113.081 40.4418 110.88 40.4418C110.88 39.6878 110.88 38.9338 110.88 38.157C113.017 38.157 115.153 38.157 117.354 38.157C117.422 36.0083 117.422 36.0083 116.592 35.301C116.159 35.2114 116.159 35.2114 115.671 35.2187C115.484 35.2149 115.297 35.2112 115.105 35.2073C114.904 35.2061 114.703 35.2049 114.496 35.2036C114.289 35.2002 114.083 35.1968 113.871 35.1932C113.211 35.1829 112.551 35.1765 111.892 35.1701C111.445 35.1638 110.998 35.1573 110.551 35.1504C109.455 35.1342 108.359 35.1215 107.263 35.1106C107.263 34.3567 107.263 33.6027 107.263 32.8259Z" fill="white"/>
<path d="M94.7348 32.7707C94.9369 32.7682 95.1391 32.7658 95.3473 32.7633C95.6748 32.7627 95.6748 32.7627 96.009 32.762C96.346 32.7601 96.346 32.7601 96.6899 32.7582C97.1657 32.7562 97.6415 32.7553 98.1174 32.7554C98.8445 32.7546 99.5714 32.7477 100.299 32.7404C100.761 32.7393 101.223 32.7386 101.685 32.7382C102.011 32.7341 102.011 32.7341 102.343 32.7299C103.531 32.7367 104.276 32.7707 105.168 33.5876C105.608 34.2476 105.596 34.4945 105.592 35.2723C105.592 35.501 105.592 35.7296 105.592 35.9652C105.59 36.2122 105.588 36.4591 105.586 36.7135C105.585 36.9688 105.585 37.2241 105.585 37.4795C105.583 38.1509 105.579 38.8223 105.575 39.4937C105.571 40.179 105.57 40.8644 105.568 41.5497C105.564 42.8941 105.557 44.2384 105.549 45.5827C104.544 45.5827 103.538 45.5827 102.503 45.5827C102.503 43.8862 102.503 42.1898 102.503 40.4419C100.304 40.4419 98.1044 40.4419 95.8387 40.4419C95.8387 39.6879 95.8387 38.934 95.8387 38.1571C98.0378 38.1571 100.237 38.1571 102.503 38.1571C102.524 36.2256 102.524 36.2256 101.899 35.5574C101.278 35.262 100.856 35.2029 100.17 35.2C99.9441 35.199 99.7186 35.198 99.4864 35.197C99.2526 35.2 99.0188 35.2029 98.778 35.206C98.5434 35.203 98.3089 35.2001 98.0673 35.197C97.8421 35.198 97.6169 35.199 97.3849 35.2C97.0769 35.2013 97.0769 35.2013 96.7627 35.2026C96.0808 35.3263 95.8906 35.5304 95.4579 36.0627C95.3418 36.5211 95.3418 36.5211 95.3539 37.0231C95.3483 37.3089 95.3483 37.3089 95.3426 37.6005C95.3422 37.907 95.3422 37.907 95.3419 38.2196C95.3387 38.4298 95.3356 38.6401 95.3323 38.8567C95.3231 39.5279 95.319 40.199 95.3151 40.8703C95.3097 41.3255 95.304 41.7807 95.298 42.2358C95.2839 43.3514 95.2745 44.467 95.2675 45.5827C94.2622 45.5827 93.2569 45.5827 92.2211 45.5827C92.1996 44.1096 92.1821 42.6367 92.1718 41.1635C92.1668 40.4794 92.1601 39.7954 92.1493 39.1114C92.1389 38.4509 92.1333 37.7905 92.1308 37.13C92.1282 36.7561 92.1208 36.3822 92.1133 36.0084C92.1127 34.308 92.1127 34.308 92.6672 33.5446C93.815 32.7782 93.815 32.7782 94.7348 32.7707Z" fill="white"/>
<path d="M134.832 32.7922C135.022 32.7898 135.212 32.7873 135.408 32.7848C135.614 32.7834 135.82 32.782 136.033 32.7805C136.245 32.779 136.457 32.7775 136.675 32.7759C137.124 32.7732 137.573 32.7712 138.023 32.7697C138.708 32.7664 139.393 32.7581 140.078 32.7497C140.515 32.7477 140.951 32.7461 141.388 32.7448C141.592 32.7415 141.797 32.7382 142.007 32.7347C143.227 32.7383 143.978 32.8464 144.962 33.5875C145.48 34.1589 145.605 34.5245 145.61 35.2913C145.612 35.4782 145.615 35.665 145.617 35.8575C145.616 36.0583 145.616 36.259 145.615 36.4658C145.616 36.6733 145.617 36.8808 145.618 37.0946C145.62 37.5335 145.619 37.9723 145.618 38.4112C145.616 39.0815 145.622 39.7515 145.628 40.4218C145.628 40.8484 145.628 41.2751 145.627 41.7018C145.629 41.9017 145.631 42.1017 145.634 42.3077C145.623 43.421 145.573 44.1647 144.771 45.0114C143.757 45.7491 142.679 45.6655 141.475 45.6585C141.164 45.6593 141.164 45.6593 140.848 45.6601C140.411 45.6605 139.975 45.6595 139.538 45.6571C138.871 45.654 138.204 45.6571 137.537 45.6607C137.113 45.6603 136.688 45.6596 136.263 45.6585C136.064 45.6596 135.865 45.6608 135.66 45.662C134.355 45.6494 133.524 45.5055 132.519 44.6149C132.066 43.8133 132.11 43.1225 132.13 42.2172C132.132 42.041 132.133 41.8649 132.134 41.6834C132.138 41.1227 132.148 40.5622 132.157 40.0016C132.161 39.6206 132.165 39.2397 132.168 38.8588C132.176 37.9267 132.189 36.9947 132.205 36.0627C133.21 36.0627 134.215 36.0627 135.251 36.0627C135.258 36.5393 135.265 37.016 135.273 37.507C135.282 37.9677 135.291 38.4283 135.301 38.8889C135.308 39.2095 135.313 39.5301 135.317 39.8508C135.324 40.3112 135.334 40.7714 135.344 41.2317C135.345 41.3755 135.347 41.5193 135.348 41.6675C135.354 42.1148 135.354 42.1148 135.442 42.7266C136.138 43.1909 136.476 43.1541 137.305 43.1513C137.43 43.1512 137.555 43.1511 137.684 43.1511C137.948 43.1505 138.212 43.149 138.475 43.1466C138.88 43.1431 139.284 43.1427 139.689 43.1428C140.935 43.2106 140.935 43.2106 142.106 42.917C142.106 40.4038 142.106 37.8905 142.106 35.3011C138.838 35.2383 135.571 35.1754 132.205 35.1107C132.386 34.3854 132.485 34.1762 132.955 33.647C133.054 33.5324 133.154 33.4178 133.257 33.2997C133.759 32.7927 134.143 32.7999 134.832 32.7922Z" fill="white"/>
<path d="M54.8332 32.8043C55.0161 32.8043 55.1991 32.8043 55.3876 32.8043C55.5855 32.8053 55.7834 32.8063 55.9874 32.8073C56.1897 32.8076 56.392 32.8078 56.6005 32.8081C57.2484 32.8092 57.8964 32.8116 58.5444 32.814C58.9829 32.8149 59.4215 32.8158 59.8601 32.8166C60.9368 32.8187 62.0134 32.822 63.0901 32.8259C63.0901 33.5799 63.0901 34.3338 63.0901 35.1107C62.8787 35.1144 62.6673 35.1182 62.4495 35.1221C61.6667 35.1366 60.884 35.1535 60.1012 35.1711C59.7621 35.1784 59.4231 35.185 59.084 35.191C58.5971 35.1997 58.1104 35.2107 57.6236 35.2222C57.4715 35.2244 57.3194 35.2266 57.1626 35.2289C56.3244 35.2197 56.3244 35.2197 55.6646 35.6819C55.6312 36.2281 55.6205 36.7557 55.6274 37.3017C55.6282 37.5418 55.6282 37.5418 55.629 37.7868C55.6312 38.2989 55.636 38.8111 55.6408 39.3232C55.6427 39.6701 55.6444 40.0169 55.646 40.3637C55.6502 41.2149 55.6568 42.0659 55.6646 42.917C56.3756 43.154 57.0495 43.1516 57.791 43.1677C58.018 43.1736 58.018 43.1736 58.2495 43.1796C58.7326 43.1921 59.2156 43.2033 59.6987 43.2145C60.0263 43.2227 60.3539 43.231 60.6815 43.2394C61.4844 43.2598 62.2872 43.2791 63.0901 43.2978C63.0901 44.0518 63.0901 44.8058 63.0901 45.5826C61.8978 45.5968 60.7056 45.6071 59.5132 45.614C59.108 45.6168 58.7029 45.6207 58.2977 45.6257C57.7135 45.6327 57.1294 45.6359 56.5452 45.6384C56.3656 45.6413 56.1861 45.6443 56.0011 45.6473C54.5611 45.6477 53.3962 45.4821 52.3413 44.4347C51.6759 43.5732 51.6979 42.7264 51.7183 41.6727C51.7181 41.4829 51.7179 41.2931 51.7177 41.0976C51.7186 40.698 51.7223 40.2984 51.7286 39.8989C51.7376 39.2887 51.7364 38.6791 51.7339 38.0689C51.736 37.6796 51.7387 37.2902 51.7421 36.9009C51.7417 36.7194 51.7414 36.5379 51.741 36.3509C51.7639 35.2721 51.8921 34.6297 52.6182 33.7779C53.384 33.1032 53.8191 32.8016 54.8332 32.8043Z" fill="white"/>
<path d="M79.274 32.826C80.4678 32.826 81.6616 32.826 82.8916 32.826C82.9858 37.8212 82.9858 37.8212 83.082 42.9172C83.793 43.1542 84.4669 43.1518 85.2083 43.1678C85.4353 43.1737 85.4353 43.1737 85.6669 43.1798C86.1499 43.1922 86.633 43.2035 87.116 43.2147C87.4437 43.2229 87.7713 43.2312 88.0989 43.2396C88.9018 43.26 89.7046 43.2793 90.5075 43.298C90.5075 44.0519 90.5075 44.8059 90.5075 45.5828C89.3152 45.5969 88.1229 45.6073 86.9306 45.6141C86.5254 45.617 86.1202 45.6209 85.7151 45.6258C85.1309 45.6328 84.5468 45.636 83.9626 45.6385C83.783 45.6415 83.6035 45.6444 83.4185 45.6475C81.992 45.6478 80.8241 45.4771 79.757 44.466C79.0018 43.487 79.1322 42.357 79.1624 41.1746C79.1641 40.9356 79.1657 40.6966 79.1673 40.4503C79.1726 39.8188 79.1829 39.1877 79.1956 38.5563C79.2073 37.9105 79.2125 37.2647 79.2182 36.6188C79.2308 35.3544 79.2505 34.0903 79.274 32.826Z" fill="white"/>
<path d="M74.6792 32.7256C74.8519 32.7214 75.0247 32.7173 75.2027 32.713C75.9912 32.7216 76.7747 32.7609 77.5604 32.826C77.3155 33.4999 77.0285 34.0353 76.5995 34.6087C76.4856 34.762 76.3717 34.9153 76.2544 35.0732C76.1356 35.2309 76.0168 35.3886 75.8944 35.551C75.7786 35.7065 75.6627 35.862 75.5434 36.0222C75.4285 36.1762 75.3137 36.3302 75.1953 36.4889C75.0825 36.641 74.9698 36.7931 74.8536 36.9498C74.6293 37.2442 74.398 37.5335 74.1597 37.8168C73.8641 38.175 73.5961 38.5122 73.3717 38.9187C73.4806 39.7521 74.0936 40.3542 74.6093 41.0012C74.7797 41.2184 74.9497 41.4358 75.1195 41.6535C75.2073 41.766 75.2951 41.8786 75.3855 41.9946C75.8432 42.5881 76.2874 43.1909 76.7274 43.7977C76.8524 43.9667 76.8524 43.9667 76.9799 44.139C77.5604 44.9449 77.5604 44.9449 77.5604 45.5827C74.4146 45.8995 74.4146 45.8995 73.388 45.2101C72.9447 44.6596 72.5891 44.0966 72.2293 43.4883C71.9732 43.1204 71.7097 42.7587 71.445 42.3969C71.1926 42.0509 70.9457 41.7017 70.7001 41.3508C70.3756 40.8624 70.3756 40.8624 70.1349 40.6323C69.5658 40.5452 68.9945 40.4984 68.4213 40.4419C68.4213 39.6879 68.4213 38.934 68.4213 38.1571C68.6469 38.1591 68.8724 38.1611 69.1048 38.1631C69.6355 38.0958 69.8836 38.0227 70.2807 37.6573C70.6076 37.2329 70.903 36.7981 71.194 36.3483C71.3027 36.1926 71.4114 36.0369 71.5234 35.8765C71.9657 35.2413 72.3792 34.6161 72.741 33.9312C73.2216 33.0818 73.7034 32.7467 74.6792 32.7256Z" fill="white"/>
<path d="M126.874 32.826C128.005 32.826 129.136 32.826 130.301 32.826C130.301 37.0358 130.301 41.2455 130.301 45.5828C129.17 45.5828 128.039 45.5828 126.874 45.5828C126.874 41.373 126.874 37.1633 126.874 32.826Z" fill="white"/>
<path d="M46.5254 32.826C47.6564 32.826 48.7874 32.826 49.9526 32.826C49.9526 37.0358 49.9526 41.2455 49.9526 45.5828C48.8216 45.5828 47.6907 45.5828 46.5254 45.5828C46.5254 41.373 46.5254 37.1633 46.5254 32.826Z" fill="white"/>
<path d="M64.8037 32.826C65.8719 32.826 66.94 32.826 68.0405 32.826C68.0405 37.0358 68.0405 41.2455 68.0405 45.5828C66.9724 45.5828 65.9042 45.5828 64.8037 45.5828C64.8037 41.373 64.8037 37.1633 64.8037 32.826Z" fill="white"/>
<path d="M32.436 32.826C36.52 32.826 40.6041 32.826 44.8119 32.826C44.8119 33.58 44.8119 34.334 44.8119 35.1108C40.7278 35.1108 36.6438 35.1108 32.436 35.1108C32.436 34.3569 32.436 33.6029 32.436 32.826Z" fill="white"/>
<path d="M36.0535 43.2977C37.6872 43.2977 39.3208 43.2977 41.0039 43.2977C41.0039 44.0517 41.0039 44.8057 41.0039 45.5825C39.3703 45.5825 37.7367 45.5825 36.0535 45.5825C36.0535 44.8285 36.0535 44.0746 36.0535 43.2977Z" fill="white"/>
<path d="M122.114 43.1074C123.119 43.1074 124.124 43.1074 125.16 43.1074C125.16 43.9242 125.16 44.741 125.16 45.5826C124.155 45.5826 123.149 45.5826 122.114 45.5826C122.114 44.7658 122.114 43.949 122.114 43.1074Z" fill="white"/>
</svg>
