<svg width="96" height="97" viewBox="0 0 96 97" fill="none" xmlns="http://www.w3.org/2000/svg">
<path d="M14.688 44.266C14.5838 44.5254 14.5307 44.8024 14.5315 45.082V51.9253C14.5315 53.0985 15.4483 54.0431 16.5864 54.0431H23.221C24.359 54.0431 25.2758 53.0985 25.2758 51.9253H27.8045C27.8045 54.5433 25.7602 56.65 23.221 56.65H16.5835C14.0443 56.65 12 54.5433 12 51.9253V45.082C11.9999 44.8086 12.0227 44.5356 12.0682 44.266H14.688ZM23.2234 40.3559C25.7626 40.3559 27.8069 42.4631 27.8069 45.081H25.2758C25.2758 43.9074 24.359 42.9628 23.221 42.9628H12.4829C13.2331 41.4148 14.784 40.3559 16.5835 40.3559H23.2234Z" fill="white"/>
<path d="M52.4856 44.266C52.3815 44.5254 52.3282 44.8024 52.3286 45.082C52.3286 46.2556 53.2454 47.2002 54.3835 47.2002H61.0214C63.5602 47.2002 65.6045 49.3074 65.6045 51.9249C65.6045 54.5423 63.5602 56.65 61.0214 56.65H50.496V54.0431H61.0214C62.159 54.0431 63.0758 53.0985 63.0758 51.9249C63.0758 50.7513 62.159 49.8071 61.0214 49.8071H54.384C51.8448 49.8071 49.8005 47.6999 49.8005 45.082C49.8002 44.8086 49.8229 44.5356 49.8682 44.266H52.4856ZM64.9085 40.3559V42.9628H50.2824C51.0331 41.4148 52.5864 40.3559 54.3835 40.3559H64.9085Z" fill="white"/>
<path d="M81.4714 40.3569C82.872 40.3569 84 41.5199 84 42.9638V56.65H81.4714V51.1103H70.7242V48.5034H81.4714V42.9638H68.1955C68.1955 41.5199 69.3235 40.3569 70.7242 40.3569H81.4714ZM70.7242 44.266V56.65H68.1955V44.266H70.7242Z" fill="white"/>
<path d="M46.1208 40.8854L42.804 54.2423H41.8675L40.8413 50.1071C40.8413 50.1071 40.5264 48.8371 39.347 48.8371H38.0914C36.9125 48.8371 36.5971 50.1071 36.5971 50.1071L35.5714 54.2423H34.6349L31.3181 40.8854H28.8763L32.5085 55.5143C32.5085 55.5143 32.8258 56.7868 34.0027 56.7868H35.8344C35.9016 56.1704 36.1718 55.5938 36.6024 55.1476C36.6024 55.1476 38.448 53.1033 38.7192 51.034C38.9894 53.1052 40.837 55.1495 40.837 55.1495C41.2676 55.5957 41.5377 56.1723 41.605 56.7887H43.4366C44.6155 56.7887 44.9309 55.5163 44.9309 55.5163L48.563 40.8873L46.1208 40.8854Z" fill="white"/>
<path d="M36.5904 59.1565C36.7229 59.3177 36.8698 59.4667 37.0291 59.6015C37.1866 59.7369 37.3563 59.8576 37.536 59.9619C37.8901 60.1738 38.2955 60.2846 38.7082 60.2821C39.1181 60.2783 39.5184 60.1381 39.8741 59.9322C40.2312 59.7173 40.5587 59.4565 40.848 59.1565C40.7794 59.2352 40.7098 59.3139 40.6392 59.3917L40.415 59.613C40.3344 59.6807 40.2562 59.7517 40.1722 59.8155C40.0882 59.8794 40.0037 59.9432 39.9115 59.996C39.8664 60.0234 39.8218 60.0517 39.7757 60.0786L39.6317 60.1496C39.585 60.1738 39.5369 60.1953 39.4877 60.2139L39.4133 60.2432L39.3763 60.2581L39.3379 60.2701L39.1843 60.3152C39.1325 60.3272 39.0797 60.3368 39.0274 60.3474C38.9748 60.3573 38.9218 60.3643 38.8685 60.3685C38.8416 60.3685 38.8152 60.3747 38.7883 60.3762H38.7082C38.4938 60.3791 38.2804 60.3493 38.075 60.2879C37.8711 60.2257 37.6763 60.137 37.4957 60.0239C37.1376 59.7999 36.8295 59.5046 36.5904 59.1565Z" fill="white"/>
<path d="M36.8458 56.7867C36.8146 57.0151 36.8074 57.2461 36.8242 57.476C36.839 57.7031 36.886 57.927 36.9638 58.1408C37.0412 58.3538 37.1572 58.5507 37.3061 58.7216C37.4591 58.8924 37.6371 59.039 37.8341 59.1565C37.6144 59.0706 37.4151 58.9398 37.249 58.7725C37.1656 58.6877 37.0915 58.5942 37.0282 58.4936C36.9656 58.3925 36.9132 58.2854 36.8717 58.1739C36.7911 57.951 36.7492 57.7159 36.7478 57.4789C36.7431 57.2444 36.7762 57.0107 36.8458 56.7867Z" fill="white"/>
</svg>
