<svg width="254" height="81" viewBox="0 0 254 81" fill="none" xmlns="http://www.w3.org/2000/svg">
<path d="M185.096 33.0584C186.966 34.3595 187.867 36.7751 188.73 38.7976C188.845 39.061 188.96 39.3243 189.075 39.5874C189.285 40.0667 189.492 40.5466 189.699 41.0273C189.907 41.4994 190.123 41.9609 190.359 42.419C190.432 42.2544 190.505 42.0899 190.58 41.9203C190.855 41.2985 191.13 40.6772 191.407 40.056C191.525 39.7892 191.644 39.5223 191.761 39.2552C194.171 33.7966 194.171 33.7966 196.174 32.7953C196.595 32.7603 197.017 32.7417 197.439 32.7326C197.666 32.7251 197.893 32.7177 198.126 32.7099C198.957 32.8184 199.223 32.9715 199.783 33.5973C200.65 35.1544 200.692 36.6382 200.663 38.3856C200.662 38.6454 200.661 38.9051 200.659 39.1727C200.656 39.8563 200.649 40.5398 200.64 41.2234C200.631 41.9237 200.628 42.624 200.624 43.3244C200.615 44.6934 200.601 46.0624 200.585 47.4314C199.46 47.4314 198.335 47.4314 197.176 47.4314C197.176 43.9909 197.176 40.5504 197.176 37.0057C196.626 37.5559 196.416 37.865 196.104 38.5493C196.017 38.74 195.929 38.9308 195.839 39.1273C195.747 39.3327 195.655 39.5382 195.56 39.7499C195.464 39.961 195.368 40.172 195.269 40.3895C194.471 42.1601 193.717 43.9482 192.983 45.7461C192.904 45.9381 192.826 46.1301 192.745 46.3279C192.676 46.4978 192.607 46.6677 192.536 46.8428C192.364 47.2309 192.364 47.2309 192.164 47.4314C191.895 47.4487 191.625 47.4528 191.355 47.451C191.193 47.4503 191.03 47.4497 190.863 47.449C190.693 47.4473 190.522 47.4456 190.347 47.4439C190.176 47.443 190.004 47.4421 189.828 47.4412C189.404 47.4388 188.979 47.4352 188.555 47.4314C187.455 45.1506 186.452 42.8282 185.454 40.5017C185.398 40.3731 185.343 40.2445 185.286 40.1119C185.134 39.7581 184.982 39.4041 184.83 39.0501C184.396 37.8467 184.396 37.8467 183.543 37.0057C183.543 40.4462 183.543 43.8866 183.543 47.4314C182.418 47.4314 181.293 47.4314 180.134 47.4314C180.116 45.8941 180.101 44.3568 180.093 42.8195C180.088 42.1054 180.083 41.3915 180.074 40.6775C180.063 39.8548 180.059 39.0322 180.056 38.2094C180.052 37.9556 180.048 37.7018 180.043 37.4403C180.043 35.7258 180.27 34.4504 181.337 33.0835C182.547 32.5039 183.854 32.6235 185.096 33.0584Z" fill="white"/>
<path d="M162.641 33.0584C164.511 34.3595 165.411 36.7751 166.275 38.7976C166.39 39.061 166.504 39.3243 166.62 39.5874C166.829 40.0667 167.037 40.5466 167.244 41.0273C167.451 41.4994 167.667 41.9609 167.904 42.419C167.977 42.2544 168.049 42.0899 168.124 41.9203C168.399 41.2985 168.675 40.6772 168.952 40.056C169.07 39.7892 169.188 39.5223 169.306 39.2552C171.716 33.7966 171.716 33.7966 173.718 32.7953C174.139 32.7603 174.562 32.7417 174.984 32.7326C175.211 32.7251 175.437 32.7177 175.671 32.7099C176.502 32.8184 176.767 32.9715 177.327 33.5973C178.195 35.1544 178.237 36.6382 178.208 38.3856C178.206 38.6454 178.205 38.9051 178.204 39.1727C178.201 39.8563 178.193 40.5398 178.184 41.2234C178.176 41.9237 178.172 42.624 178.168 43.3244C178.16 44.6934 178.146 46.0624 178.129 47.4314C177.004 47.4314 175.88 47.4314 174.721 47.4314C174.721 43.9909 174.721 40.5504 174.721 37.0057C174.171 37.5559 173.961 37.865 173.649 38.5493C173.561 38.74 173.474 38.9308 173.384 39.1273C173.292 39.3327 173.199 39.5382 173.104 39.7499C173.008 39.961 172.913 40.172 172.814 40.3895C172.016 42.1601 171.262 43.9482 170.528 45.7461C170.449 45.9381 170.37 46.1301 170.29 46.3279C170.221 46.4978 170.152 46.6677 170.081 46.8428C169.909 47.2309 169.909 47.2309 169.708 47.4314C169.439 47.4487 169.169 47.4528 168.899 47.451C168.737 47.4503 168.575 47.4497 168.408 47.449C168.238 47.4473 168.067 47.4456 167.891 47.4439C167.72 47.443 167.549 47.4421 167.373 47.4412C166.948 47.4388 166.524 47.4352 166.1 47.4314C164.999 45.1506 163.997 42.8282 162.998 40.5017C162.943 40.3731 162.888 40.2445 162.831 40.1119C162.678 39.7581 162.527 39.4041 162.375 39.0501C161.941 37.8467 161.941 37.8467 161.087 37.0057C161.087 40.4462 161.087 43.8866 161.087 47.4314C159.962 47.4314 158.838 47.4314 157.679 47.4314C157.661 45.8941 157.646 44.3568 157.637 42.8195C157.633 42.1054 157.627 41.3915 157.618 40.6775C157.608 39.8548 157.604 39.0322 157.6 38.2094C157.596 37.9556 157.592 37.7018 157.588 37.4403C157.587 35.7258 157.815 34.4504 158.882 33.0835C160.091 32.5039 161.398 32.6235 162.641 33.0584Z" fill="white"/>
<path d="M44.6627 33.9481C46.094 35.1189 47.2425 36.7436 47.4526 38.6151C47.5902 40.5883 47.6099 42.7542 46.3214 44.3808C46.2289 44.4819 46.1364 44.5829 46.0411 44.687C45.5342 45.1911 45.5342 45.1911 45.615 45.8524C45.7824 46.4139 45.7824 46.4139 46.016 46.8549C46.204 47.2308 46.204 47.2308 46.204 48.0328C45.013 48.0328 43.8221 48.0328 42.5951 48.0328C42.5289 47.7681 42.4627 47.5035 42.3946 47.2308C42.1961 47.297 41.9976 47.3631 41.7931 47.4313C39.1613 47.5679 37.0926 47.5699 34.9904 45.8156C33.4166 44.3398 32.5711 42.6011 32.4755 40.4297C32.447 38.2435 32.9619 36.4896 34.3787 34.801C37.1274 32.0197 41.4695 31.7471 44.6627 33.9481ZM36.3797 38.0081C35.831 38.9309 35.8544 39.9724 35.9788 41.0155C36.3571 42.3516 37.2728 43.2352 38.3847 44.0229C38.9625 44.2155 39.3267 44.2446 39.926 44.2359C40.088 44.2341 40.2501 44.2323 40.417 44.2304C40.5403 44.2281 40.6636 44.2258 40.7906 44.2234C40.377 43.4179 40.0086 43.0099 39.1867 42.6194C38.9882 42.6194 38.7897 42.6194 38.5852 42.6194C38.5852 41.5608 38.5852 40.5022 38.5852 39.4115C40.3553 39.658 41.8739 39.9829 43.0838 41.3789C43.2388 41.596 43.2388 41.596 43.397 41.8175C43.5294 41.8175 43.6617 41.8175 43.798 41.8175C44.2115 40.3926 44.3007 39.3448 43.5975 38.0081C42.9014 36.9175 42.029 36.1975 40.7906 35.8026C38.8736 35.4409 37.4329 36.4908 36.3797 38.0081Z" fill="white"/>
<path d="M88.1112 32.9135C91.2229 34.4378 92.5442 39.6212 93.7211 42.6195C93.7873 42.818 93.8535 43.0165 93.9216 43.221C94.0539 43.221 94.1863 43.221 94.3226 43.221C94.3226 39.7805 94.3226 36.34 94.3226 32.7953C95.4474 32.7953 96.5722 32.7953 97.731 32.7953C97.7446 34.3134 97.7557 35.8314 97.7622 37.3496C97.7653 38.0546 97.7695 38.7596 97.7764 39.4646C97.7842 40.2763 97.7871 41.088 97.7897 41.8998C97.7944 42.277 97.7944 42.277 97.7992 42.6619C97.7995 44.4415 97.616 45.7041 96.3275 47.0304C95.5102 47.5071 94.646 47.5647 93.7211 47.4314C92.211 46.9837 91.4154 45.9251 90.6714 44.5896C90.4459 44.1373 90.2329 43.6814 90.0245 43.221C89.9105 42.9748 89.9105 42.9748 89.7942 42.7236C88.9251 40.8365 88.0662 38.9392 87.3053 37.0057C87.173 37.0057 87.0407 37.0057 86.9043 37.0057C86.9043 40.4461 86.9043 43.8866 86.9043 47.4314C85.7796 47.4314 84.6548 47.4314 83.4959 47.4314C83.4777 45.9237 83.463 44.416 83.4544 42.9082C83.4502 42.2079 83.4446 41.5077 83.4354 40.8074C83.4249 40.0001 83.4211 39.193 83.4176 38.3856C83.4135 38.1372 83.4093 37.8888 83.4051 37.6329C83.4046 35.9146 83.5663 34.3467 84.8117 33.071C85.897 32.6368 86.9813 32.5835 88.1112 32.9135Z" fill="white"/>
<path d="M133.11 33.6991C134.222 34.493 134.957 35.4205 135.624 36.6047C135.701 36.7342 135.778 36.8637 135.857 36.9971C136.06 37.4902 136.055 37.881 136.025 38.4092C135.44 38.4417 134.857 38.4655 134.271 38.4843C134.106 38.4944 133.94 38.5045 133.77 38.5149C133.291 38.5265 132.882 38.5216 132.417 38.4092C131.944 37.8382 131.944 37.8382 131.615 37.2062C131.266 36.8749 131.266 36.8749 130.9 36.6423C130.784 36.5624 130.668 36.4826 130.549 36.4003C129.741 35.93 128.913 35.8912 128.006 36.0032C126.668 36.3957 125.897 37.2318 125.199 38.4092C124.846 39.4659 124.749 40.6732 125.222 41.7032C125.4 41.9772 125.586 42.2461 125.781 42.5075C126.001 42.82 126.001 42.82 126.001 43.221C127.369 43.9306 128.463 44.2004 130.011 44.023C130.962 43.7211 131.709 43.3071 132.216 42.419C131.892 42.0947 131.523 42.1739 131.075 42.1551C130.886 42.1467 130.696 42.1383 130.501 42.1296C130.302 42.1218 130.103 42.1139 129.898 42.1058C129.598 42.0928 129.598 42.0928 129.292 42.0795C128.796 42.0582 128.301 42.038 127.805 42.018C127.805 40.9594 127.805 39.9008 127.805 38.8101C128.641 38.7938 129.476 38.7819 130.311 38.7725C130.547 38.7675 130.782 38.7625 131.024 38.7573C133.899 38.7331 133.899 38.7331 134.932 39.7029C135.745 40.6447 135.853 41.2583 135.844 42.4582C135.844 42.6 135.844 42.7419 135.844 42.888C135.842 43.3415 135.84 43.795 135.837 44.2485C135.836 44.5558 135.836 44.8631 135.835 45.1703C135.833 45.924 135.829 46.6777 135.825 47.4314C134.7 47.4314 133.575 47.4314 132.417 47.4314C132.417 47.2329 132.417 47.0344 132.417 46.8299C132.193 46.9273 131.969 47.0248 131.739 47.1252C130.759 47.4912 129.858 47.5278 128.82 47.5191C128.651 47.5231 128.482 47.5271 128.308 47.5312C126.377 47.5298 124.807 46.7139 123.394 45.4264C121.824 43.7763 121.259 41.8428 121.296 39.5956C121.405 37.25 122.31 35.7872 123.996 34.1988C126.497 31.9655 130.329 31.9952 133.11 33.6991Z" fill="white"/>
<path d="M214.617 33.6364C215.565 34.34 216.074 35.199 216.578 36.2476C216.647 36.388 216.716 36.5284 216.786 36.6731C217.543 38.2281 218.258 39.8022 218.967 41.379C219.096 41.6645 219.226 41.9499 219.355 42.2354C219.542 42.6504 219.73 43.0656 219.917 43.4811C220.19 44.0883 220.466 44.6936 220.748 45.2967C220.84 45.4933 220.932 45.6899 221.026 45.8924C221.106 46.0608 221.186 46.2293 221.268 46.4028C221.436 46.8299 221.436 46.8299 221.436 47.4314C220.179 47.4314 218.922 47.4314 217.627 47.4314C217.195 46.4909 216.764 45.5503 216.333 44.6095C216.187 44.291 216.041 43.9726 215.895 43.6542C215.682 43.1904 215.47 42.7264 215.257 42.2624C215.187 42.1089 215.117 41.9555 215.044 41.7974C214.695 41.0339 214.354 40.2682 214.028 39.4946C213.966 39.3487 213.904 39.2027 213.84 39.0523C213.725 38.7785 213.611 38.5039 213.499 38.2286C213.103 37.2936 212.694 36.6065 211.737 36.2037C210.991 36.2037 210.535 36.5078 210.008 37.0057C209.634 37.5756 209.365 38.1814 209.092 38.8046C209.012 38.9807 208.931 39.1568 208.848 39.3383C208.593 39.9001 208.342 40.464 208.091 41.0281C207.921 41.4019 207.752 41.7757 207.582 42.1492C207.185 43.023 206.792 43.8983 206.401 44.7743C206.003 45.6618 205.599 46.5464 205.196 47.4314C204.005 47.4314 202.814 47.4314 201.587 47.4314C201.76 46.3966 202.02 45.6025 202.445 44.666C202.512 44.5176 202.578 44.3692 202.646 44.2164C202.859 43.7377 203.075 43.26 203.291 42.7824C203.439 42.4545 203.586 42.1266 203.733 41.7986C204.089 41.0072 204.447 40.2166 204.807 39.4266C204.974 39.0578 205.141 38.6887 205.307 38.3196C205.548 37.7886 205.791 37.2589 206.036 36.73C206.101 36.5865 206.166 36.443 206.233 36.2952C206.983 34.7038 207.978 33.599 209.644 32.9457C211.469 32.5868 213.017 32.6746 214.617 33.6364Z" fill="white"/>
<path d="M150.058 33.6364C151.006 34.34 151.515 35.199 152.019 36.2476C152.088 36.388 152.156 36.5284 152.227 36.6731C152.984 38.2281 153.699 39.8022 154.408 41.379C154.537 41.6645 154.666 41.9499 154.795 42.2354C154.983 42.6504 155.171 43.0656 155.358 43.4811C155.631 44.0883 155.907 44.6936 156.189 45.2967C156.281 45.4933 156.373 45.6899 156.467 45.8924C156.547 46.0608 156.627 46.2293 156.709 46.4028C156.877 46.8299 156.877 46.8299 156.877 47.4314C155.62 47.4314 154.363 47.4314 153.067 47.4314C152.636 46.4909 152.205 45.5503 151.774 44.6095C151.628 44.291 151.482 43.9726 151.336 43.6542C151.123 43.1904 150.911 42.7264 150.698 42.2624C150.628 42.1089 150.557 41.9555 150.485 41.7974C150.136 41.0339 149.795 40.2682 149.469 39.4946C149.407 39.3487 149.345 39.2027 149.281 39.0523C149.165 38.7785 149.052 38.5039 148.939 38.2286C148.544 37.2936 148.134 36.6065 147.178 36.2037C146.432 36.2037 145.976 36.5078 145.449 37.0057C145.075 37.5756 144.806 38.1814 144.533 38.8046C144.453 38.9807 144.372 39.1568 144.289 39.3383C144.033 39.9001 143.782 40.464 143.531 41.0281C143.362 41.4019 143.193 41.7757 143.023 42.1492C142.626 43.023 142.233 43.8983 141.842 44.7743C141.444 45.6618 141.04 46.5464 140.637 47.4314C139.446 47.4314 138.255 47.4314 137.028 47.4314C137.2 46.3966 137.461 45.6025 137.886 44.666C137.952 44.5176 138.018 44.3692 138.087 44.2164C138.3 43.7377 138.516 43.26 138.732 42.7824C138.879 42.4545 139.027 42.1266 139.174 41.7986C139.53 41.0072 139.888 40.2166 140.247 39.4266C140.415 39.0578 140.582 38.6887 140.748 38.3196C140.989 37.7886 141.231 37.2589 141.476 36.73C141.541 36.5865 141.607 36.443 141.674 36.2952C142.424 34.7038 143.419 33.599 145.085 32.9457C146.91 32.5868 148.458 32.6746 150.058 33.6364Z" fill="white"/>
<path d="M75.6743 33.6364C76.6228 34.34 77.1313 35.199 77.6354 36.2476C77.7042 36.388 77.773 36.5284 77.8439 36.6731C78.6006 38.2281 79.3152 39.8022 80.0249 41.379C80.1539 41.6645 80.283 41.9499 80.4122 42.2354C80.6 42.6504 80.7876 43.0656 80.9744 43.4811C81.2475 44.0883 81.5233 44.6936 81.8055 45.2967C81.8974 45.4933 81.9892 45.6899 82.0839 45.8924C82.1637 46.0608 82.2435 46.2293 82.3257 46.4028C82.4935 46.8299 82.4935 46.8299 82.4935 47.4314C81.2364 47.4314 79.9793 47.4314 78.6841 47.4314C78.2527 46.4909 77.8214 45.5503 77.3906 44.6095C77.2447 44.291 77.0987 43.9726 76.9526 43.6542C76.7398 43.1904 76.5273 42.7264 76.3149 42.2624C76.2445 42.1089 76.1741 41.9555 76.1015 41.7974C75.7526 41.0339 75.4116 40.2682 75.0854 39.4946C75.0235 39.3487 74.9616 39.2027 74.8977 39.0523C74.7822 38.7785 74.6682 38.5039 74.5561 38.2286C74.1609 37.2936 73.7511 36.6065 72.7945 36.2037C72.0488 36.2037 71.5922 36.5078 71.0653 37.0057C70.6914 37.5756 70.423 38.1814 70.1497 38.8046C70.0693 38.9807 69.9888 39.1568 69.9059 39.3383C69.65 39.9001 69.399 40.464 69.1481 41.0281C68.9788 41.4019 68.8093 41.7757 68.6394 42.1492C68.2428 43.023 67.8498 43.8983 67.4582 44.7743C67.0607 45.6618 66.6567 46.5464 66.2534 47.4314C65.0625 47.4314 63.8716 47.4314 62.6445 47.4314C62.817 46.3966 63.0775 45.6025 63.5029 44.666C63.569 44.5176 63.6351 44.3692 63.7032 44.2164C63.9169 43.7377 64.1327 43.26 64.3487 42.7824C64.4961 42.4545 64.6434 42.1266 64.7907 41.7986C65.1467 41.0072 65.5049 40.2166 65.864 39.4266C66.0315 39.0578 66.1983 38.6887 66.3649 38.3196C66.6052 37.7886 66.8481 37.2589 67.093 36.73C67.1581 36.5865 67.2233 36.443 67.2904 36.2952C68.0408 34.7038 69.036 33.599 70.7019 32.9457C72.5262 32.5868 74.0744 32.6746 75.6743 33.6364Z" fill="white"/>
<path d="M48.8104 32.7952C49.9352 32.7952 51.0599 32.7952 52.2188 32.7952C52.2196 33.048 52.2204 33.3008 52.2213 33.5612C52.2257 34.5044 52.2366 35.4474 52.2494 36.3905C52.254 36.7977 52.2569 37.2049 52.258 37.6121C52.2599 38.1995 52.2681 38.7866 52.2775 39.3739C52.2767 39.5542 52.276 39.7345 52.2751 39.9203C52.3039 41.1811 52.6027 42.0488 53.4218 43.0204C54.4898 43.8535 55.2783 44.113 56.6297 44.0229C57.8261 43.6103 58.7511 43.1542 59.3581 42.0132C59.7305 41.0999 59.7326 40.2123 59.7397 39.2369C59.7433 39.052 59.7469 38.867 59.7506 38.6765C59.7614 38.0903 59.7682 37.5041 59.7749 36.9179C59.7816 36.5186 59.7885 36.1193 59.7957 35.72C59.8127 34.7451 59.8261 33.7702 59.8376 32.7952C60.9623 32.7952 62.0871 32.7952 63.246 32.7952C63.2609 34.0434 63.2718 35.2916 63.279 36.5398C63.282 36.9637 63.2861 37.3876 63.2914 37.8115C63.2987 38.4237 63.3021 39.0358 63.3047 39.6481C63.3078 39.8351 63.3109 40.0221 63.3141 40.2147C63.3147 42.3706 62.7649 44.0763 61.241 45.6269C59.7168 46.9668 57.7199 47.5756 55.6953 47.4877C53.5761 47.233 51.5328 46.5883 50.1387 44.8875C48.57 42.422 48.7135 39.9958 48.7603 37.1685C48.7643 36.7439 48.768 36.3193 48.7712 35.8947C48.78 34.8614 48.7938 33.8284 48.8104 32.7952Z" fill="white"/>
<path d="M99.1345 32.7952C103.832 32.7952 108.53 32.7952 113.37 32.7952C113.37 33.8538 113.37 34.9124 113.37 36.0031C111.583 36.0031 109.797 36.0031 107.956 36.0031C107.956 39.7744 107.956 43.5457 107.956 47.4313C106.831 47.4313 105.707 47.4313 104.548 47.4313C104.548 43.66 104.548 39.8887 104.548 36.0031C102.761 36.0031 100.975 36.0031 99.1345 36.0031C99.1345 34.9445 99.1345 33.8859 99.1345 32.7952Z" fill="white"/>
</svg>
