<svg width="97" height="97" viewBox="0 0 97 97" fill="none" xmlns="http://www.w3.org/2000/svg">
<path d="M16.5544 44.266C16.4507 44.5255 16.3977 44.8025 16.3984 45.082V51.9254C16.3984 53.0985 17.3148 54.0431 18.4528 54.0431H25.0888C26.2269 54.0431 27.1432 53.0985 27.1432 51.9254H29.6719C29.6719 54.5433 27.628 56.65 25.0888 56.65H18.4509C15.9117 56.65 13.8674 54.5433 13.8674 51.9254V45.082C13.8673 44.8086 13.8901 44.5356 13.9356 44.266H16.5544ZM25.0888 40.3569C27.628 40.3569 29.6719 42.4641 29.6719 45.082H27.1432C27.1432 43.9084 26.2269 42.9638 25.0888 42.9638H14.3503C15.101 41.4158 16.6514 40.3569 18.4509 40.3569H25.0888Z" fill="white"/>
<path d="M52.96 44.266C52.8559 44.5254 52.8026 44.8024 52.8031 45.082C52.8031 46.2556 53.7199 47.2002 54.8579 47.2002H61.4959C64.0346 47.2002 66.0789 49.3074 66.0789 51.9249C66.0789 54.5423 64.0346 56.65 61.4959 56.65H50.9704V54.0431H61.4959C62.6335 54.0431 63.5503 53.0985 63.5503 51.9249C63.5503 50.7513 62.6335 49.8071 61.4959 49.8071H54.8584C52.3192 49.8071 50.2749 47.6999 50.2749 45.082C50.2747 44.8086 50.2973 44.5356 50.3426 44.266H52.96ZM65.3829 40.3559V42.9628H50.7568C51.5075 41.4148 53.0608 40.3559 54.8579 40.3559H65.3829Z" fill="white"/>
<path d="M81.9458 40.3569C83.3464 40.3569 84.4744 41.5199 84.4744 42.9638V56.65H81.9458V51.1103H71.1986V48.5034H81.9458V42.9638H68.67C68.67 41.5199 69.798 40.3569 71.1986 40.3569H81.9458ZM71.1986 44.266V56.65H68.67V44.266H71.1986Z" fill="white"/>
<path d="M37.6989 51.8769V56.4316H34.6874V49.3564L37.6989 51.8769Z" fill="white"/>
<path d="M37.6995 43.2014H37.6994V43.9449H37.6995V43.2014Z" fill="white"/>
<path d="M43.1843 40.3569H33.6736V43.0449L34.6874 43.726V47.3553L35.8168 48.3009L37.6994 49.8762H43.1843C45.3357 49.8762 47.068 47.7537 47.068 45.1166C47.068 42.4794 45.3357 40.3569 43.1843 40.3569ZM43.1843 47.2502H37.6994V42.983H43.1843C44.1491 42.983 44.9258 43.9348 44.9258 45.117C44.9258 46.2993 44.1491 47.2502 43.1843 47.2502Z" fill="white"/>
</svg>
