<svg width="185" height="97" viewBox="0 0 185 97" fill="none" xmlns="http://www.w3.org/2000/svg">
<path d="M14.4642 43.2494C14.3505 43.5289 14.292 43.8279 14.2922 44.1296V51.5256C14.2915 51.8261 14.3502 52.1237 14.4649 52.4015C14.5796 52.6792 14.748 52.9315 14.9604 53.144C15.1729 53.3564 15.4252 53.5249 15.703 53.6395C15.9807 53.7542 16.2783 53.8129 16.5788 53.8122H23.9697C24.2702 53.8129 24.5678 53.7542 24.8455 53.6395C25.1233 53.5249 25.3756 53.3564 25.5881 53.144C25.8005 52.9315 25.9689 52.6792 26.0836 52.4015C26.1983 52.1237 26.257 51.8261 26.2563 51.5256H29.0892C29.0906 52.1963 28.9595 52.8607 28.7034 53.4806C28.4474 54.1005 28.0714 54.6637 27.5972 55.1379C27.1229 55.6122 26.5597 55.9881 25.9398 56.2442C25.3199 56.5002 24.6556 56.6313 23.9849 56.63H16.5788C15.9081 56.6313 15.2437 56.5002 14.6239 56.2442C14.004 55.9881 13.4407 55.6122 12.9665 55.1379C12.4922 54.6637 12.1163 54.1005 11.8603 53.4806C11.6042 52.8607 11.4731 52.1963 11.4744 51.5256V44.1043C11.4741 43.8093 11.4995 43.5148 11.5503 43.2241L14.4642 43.2494ZM23.9697 39.0253C24.6396 39.022 25.3035 39.1508 25.9235 39.4043C26.5435 39.6579 27.1074 40.0313 27.5829 40.503C28.0584 40.9748 28.4362 41.5357 28.6947 42.1537C28.9532 42.7716 29.0873 43.4345 29.0892 44.1043H26.2563C26.257 43.8039 26.1983 43.5062 26.0836 43.2285C25.9689 42.9508 25.8005 42.6985 25.5881 42.486C25.3756 42.2735 25.1233 42.1051 24.8455 41.9905C24.5678 41.8758 24.2702 41.8171 23.9697 41.8178H12.0107C12.4337 40.9721 13.0835 40.2608 13.8876 39.7632C14.6916 39.2656 15.6181 39.0014 16.5636 39L23.9697 39.0253Z" fill="white"/>
<path d="M34.1481 43.2496C34.0343 43.5291 33.9759 43.8281 33.9761 44.1299C33.9747 44.4308 34.0329 44.7289 34.1473 45.0072C34.2617 45.2856 34.43 45.5385 34.6425 45.7515C34.855 45.9645 35.1076 46.1333 35.3857 46.2483C35.6637 46.3633 35.9618 46.4222 36.2627 46.4215H43.6536C44.3239 46.4215 44.9877 46.5535 45.6069 46.8101C46.2262 47.0666 46.7889 47.4426 47.2629 47.9165C47.7369 48.3905 48.1129 48.9532 48.3694 49.5725C48.6259 50.1918 48.7579 50.8555 48.7579 51.5259C48.7579 52.1962 48.6259 52.8599 48.3694 53.4792C48.1129 54.0985 47.7369 54.6612 47.2629 55.1352C46.7889 55.6092 46.2262 55.9851 45.6069 56.2417C44.9877 56.4982 44.3239 56.6302 43.6536 56.6302H31.9171V53.8124H43.6384C44.1969 53.7479 44.7121 53.4802 45.0861 53.0605C45.4601 52.6407 45.6668 52.0982 45.6668 51.536C45.6668 50.9738 45.4601 50.4312 45.0861 50.0115C44.7121 49.5917 44.1969 49.3241 43.6384 49.2595H36.2475C35.5003 49.2594 34.7623 49.0954 34.0854 48.7791C33.4085 48.4628 32.8092 48.0019 32.3298 47.4288C31.8503 46.8558 31.5024 46.1846 31.3105 45.4625C31.1186 44.7405 31.0873 43.9851 31.219 43.2496H34.1481ZM47.9839 39.0255V41.8433H31.6945C32.1176 40.9977 32.7674 40.2863 33.5714 39.7887C34.3754 39.2912 35.3019 39.0269 36.2475 39.0255H47.9839Z" fill="white"/>
<path d="M73.9711 39C74.7184 39 75.4351 39.2969 75.9635 39.8253C76.492 40.3537 76.7888 41.0704 76.7888 41.8178V56.6047H73.9711V50.6201H62.0019V47.8023H73.9711V41.8178H59.1892C59.1885 41.448 59.2608 41.0817 59.4019 40.7398C59.5429 40.398 59.75 40.0873 60.0112 39.8256C60.2725 39.5639 60.5828 39.3563 60.9244 39.2146C61.266 39.0729 61.6321 39 62.0019 39H73.9711ZM62.0019 43.2494V56.6047H59.1892V43.2494H62.0019Z" fill="white"/>
<path d="M92.8608 39C94.2145 39 95.5128 39.5378 96.4701 40.495C97.4273 41.4523 97.9651 42.7506 97.9651 44.1043C97.9651 45.4581 97.4273 46.7564 96.4701 47.7137C95.5128 48.6709 94.2145 49.2087 92.8608 49.2087H92.8304L97.0748 56.6047H93.8422L89.6029 49.2087H83.1832V56.6047H80.3655V43.2494H83.1832V46.4162H92.8608C93.4493 46.3885 94.0045 46.1353 94.4112 45.709C94.8179 45.2828 95.0448 44.7163 95.0448 44.1271C95.0448 43.538 94.8179 42.9714 94.4112 42.5452C94.0045 42.1189 93.4493 41.8657 92.8608 41.838H80.3655V39H92.8608Z" fill="white"/>
<path d="M115.56 39C115.93 38.9993 116.297 39.0718 116.639 39.2131C116.981 39.3545 117.292 39.562 117.554 39.8238C117.815 40.0856 118.023 40.3965 118.164 40.7387C118.306 41.0808 118.378 41.4475 118.377 41.8178V56.6047H115.56V50.6201H103.596V47.8023H115.56V41.8178H100.778C100.777 41.4475 100.85 41.0808 100.991 40.7387C101.132 40.3965 101.34 40.0856 101.602 39.8238C101.863 39.562 102.174 39.3545 102.516 39.2131C102.859 39.0718 103.225 38.9993 103.596 39H115.56ZM103.596 43.2494V56.6047H100.778V43.2494H103.596Z" fill="white"/>
<path d="M134.454 39C135.474 39.0005 136.471 39.306 137.316 39.8772C138.161 40.4484 138.816 41.2593 139.197 42.2056C139.578 43.1519 139.667 44.1905 139.452 45.1878C139.238 46.1851 138.731 47.0956 137.996 47.8023C138.734 48.5081 139.243 49.4187 139.459 50.4169C139.674 51.4151 139.586 52.4549 139.205 53.4023C138.824 54.3496 138.167 55.1611 137.321 55.7319C136.474 56.3027 135.476 56.6067 134.454 56.6047H121.954V43.2494H124.772V46.4162H134.449C134.759 46.4308 135.068 46.3824 135.359 46.2739C135.649 46.1654 135.915 45.9992 136.139 45.7852C136.363 45.5712 136.542 45.3139 136.664 45.0289C136.786 44.7439 136.849 44.4371 136.849 44.1271C136.849 43.8171 136.786 43.5103 136.664 43.2253C136.542 42.9403 136.363 42.6831 136.139 42.4691C135.915 42.2551 135.649 42.0888 135.359 41.9803C135.068 41.8719 134.759 41.8234 134.449 41.838H121.954V39H134.454ZM124.772 53.7869H134.454C135.013 53.7223 135.528 53.4547 135.902 53.035C136.276 52.6152 136.483 52.0726 136.483 51.5104C136.483 50.9483 136.276 50.4057 135.902 49.9859C135.528 49.5662 135.013 49.2986 134.454 49.234H124.772V53.7869Z" fill="white"/>
<path d="M152.307 39V41.8178H148.508V53.7869H152.307V56.6047H141.901V53.7869H145.7V39H152.307ZM144.284 39V41.8178H141.901V39H144.284Z" fill="white"/>
<path d="M169.826 39C170.573 39 171.29 39.2969 171.818 39.8253C172.347 40.3537 172.643 41.0704 172.643 41.8178V56.6047H169.826V50.6201H157.856V47.8023H169.826V41.8178H155.054C155.054 41.0704 155.351 40.3537 155.879 39.8253C156.408 39.2969 157.124 39 157.872 39H169.826ZM157.856 43.2494V56.6047H155.054V43.2494H157.856Z" fill="white"/>
</svg>
