<svg width="97" height="97" viewBox="0 0 97 97" fill="none" xmlns="http://www.w3.org/2000/svg">
<path d="M15.1624 44.266C15.0583 44.5254 15.0051 44.8024 15.0059 45.082V51.9253C15.0059 53.0985 15.9227 54.0431 17.0608 54.0431H23.6954C24.8335 54.0431 25.7503 53.0985 25.7503 51.9253H28.2789C28.2789 54.5433 26.2346 56.65 23.6954 56.65H17.0579C14.5187 56.65 12.4744 54.5433 12.4744 51.9253V45.082C12.4743 44.8086 12.4971 44.5356 12.5426 44.266H15.1624ZM23.6978 40.3559C26.237 40.3559 28.2813 42.4631 28.2813 45.081H25.7503C25.7503 43.9074 24.8335 42.9628 23.6954 42.9628H12.9573C13.7075 41.4148 15.2584 40.3559 17.0579 40.3559H23.6978Z" fill="white"/>
<path d="M52.96 44.266C52.8559 44.5254 52.8026 44.8024 52.8031 45.082C52.8031 46.2556 53.7199 47.2002 54.8579 47.2002H61.4959C64.0346 47.2002 66.0789 49.3074 66.0789 51.9249C66.0789 54.5423 64.0346 56.65 61.4959 56.65H50.9704V54.0431H61.4959C62.6335 54.0431 63.5503 53.0985 63.5503 51.9249C63.5503 50.7513 62.6335 49.8071 61.4959 49.8071H54.8584C52.3192 49.8071 50.2749 47.6999 50.2749 45.082C50.2747 44.8086 50.2973 44.5356 50.3426 44.266H52.96ZM65.3829 40.3559V42.9628H50.7568C51.5075 41.4148 53.0608 40.3559 54.8579 40.3559H65.3829Z" fill="white"/>
<path d="M81.9458 40.3569C83.3464 40.3569 84.4744 41.5199 84.4744 42.9638V56.65H81.9458V51.1103H71.1986V48.5034H81.9458V42.9638H68.6699C68.6699 41.5199 69.7979 40.3569 71.1986 40.3569H81.9458ZM71.1986 44.266V56.65H68.6699V44.266H71.1986Z" fill="white"/>
<path d="M35.5653 40.4601C34.9484 40.4587 34.3372 40.5792 33.7669 40.8146C33.1967 41.0501 32.6785 41.3958 32.2422 41.8321C31.806 42.2683 31.4602 42.7864 31.2247 43.3566C30.9892 43.9269 30.8686 44.538 30.8699 45.155V56.65H33.4619V45.1555C33.4612 44.7528 33.5762 44.3584 33.7932 44.0192C34.0102 43.68 34.3201 43.4103 34.6859 43.2422L44.4866 53.0438V56.65H47.0786V51.9695L35.5653 40.4601Z" fill="white"/>
<path d="M44.4854 40.4601L44.4852 40.4602V40.4601H44.4854Z" fill="white"/>
<path d="M44.4854 40.4601L44.4852 40.4602V40.4601H44.4854Z" fill="white"/>
<path d="M47.0762 40.3569H43.6135V43.1193L44.4851 43.8196V47.5492L47.0771 50.1412V40.4601H46.9528L47.0762 40.3617V40.3569Z" fill="white"/>
<path d="M47.0762 40.3617V43.8196H47.0757V40.4601H46.9528L47.0762 40.3617Z" fill="white"/>
</svg>
