<svg width="97" height="97" viewBox="0 0 97 97" fill="none" xmlns="http://www.w3.org/2000/svg">
<path d="M14.7784 44.2727C14.6745 44.5322 14.6215 44.8092 14.6224 45.0887V51.9234C14.6224 53.0951 15.5378 54.0383 16.6754 54.0383H23.3085C24.4456 54.0383 25.3615 53.0951 25.3615 51.9234H27.8882C27.8882 54.5375 25.8458 56.6418 23.3085 56.6418H16.6764C14.1391 56.6418 12.0962 54.5375 12.0962 51.9234V45.0863C12.096 44.8129 12.1188 44.5399 12.1644 44.2703L14.7784 44.2727ZM23.3071 40.3674C25.8444 40.3674 27.8868 42.4722 27.8868 45.0863H25.3615C25.3615 43.9146 24.4456 42.971 23.3085 42.971H12.5786C13.3288 41.4249 14.8783 40.3674 16.6764 40.3674H23.3071Z" fill="white"/>
<path d="M52.96 44.266C52.8559 44.5254 52.8026 44.8024 52.8031 45.082C52.8031 46.2556 53.7199 47.2002 54.8579 47.2002H61.4959C64.0346 47.2002 66.0789 49.3074 66.0789 51.9249C66.0789 54.5423 64.0346 56.65 61.4959 56.65H50.9704V54.0431H61.4959C62.6335 54.0431 63.5503 53.0985 63.5503 51.9249C63.5503 50.7513 62.6335 49.8071 61.4959 49.8071H54.8584C52.3192 49.8071 50.2749 47.6999 50.2749 45.082C50.2747 44.8086 50.2973 44.5356 50.3426 44.266H52.96ZM65.3829 40.3559V42.9628H50.7568C51.5075 41.4148 53.0608 40.3559 54.8579 40.3559H65.3829Z" fill="white"/>
<path d="M81.9458 40.3569C83.3464 40.3569 84.4744 41.5199 84.4744 42.9638V56.65H81.9458V51.1103H71.1986V48.5034H81.9458V42.9638H68.6699C68.6699 41.5199 69.7979 40.3569 71.1986 40.3569H81.9458ZM71.1986 44.266V56.65H68.6699V44.266H71.1986Z" fill="white"/>
<path d="M33.1019 44.6846C32.9988 44.9344 32.946 45.202 32.9464 45.4723V52.0847C32.9458 52.3537 32.9984 52.62 33.101 52.8686C33.2037 53.1171 33.3545 53.343 33.5446 53.5331C33.7348 53.7232 33.9607 53.8739 34.2092 53.9765C34.4578 54.0791 34.7242 54.1316 34.9931 54.131H41.6046C41.8736 54.1316 42.14 54.0791 42.3885 53.9765C42.6371 53.8739 42.863 53.7232 43.0531 53.5331C43.2433 53.343 43.3941 53.1171 43.4967 52.8686C43.5994 52.62 43.6519 52.3537 43.6514 52.0847H46.1704C46.1717 52.6847 46.0545 53.279 45.8256 53.8335C45.5966 54.388 45.2603 54.8918 44.8361 55.316C44.4118 55.7402 43.908 56.0764 43.3534 56.3054C42.7989 56.5343 42.2046 56.6514 41.6046 56.65H34.9926C34.3927 56.6515 33.7983 56.5344 33.2437 56.3055C32.6891 56.0766 32.1852 55.7404 31.7609 55.3162C31.3366 54.892 31.0003 54.3881 30.7713 53.8336C30.5423 53.279 30.4251 52.6847 30.4264 52.0847V45.4723C30.4265 45.2083 30.4491 44.9447 30.4941 44.6846H33.1019ZM41.6046 40.906C42.2046 40.9047 42.799 41.0219 43.3536 41.2509C43.9081 41.4799 44.412 41.8162 44.8363 42.2405C45.2605 42.6648 45.5967 43.1687 45.8257 43.7233C46.0547 44.2779 46.1718 44.8723 46.1704 45.4723H43.6514C43.6519 45.2033 43.5994 44.9369 43.4967 44.6883C43.3941 44.4398 43.2433 44.2139 43.0532 44.0237C42.863 43.8336 42.6371 43.6828 42.3886 43.5802C42.14 43.4775 41.8736 43.425 41.6046 43.4255H30.9064C31.2855 42.6668 31.8688 42.029 32.5907 41.5839C33.3127 41.1388 34.1445 40.904 34.9926 40.906H41.6046Z" fill="white"/>
<path d="M45.8791 45.7828C45.6613 46.0815 45.537 46.4381 45.5218 46.8075C45.5067 47.1768 45.6014 47.5424 45.794 47.8579C45.9866 48.1734 46.2685 48.4247 46.6039 48.5801C46.9394 48.7354 47.3133 48.7878 47.6785 48.7306C48.0438 48.6735 48.3838 48.5093 48.6557 48.2588C48.9276 48.0084 49.1191 47.6829 49.2061 47.3236C49.293 46.9643 49.2715 46.5873 49.1441 46.2403C49.0168 45.8932 48.7894 45.5917 48.4908 45.3739C48.2925 45.2291 48.0676 45.1248 47.829 45.067C47.5904 45.0092 47.3427 44.999 47.1002 45.037C46.8576 45.075 46.6249 45.1604 46.4154 45.2884C46.2059 45.4164 46.0236 45.5844 45.8791 45.7828Z" fill="white"/>
<path d="M45.797 40.9497C45.6286 41.1803 45.5325 41.4557 45.5206 41.7409C45.5088 42.0262 45.5819 42.3086 45.7305 42.5523C45.8792 42.7961 46.0968 42.9902 46.3559 43.1103C46.6149 43.2303 46.9038 43.2709 47.1858 43.2267C47.4679 43.1826 47.7306 43.0558 47.9406 42.8624C48.1506 42.669 48.2985 42.4176 48.3657 42.1401C48.4328 41.8626 48.4161 41.5714 48.3177 41.3034C48.2194 41.0354 48.0437 40.8025 47.813 40.6343C47.5037 40.4091 47.1177 40.3158 46.7397 40.3749C46.3617 40.434 46.0227 40.6408 45.797 40.9497Z" fill="white"/>
<path d="M43.6792 44.0116C43.5755 44.1532 43.5162 44.3224 43.5087 44.4978C43.5012 44.6732 43.5458 44.8469 43.637 44.9968C43.7282 45.1468 43.8618 45.2664 44.021 45.3405C44.1802 45.4145 44.3577 45.4397 44.5312 45.4129C44.7046 45.386 44.8662 45.3083 44.9956 45.1896C45.1249 45.0709 45.2161 44.9165 45.2577 44.746C45.2992 44.5754 45.2893 44.3964 45.2291 44.2315C45.1689 44.0666 45.0612 43.9232 44.9195 43.8196C44.8255 43.7507 44.7188 43.701 44.6056 43.6734C44.4924 43.6457 44.3748 43.6407 44.2596 43.6585C44.1444 43.6763 44.0339 43.7167 43.9343 43.7773C43.8347 43.8379 43.748 43.9175 43.6792 44.0116Z" fill="white"/>
</svg>
