<?xml version="1.0" encoding="UTF-8"?>
<svg version="1.1" xmlns="http://www.w3.org/2000/svg" width="1280" height="720">
<path d="M0 0 C9.3246209 6.48937527 13.81782623 18.53721255 18.125 28.625 C18.69666637 29.93869583 19.26957808 31.25185045 19.84375 32.56445312 C20.88922784 34.9550689 21.92593414 37.34871327 22.95654297 39.74584961 C23.99210336 42.10097743 25.07035991 44.40233881 26.25 46.6875 C26.6123877 45.86660889 26.97477539 45.04571777 27.34814453 44.19995117 C28.71988047 41.0988154 30.09587312 37.99963771 31.47460938 34.90161133 C32.06579207 33.57096937 32.65536317 32.23961 33.24316406 30.9074707 C45.26143366 3.68178317 45.26143366 3.68178317 55.25 -1.3125 C57.34948601 -1.48721848 59.45624408 -1.57967852 61.5625 -1.625 C62.69300781 -1.66238281 63.82351563 -1.69976562 64.98828125 -1.73828125 C69.13197702 -1.19736767 70.45655459 -0.43348508 73.25 2.6875 C77.5788012 10.45415871 77.7858618 17.85447482 77.640625 26.5703125 C77.63496521 27.86572968 77.62930542 29.16114685 77.62347412 30.49581909 C77.60835107 33.90564019 77.56918942 37.31475733 77.5246582 40.7243042 C77.48341339 44.21714765 77.46540143 47.71010715 77.4453125 51.203125 C77.40267794 58.03156472 77.33244169 64.85942588 77.25 71.6875 C71.64 71.6875 66.03 71.6875 60.25 71.6875 C60.25 54.5275 60.25 37.3675 60.25 19.6875 C57.50583904 22.43166096 56.45802417 23.97342119 54.90234375 27.38671875 C54.46647949 28.33796631 54.03061523 29.28921387 53.58154297 30.26928711 C53.12150879 31.29417236 52.66147461 32.31905762 52.1875 33.375 C51.70941895 34.4276001 51.23133789 35.4802002 50.73876953 36.56469727 C46.75857764 45.39611615 42.99798849 54.31452582 39.33569336 63.28198242 C38.94389893 64.23951416 38.55210449 65.1970459 38.1484375 66.18359375 C37.80474121 67.03107178 37.46104492 67.8785498 37.10693359 68.75170898 C36.25 70.6875 36.25 70.6875 35.25 71.6875 C33.90732587 71.77381874 32.56025678 71.79456473 31.21484375 71.78515625 C30.40595703 71.78193359 29.59707031 71.77871094 28.76367188 71.77539062 C27.91353516 71.76701172 27.06339844 71.75863281 26.1875 71.75 C25.33349609 71.74548828 24.47949219 71.74097656 23.59960938 71.73632812 C21.48304337 71.72450373 19.36651315 71.70656769 17.25 71.6875 C11.76173586 60.31182523 6.76316124 48.72845524 1.7824707 37.12451172 C1.50641495 36.48299667 1.23035919 35.84148163 0.94593811 35.18052673 C0.18675824 33.41582948 -0.57026509 31.65020494 -1.32714844 29.88452148 C-3.4913766 23.88249446 -3.4913766 23.88249446 -7.75 19.6875 C-7.75 36.8475 -7.75 54.0075 -7.75 71.6875 C-13.36 71.6875 -18.97 71.6875 -24.75 71.6875 C-24.84071928 64.0199763 -24.91395571 56.35265537 -24.95724869 48.68472385 C-24.97803754 45.12335171 -25.00619285 41.56236886 -25.05175781 38.0012207 C-25.10392533 33.89791331 -25.12301694 29.79500861 -25.140625 25.69140625 C-25.16127014 24.42543106 -25.18191528 23.15945587 -25.20318604 21.8551178 C-25.20533793 13.30401371 -24.07114877 6.94272186 -18.75 0.125 C-12.71660362 -2.76600243 -6.19796884 -2.16928909 0 0 Z " fill="#000000" transform="translate(931.75,327.3125)"/>
<path d="M0 0 C9.3246209 6.48937527 13.81782623 18.53721255 18.125 28.625 C18.69666637 29.93869583 19.26957808 31.25185045 19.84375 32.56445312 C20.88922784 34.9550689 21.92593414 37.34871327 22.95654297 39.74584961 C23.99210336 42.10097743 25.07035991 44.40233881 26.25 46.6875 C26.6123877 45.86660889 26.97477539 45.04571777 27.34814453 44.19995117 C28.71988047 41.0988154 30.09587312 37.99963771 31.47460938 34.90161133 C32.06579207 33.57096937 32.65536317 32.23961 33.24316406 30.9074707 C45.26143366 3.68178317 45.26143366 3.68178317 55.25 -1.3125 C57.34948601 -1.48721848 59.45624408 -1.57967852 61.5625 -1.625 C62.69300781 -1.66238281 63.82351563 -1.69976562 64.98828125 -1.73828125 C69.13197702 -1.19736767 70.45655459 -0.43348508 73.25 2.6875 C77.5788012 10.45415871 77.7858618 17.85447482 77.640625 26.5703125 C77.63496521 27.86572968 77.62930542 29.16114685 77.62347412 30.49581909 C77.60835107 33.90564019 77.56918942 37.31475733 77.5246582 40.7243042 C77.48341339 44.21714765 77.46540143 47.71010715 77.4453125 51.203125 C77.40267794 58.03156472 77.33244169 64.85942588 77.25 71.6875 C71.64 71.6875 66.03 71.6875 60.25 71.6875 C60.25 54.5275 60.25 37.3675 60.25 19.6875 C57.50583904 22.43166096 56.45802417 23.97342119 54.90234375 27.38671875 C54.46647949 28.33796631 54.03061523 29.28921387 53.58154297 30.26928711 C53.12150879 31.29417236 52.66147461 32.31905762 52.1875 33.375 C51.70941895 34.4276001 51.23133789 35.4802002 50.73876953 36.56469727 C46.75857764 45.39611615 42.99798849 54.31452582 39.33569336 63.28198242 C38.94389893 64.23951416 38.55210449 65.1970459 38.1484375 66.18359375 C37.80474121 67.03107178 37.46104492 67.8785498 37.10693359 68.75170898 C36.25 70.6875 36.25 70.6875 35.25 71.6875 C33.90732587 71.77381874 32.56025678 71.79456473 31.21484375 71.78515625 C30.40595703 71.78193359 29.59707031 71.77871094 28.76367188 71.77539062 C27.91353516 71.76701172 27.06339844 71.75863281 26.1875 71.75 C25.33349609 71.74548828 24.47949219 71.74097656 23.59960938 71.73632812 C21.48304337 71.72450373 19.36651315 71.70656769 17.25 71.6875 C11.76173586 60.31182523 6.76316124 48.72845524 1.7824707 37.12451172 C1.50641495 36.48299667 1.23035919 35.84148163 0.94593811 35.18052673 C0.18675824 33.41582948 -0.57026509 31.65020494 -1.32714844 29.88452148 C-3.4913766 23.88249446 -3.4913766 23.88249446 -7.75 19.6875 C-7.75 36.8475 -7.75 54.0075 -7.75 71.6875 C-13.36 71.6875 -18.97 71.6875 -24.75 71.6875 C-24.84071928 64.0199763 -24.91395571 56.35265537 -24.95724869 48.68472385 C-24.97803754 45.12335171 -25.00619285 41.56236886 -25.05175781 38.0012207 C-25.10392533 33.89791331 -25.12301694 29.79500861 -25.140625 25.69140625 C-25.16127014 24.42543106 -25.18191528 23.15945587 -25.20318604 21.8551178 C-25.20533793 13.30401371 -24.07114877 6.94272186 -18.75 0.125 C-12.71660362 -2.76600243 -6.19796884 -2.16928909 0 0 Z " fill="#000000" transform="translate(819.75,327.3125)"/>
<path d="M0 0 C7.13915209 5.83979721 12.8676023 13.9430576 13.91503906 23.27783203 C14.60150058 33.11927253 14.7000646 43.92198337 8.2734375 52.03515625 C7.81195313 52.53917969 7.35046875 53.04320312 6.875 53.5625 C4.34709861 56.07659662 4.34709861 56.07659662 4.75 59.375 C5.58486387 62.17567065 5.58486387 62.17567065 6.75 64.375 C7.6875 66.25 7.6875 66.25 7.6875 70.25 C1.7475 70.25 -4.1925 70.25 -10.3125 70.25 C-10.6425 68.93 -10.9725 67.61 -11.3125 66.25 C-12.3025 66.58 -13.2925 66.91 -14.3125 67.25 C-27.43894285 67.9312126 -37.75722496 67.94105269 -48.2421875 59.19140625 C-56.09190379 51.83044588 -60.30869113 43.15832498 -60.78540039 32.32836914 C-60.92757911 21.42415827 -58.35945588 12.67643568 -51.29296875 4.25390625 C-37.58341617 -9.61788956 -15.92661917 -10.97766971 0 0 Z M-41.3125 20.25 C-44.0493383 24.85286442 -43.93298865 30.04744135 -43.3125 35.25 C-41.42551158 41.91417431 -36.85847362 46.32112752 -31.3125 50.25 C-28.43038698 51.21070434 -26.61399956 51.35581883 -23.625 51.3125 C-22.81675781 51.30347656 -22.00851563 51.29445313 -21.17578125 51.28515625 C-20.56089844 51.27355469 -19.94601563 51.26195312 -19.3125 51.25 C-21.37562934 47.23232708 -23.21277691 45.19736847 -27.3125 43.25 C-28.3025 43.25 -29.2925 43.25 -30.3125 43.25 C-30.3125 37.97 -30.3125 32.69 -30.3125 27.25 C-21.4838951 28.47929942 -13.90952987 30.09958092 -7.875 37.0625 C-7.1015625 38.1453125 -7.1015625 38.1453125 -6.3125 39.25 C-5.6525 39.25 -4.9925 39.25 -4.3125 39.25 C-2.2502224 32.14330238 -1.8053307 26.91733953 -5.3125 20.25 C-8.78480009 14.81042152 -13.13562293 11.21960797 -19.3125 9.25 C-28.8740335 7.44558609 -36.05991989 12.68213787 -41.3125 20.25 Z " fill="#000000" transform="translate(231.3125,331.75)"/>
<path d="M0 0 C15.52036038 7.60252416 22.11050841 33.45573347 27.98046875 48.41015625 C28.31046875 49.40015625 28.64046875 50.39015625 28.98046875 51.41015625 C29.64046875 51.41015625 30.30046875 51.41015625 30.98046875 51.41015625 C30.98046875 34.25015625 30.98046875 17.09015625 30.98046875 -0.58984375 C36.59046875 -0.58984375 42.20046875 -0.58984375 47.98046875 -0.58984375 C48.04841866 6.98186703 48.10338491 14.55346318 48.13590527 22.12540531 C48.15151853 25.64190623 48.1726764 29.15818655 48.20678711 32.67456055 C48.2458121 36.7231653 48.26021376 40.77154064 48.2734375 44.8203125 C48.29666328 46.70194847 48.29666328 46.70194847 48.32035828 48.62159729 C48.32206171 57.49760003 47.40669185 63.79492659 40.98046875 70.41015625 C36.90398231 72.78810668 32.59364045 73.07527158 27.98046875 72.41015625 C20.44863154 70.17745404 16.48014021 64.89746969 12.76953125 58.23632812 C11.6446954 55.98065196 10.58240148 53.70639447 9.54296875 51.41015625 C8.97437134 50.18208252 8.97437134 50.18208252 8.39428711 48.92919922 C4.05938802 39.51736671 -0.22426277 30.0541718 -4.01953125 20.41015625 C-4.67953125 20.41015625 -5.33953125 20.41015625 -6.01953125 20.41015625 C-6.01953125 37.57015625 -6.01953125 54.73015625 -6.01953125 72.41015625 C-11.62953125 72.41015625 -17.23953125 72.41015625 -23.01953125 72.41015625 C-23.1103256 64.89028845 -23.18352953 57.37062839 -23.22677994 49.8503437 C-23.24755052 46.35737678 -23.27567131 42.86480811 -23.32128906 39.37207031 C-23.37354071 35.34566686 -23.39256323 31.31967398 -23.41015625 27.29296875 C-23.43080139 26.05402863 -23.45144653 24.8150885 -23.47271729 23.53860474 C-23.47491075 14.96822104 -22.6683522 7.14797283 -16.45703125 0.78515625 C-11.04363225 -1.38020335 -5.63542923 -1.64593775 0 0 Z " fill="#000000" transform="translate(448.01953125,326.58984375)"/>
<path d="M0 0 C5.54385649 3.95989749 9.20922861 8.58582641 12.5390625 14.4921875 C12.92191406 15.13800781 13.30476562 15.78382813 13.69921875 16.44921875 C14.71027953 18.90868287 14.68540611 20.85800255 14.5390625 23.4921875 C11.62017102 23.65434814 8.71027025 23.77309952 5.7890625 23.8671875 C4.9640625 23.91746094 4.1390625 23.96773438 3.2890625 24.01953125 C0.90293204 24.07726021 -1.13882283 24.05326382 -3.4609375 23.4921875 C-5.81640625 20.64453125 -5.81640625 20.64453125 -7.4609375 17.4921875 C-9.19744983 15.83972203 -9.19744983 15.83972203 -11.0234375 14.6796875 C-11.60222656 14.28136719 -12.18101562 13.88304687 -12.77734375 13.47265625 C-16.80529443 11.12691235 -20.9342576 10.9334381 -25.4609375 11.4921875 C-32.13137729 13.44968105 -35.97610255 17.61981857 -39.4609375 23.4921875 C-41.21783561 28.76288182 -41.70589067 34.784632 -39.34375 39.921875 C-38.45773422 41.28844171 -37.53058093 42.6296917 -36.5546875 43.93359375 C-35.4609375 45.4921875 -35.4609375 45.4921875 -35.4609375 47.4921875 C-28.63563452 51.03123349 -23.17859349 52.37728931 -15.4609375 51.4921875 C-10.71795092 49.98623104 -6.99214046 47.92179269 -4.4609375 43.4921875 C-6.07873907 41.87438593 -7.91729268 42.26946603 -10.15234375 42.17578125 C-11.09658203 42.13388672 -12.04082031 42.09199219 -13.01367188 42.04882812 C-14.00689453 42.00951172 -15.00011719 41.97019531 -16.0234375 41.9296875 C-17.51907227 41.86491211 -17.51907227 41.86491211 -19.04492188 41.79882812 C-21.51674861 41.69238583 -23.9888241 41.59174991 -26.4609375 41.4921875 C-26.4609375 36.2121875 -26.4609375 30.9321875 -26.4609375 25.4921875 C-22.29387397 25.41089363 -18.12841327 25.35153814 -13.9609375 25.3046875 C-12.78789063 25.27955078 -11.61484375 25.25441406 -10.40625 25.22851562 C3.93102381 25.1076959 3.93102381 25.1076959 9.08764648 29.94482422 C13.14058003 34.64249407 13.68150959 37.70265665 13.63671875 43.6875 C13.6353038 44.39494354 13.63388885 45.10238708 13.63243103 45.83126831 C13.6268285 48.09328419 13.61427568 50.35520148 13.6015625 52.6171875 C13.59654782 54.14973815 13.59198486 55.68229036 13.58789062 57.21484375 C13.57770866 60.97402697 13.55813393 64.73299674 13.5390625 68.4921875 C7.9290625 68.4921875 2.3190625 68.4921875 -3.4609375 68.4921875 C-3.4609375 67.5021875 -3.4609375 66.5121875 -3.4609375 65.4921875 C-4.57597656 65.97816406 -5.69101562 66.46414063 -6.83984375 66.96484375 C-11.72966413 68.79059187 -16.2212858 68.97306044 -21.3984375 68.9296875 C-22.24083984 68.94966797 -23.08324219 68.96964844 -23.95117188 68.99023438 C-33.58594295 68.98281731 -41.41372774 64.91364079 -48.4609375 58.4921875 C-56.29349016 50.26167604 -59.10964462 40.61788322 -58.92700195 29.40966797 C-58.3850961 17.71063101 -53.87082925 10.41496456 -45.4609375 2.4921875 C-32.98674794 -8.64643573 -13.87096577 -8.49871871 0 0 Z " fill="#000000" transform="translate(672.4609375,330.5078125)"/>
<path d="M0 0 C4.73058605 3.50890072 7.26694575 7.7936608 9.78125 13.0234375 C10.12444778 13.72389694 10.46764557 14.42435638 10.82124329 15.14604187 C14.59528056 22.90156526 18.15952468 30.75271686 21.69921875 38.6171875 C22.34280653 40.04114783 22.98668635 41.4649762 23.63085938 42.88867188 C24.56755409 44.95888668 25.50331948 47.02948295 26.43527222 49.10183716 C27.79750043 52.13040215 29.17315017 55.14970759 30.58056641 58.15771484 C31.03866699 59.13820801 31.49676758 60.11870117 31.96875 61.12890625 C32.36682861 61.96897217 32.76490723 62.80903809 33.17504883 63.67456055 C34.01171875 65.8046875 34.01171875 65.8046875 34.01171875 68.8046875 C27.74171875 68.8046875 21.47171875 68.8046875 15.01171875 68.8046875 C12.85996111 64.11370086 10.7091006 59.42232114 8.56030273 54.72998047 C7.83260089 53.14154055 7.10442851 51.55331609 6.37573242 49.96533203 C5.31427986 47.65196614 4.2545785 45.33780531 3.1953125 43.0234375 C2.84407318 42.25813721 2.49283386 41.49283691 2.13095093 40.7043457 C0.39074551 36.89591647 -1.31021871 33.07712024 -2.93701172 29.21875 C-3.24597885 28.49079224 -3.55494598 27.76283447 -3.87327576 27.01281738 C-4.44976465 25.64685386 -5.01827598 24.27748348 -5.57704163 22.9041748 C-7.5484762 18.24079494 -9.5922803 14.81353 -14.36328125 12.8046875 C-18.08274026 12.8046875 -20.36012553 14.32146395 -22.98828125 16.8046875 C-24.85328263 19.6471698 -26.1919746 22.66862647 -27.5546875 25.77734375 C-27.9560643 26.65563339 -28.3574411 27.53392303 -28.77098083 28.43882751 C-30.04719248 31.24123361 -31.29923938 34.05369051 -32.55078125 36.8671875 C-33.39490303 38.73183647 -34.24059163 40.59577699 -35.08789062 42.45898438 C-37.06585759 46.81708117 -39.0261958 51.1827813 -40.97930908 55.55206299 C-42.96209014 59.97880671 -44.9767901 64.39092472 -46.98828125 68.8046875 C-52.92828125 68.8046875 -58.86828125 68.8046875 -64.98828125 68.8046875 C-64.1281244 63.64374642 -62.82895733 59.68302359 -60.70703125 55.01171875 C-60.37741898 54.27174149 -60.0478067 53.53176422 -59.70820618 52.7693634 C-58.6422139 50.3819476 -57.56587219 47.999388 -56.48828125 45.6171875 C-55.75323441 43.98172712 -55.01845302 42.34614741 -54.28393555 40.71044922 C-52.50805495 36.76283113 -50.72193449 32.81996146 -48.93060303 28.8793335 C-48.09517916 27.04003739 -47.26338675 25.19909281 -46.43212891 23.35791016 C-45.23350499 20.70950113 -44.02200333 18.0677351 -42.80078125 15.4296875 C-42.4759375 14.71401611 -42.15109375 13.99834473 -41.81640625 13.26098633 C-38.07327348 5.32346969 -33.10987409 -0.18684472 -24.80078125 -3.4453125 C-15.70183697 -5.23526875 -7.9799443 -4.7973732 0 0 Z " fill="#000000" transform="translate(1078.98828125,330.1953125)"/>
<path d="M0 0 C4.73058605 3.50890072 7.26694575 7.7936608 9.78125 13.0234375 C10.12444778 13.72389694 10.46764557 14.42435638 10.82124329 15.14604187 C14.59528056 22.90156526 18.15952468 30.75271686 21.69921875 38.6171875 C22.34280653 40.04114783 22.98668635 41.4649762 23.63085938 42.88867188 C24.56755409 44.95888668 25.50331948 47.02948295 26.43527222 49.10183716 C27.79750043 52.13040215 29.17315017 55.14970759 30.58056641 58.15771484 C31.03866699 59.13820801 31.49676758 60.11870117 31.96875 61.12890625 C32.36682861 61.96897217 32.76490723 62.80903809 33.17504883 63.67456055 C34.01171875 65.8046875 34.01171875 65.8046875 34.01171875 68.8046875 C27.74171875 68.8046875 21.47171875 68.8046875 15.01171875 68.8046875 C12.85996111 64.11370086 10.7091006 59.42232114 8.56030273 54.72998047 C7.83260089 53.14154055 7.10442851 51.55331609 6.37573242 49.96533203 C5.31427986 47.65196614 4.2545785 45.33780531 3.1953125 43.0234375 C2.84407318 42.25813721 2.49283386 41.49283691 2.13095093 40.7043457 C0.39074551 36.89591647 -1.31021871 33.07712024 -2.93701172 29.21875 C-3.24597885 28.49079224 -3.55494598 27.76283447 -3.87327576 27.01281738 C-4.44976465 25.64685386 -5.01827598 24.27748348 -5.57704163 22.9041748 C-7.5484762 18.24079494 -9.5922803 14.81353 -14.36328125 12.8046875 C-18.08274026 12.8046875 -20.36012553 14.32146395 -22.98828125 16.8046875 C-24.85328263 19.6471698 -26.1919746 22.66862647 -27.5546875 25.77734375 C-27.9560643 26.65563339 -28.3574411 27.53392303 -28.77098083 28.43882751 C-30.04719248 31.24123361 -31.29923938 34.05369051 -32.55078125 36.8671875 C-33.39490303 38.73183647 -34.24059163 40.59577699 -35.08789062 42.45898438 C-37.06585759 46.81708117 -39.0261958 51.1827813 -40.97930908 55.55206299 C-42.96209014 59.97880671 -44.9767901 64.39092472 -46.98828125 68.8046875 C-52.92828125 68.8046875 -58.86828125 68.8046875 -64.98828125 68.8046875 C-64.1281244 63.64374642 -62.82895733 59.68302359 -60.70703125 55.01171875 C-60.37741898 54.27174149 -60.0478067 53.53176422 -59.70820618 52.7693634 C-58.6422139 50.3819476 -57.56587219 47.999388 -56.48828125 45.6171875 C-55.75323441 43.98172712 -55.01845302 42.34614741 -54.28393555 40.71044922 C-52.50805495 36.76283113 -50.72193449 32.81996146 -48.93060303 28.8793335 C-48.09517916 27.04003739 -47.26338675 25.19909281 -46.43212891 23.35791016 C-45.23350499 20.70950113 -44.02200333 18.0677351 -42.80078125 15.4296875 C-42.4759375 14.71401611 -42.15109375 13.99834473 -41.81640625 13.26098633 C-38.07327348 5.32346969 -33.10987409 -0.18684472 -24.80078125 -3.4453125 C-15.70183697 -5.23526875 -7.9799443 -4.7973732 0 0 Z " fill="#000000" transform="translate(756.98828125,330.1953125)"/>
<path d="M0 0 C4.73058605 3.50890072 7.26694575 7.7936608 9.78125 13.0234375 C10.12444778 13.72389694 10.46764557 14.42435638 10.82124329 15.14604187 C14.59528056 22.90156526 18.15952468 30.75271686 21.69921875 38.6171875 C22.34280653 40.04114783 22.98668635 41.4649762 23.63085938 42.88867188 C24.56755409 44.95888668 25.50331948 47.02948295 26.43527222 49.10183716 C27.79750043 52.13040215 29.17315017 55.14970759 30.58056641 58.15771484 C31.03866699 59.13820801 31.49676758 60.11870117 31.96875 61.12890625 C32.36682861 61.96897217 32.76490723 62.80903809 33.17504883 63.67456055 C34.01171875 65.8046875 34.01171875 65.8046875 34.01171875 68.8046875 C27.74171875 68.8046875 21.47171875 68.8046875 15.01171875 68.8046875 C12.85996111 64.11370086 10.7091006 59.42232114 8.56030273 54.72998047 C7.83260089 53.14154055 7.10442851 51.55331609 6.37573242 49.96533203 C5.31427986 47.65196614 4.2545785 45.33780531 3.1953125 43.0234375 C2.84407318 42.25813721 2.49283386 41.49283691 2.13095093 40.7043457 C0.39074551 36.89591647 -1.31021871 33.07712024 -2.93701172 29.21875 C-3.24597885 28.49079224 -3.55494598 27.76283447 -3.87327576 27.01281738 C-4.44976465 25.64685386 -5.01827598 24.27748348 -5.57704163 22.9041748 C-7.5484762 18.24079494 -9.5922803 14.81353 -14.36328125 12.8046875 C-18.08274026 12.8046875 -20.36012553 14.32146395 -22.98828125 16.8046875 C-24.85328263 19.6471698 -26.1919746 22.66862647 -27.5546875 25.77734375 C-27.9560643 26.65563339 -28.3574411 27.53392303 -28.77098083 28.43882751 C-30.04719248 31.24123361 -31.29923938 34.05369051 -32.55078125 36.8671875 C-33.39490303 38.73183647 -34.24059163 40.59577699 -35.08789062 42.45898438 C-37.06585759 46.81708117 -39.0261958 51.1827813 -40.97930908 55.55206299 C-42.96209014 59.97880671 -44.9767901 64.39092472 -46.98828125 68.8046875 C-52.92828125 68.8046875 -58.86828125 68.8046875 -64.98828125 68.8046875 C-64.1281244 63.64374642 -62.82895733 59.68302359 -60.70703125 55.01171875 C-60.37741898 54.27174149 -60.0478067 53.53176422 -59.70820618 52.7693634 C-58.6422139 50.3819476 -57.56587219 47.999388 -56.48828125 45.6171875 C-55.75323441 43.98172712 -55.01845302 42.34614741 -54.28393555 40.71044922 C-52.50805495 36.76283113 -50.72193449 32.81996146 -48.93060303 28.8793335 C-48.09517916 27.04003739 -47.26338675 25.19909281 -46.43212891 23.35791016 C-45.23350499 20.70950113 -44.02200333 18.0677351 -42.80078125 15.4296875 C-42.4759375 14.71401611 -42.15109375 13.99834473 -41.81640625 13.26098633 C-38.07327348 5.32346969 -33.10987409 -0.18684472 -24.80078125 -3.4453125 C-15.70183697 -5.23526875 -7.9799443 -4.7973732 0 0 Z " fill="#000000" transform="translate(385.98828125,330.1953125)"/>
<path d="M0 0 C5.61 0 11.22 0 17 0 C17.00410889 1.26070313 17.00821777 2.52140625 17.01245117 3.8203125 C17.03432196 8.52465982 17.08869404 13.22818019 17.15258789 17.93212891 C17.17569871 19.9629724 17.19014728 21.99393456 17.19555664 24.02490234 C17.20489683 26.9548479 17.24599789 29.88294457 17.29296875 32.8125 C17.2890361 33.71178223 17.28510345 34.61106445 17.28105164 35.53759766 C17.42463623 41.82602135 18.91454171 46.15394263 23 51 C28.32685377 55.15494594 32.25996385 56.44933574 39 56 C44.96750083 53.94224109 49.58098262 51.66725304 52.60864258 45.97631836 C54.46593204 41.42118793 54.47649657 36.99375807 54.51171875 32.12890625 C54.52966995 31.206577 54.54762115 30.28424774 54.56611633 29.33396912 C54.61996736 26.41019152 54.65403385 23.4865748 54.6875 20.5625 C54.72069534 18.57094128 54.75518704 16.57940371 54.79101562 14.58789062 C54.87567926 9.72537697 54.94261026 4.86290893 55 0 C60.61 0 66.22 0 72 0 C72.07461488 6.22555982 72.1288209 12.45085456 72.16479492 18.67675781 C72.17980487 20.7910618 72.2002192 22.90533507 72.22631836 25.01953125 C72.26304633 28.07299421 72.27980474 31.12604257 72.29296875 34.1796875 C72.30845261 35.11239471 72.32393646 36.04510193 72.33988953 37.006073 C72.34259625 47.75898404 69.60042912 56.26623002 62 64 C54.3975345 70.68316545 44.43765212 73.71949123 34.33984375 73.28125 C23.76987379 72.01073608 13.57823686 68.79544897 6.625 60.3125 C-1.19894822 48.01515773 -0.48306535 35.914053 -0.25 21.8125 C-0.22990589 19.69467833 -0.21166027 17.57683827 -0.1953125 15.45898438 C-0.15154425 10.30553039 -0.08267648 5.15297064 0 0 Z " fill="#000000" transform="translate(252,326)"/>
<path d="M0 0 C23.43 0 46.86 0 71 0 C71 5.28 71 10.56 71 16 C62.09 16 53.18 16 44 16 C44 34.81 44 53.62 44 73 C38.39 73 32.78 73 27 73 C27 54.19 27 35.38 27 16 C18.09 16 9.18 16 0 16 C0 10.72 0 5.44 0 0 Z " fill="#000000" transform="translate(503,326)"/>
</svg>
