<?xml version="1.0" encoding="UTF-8"?>
<svg version="1.1" xmlns="http://www.w3.org/2000/svg" width="1280" height="720">
<path d="M0 0 C15.52036038 7.60252416 22.11050841 33.45573347 27.98046875 48.41015625 C28.31046875 49.40015625 28.64046875 50.39015625 28.98046875 51.41015625 C29.64046875 51.41015625 30.30046875 51.41015625 30.98046875 51.41015625 C30.98046875 34.25015625 30.98046875 17.09015625 30.98046875 -0.58984375 C36.59046875 -0.58984375 42.20046875 -0.58984375 47.98046875 -0.58984375 C48.04841866 6.98186703 48.10338491 14.55346318 48.13590527 22.12540531 C48.15151853 25.64190623 48.1726764 29.15818655 48.20678711 32.67456055 C48.2458121 36.7231653 48.26021376 40.77154064 48.2734375 44.8203125 C48.29666328 46.70194847 48.29666328 46.70194847 48.32035828 48.62159729 C48.32206171 57.49760003 47.40669185 63.79492659 40.98046875 70.41015625 C36.90398231 72.78810668 32.59364045 73.07527158 27.98046875 72.41015625 C20.44863154 70.17745404 16.48014021 64.89746969 12.76953125 58.23632812 C11.6446954 55.98065196 10.58240148 53.70639447 9.54296875 51.41015625 C8.97437134 50.18208252 8.97437134 50.18208252 8.39428711 48.92919922 C4.05938802 39.51736671 -0.22426277 30.0541718 -4.01953125 20.41015625 C-4.67953125 20.41015625 -5.33953125 20.41015625 -6.01953125 20.41015625 C-6.01953125 37.57015625 -6.01953125 54.73015625 -6.01953125 72.41015625 C-11.62953125 72.41015625 -17.23953125 72.41015625 -23.01953125 72.41015625 C-23.1103256 64.89028845 -23.18352953 57.37062839 -23.22677994 49.8503437 C-23.24755052 46.35737678 -23.27567131 42.86480811 -23.32128906 39.37207031 C-23.37354071 35.34566686 -23.39256323 31.31967398 -23.41015625 27.29296875 C-23.43080139 26.05402863 -23.45144653 24.8150885 -23.47271729 23.53860474 C-23.47491075 14.96822104 -22.6683522 7.14797283 -16.45703125 0.78515625 C-11.04363225 -1.38020335 -5.63542923 -1.64593775 0 0 Z " fill="#000000" transform="translate(815.01953125,321.58984375)"/>
<path d="M0 0 C0.98063919 0.00015106 1.96127838 0.00030212 2.97163391 0.00045776 C4.01764267 0.01078033 5.06365143 0.02110291 6.14135742 0.03173828 C7.76215462 0.03598312 7.76215462 0.03598312 9.41569519 0.04031372 C12.85951918 0.05148946 16.30308107 0.0765896 19.74682617 0.10205078 C22.08471304 0.11208394 24.42260398 0.1212092 26.76049805 0.12939453 C32.48520808 0.15142032 38.20972272 0.18593257 43.93432617 0.22705078 C43.93432617 5.50705078 43.93432617 10.78705078 43.93432617 16.22705078 C42.65267578 16.23639648 41.37102539 16.24574219 40.05053711 16.25537109 C35.29416175 16.29525139 30.53843455 16.36100493 25.7824707 16.43457031 C23.72428719 16.46279127 21.66599507 16.48400019 19.60766602 16.49804688 C16.64827832 16.51946068 13.69019798 16.56610299 10.73120117 16.61767578 C9.35131012 16.61951874 9.35131012 16.61951874 7.94354248 16.62139893 C2.78366246 16.71379594 2.78366246 16.71379594 -1.68969727 19.09716797 C-3.33873734 21.18260874 -3.33873734 21.18260874 -2.87817383 23.91455078 C-2.27640484 26.16056346 -2.27640484 26.16056346 -1.06567383 27.22705078 C1.11953235 27.3494193 3.3084173 27.40689645 5.49682617 27.43798828 C6.86532687 27.46609823 8.23381626 27.49476286 9.60229492 27.52392578 C11.75674621 27.56487937 13.91099585 27.60176216 16.06567383 27.62841797 C34.57220293 27.87717317 34.57220293 27.87717317 41.27416992 33.02392578 C46.36412149 39.24636047 48.43387764 44.81330007 48.17260742 52.89892578 C47.40334355 60.41501217 44.98692194 64.89524589 39.26245117 69.81689453 C32.92201617 73.6573258 26.37859395 73.49887674 19.18823242 73.42236328 C17.67156227 73.41811844 17.67156227 73.41811844 16.12425232 73.41378784 C12.91498665 73.40264968 9.70600659 73.37755675 6.49682617 73.35205078 C4.31258543 73.34201276 2.12834028 73.33288835 -0.0559082 73.32470703 C-5.39260572 73.30273116 -10.72909146 73.26824523 -16.06567383 73.22705078 C-16.06567383 67.94705078 -16.06567383 62.66705078 -16.06567383 57.22705078 C-14.84984619 57.21246826 -13.63401855 57.19788574 -12.38134766 57.18286133 C-7.86168305 57.1247998 -3.34251256 57.04756719 1.17675781 56.96459961 C3.13110319 56.93138724 5.08554364 56.90334383 7.04003906 56.88061523 C9.85286899 56.84700145 12.66483064 56.79468224 15.47729492 56.73876953 C16.78382271 56.72918465 16.78382271 56.72918465 18.116745 56.71940613 C22.81461976 56.6060685 26.17229188 56.37018957 29.93432617 53.22705078 C30.68432617 50.72705078 30.68432617 50.72705078 29.93432617 48.22705078 C27.50425769 45.70745346 26.09491769 45.24394163 22.57788086 44.87402344 C21.26722656 44.87966309 19.95657227 44.88530273 18.60620117 44.89111328 C17.15176968 44.87859399 15.69734258 44.86555656 14.24291992 44.85205078 C11.96753119 44.84813529 9.69258251 44.85199743 7.41723633 44.86669922 C-9.26864172 44.93203439 -9.26864172 44.93203439 -15.06567383 39.22705078 C-21.04979671 31.55509836 -20.87978911 23.5299187 -20.06567383 14.22705078 C-18.21510565 8.93642226 -14.7464408 5.26954931 -10.06567383 2.22705078 C-6.56705511 0.60103538 -3.84879427 -0.01989041 0 0 Z " fill="#000000" transform="translate(656.065673828125,320.77294921875)"/>
<path d="M0 0 C5.61 0 11.22 0 17 0 C17 9.24 17 18.48 17 28 C21.5375 27.87625 26.075 27.7525 30.75 27.625 C32.17538086 27.59100098 33.60076172 27.55700195 35.06933594 27.52197266 C36.19629883 27.4863623 37.32326172 27.45075195 38.484375 27.4140625 C40.21252441 27.36693115 40.21252441 27.36693115 41.97558594 27.31884766 C44.89133612 27.01145585 46.58006614 26.61027634 49 25 C52.44710624 19.93583018 52.53150831 15.04377024 52.6875 9.125 C52.72166016 8.24585938 52.75582031 7.36671875 52.79101562 6.4609375 C52.8729314 4.30772295 52.93815579 2.15388449 53 0 C58.61 0 64.22 0 70 0 C70.69576923 27.75346154 70.69576923 27.75346154 64 37 C64.61875 37.804375 65.2375 38.60875 65.875 39.4375 C70.52484442 46.48594373 70.272524 54.90896195 70.125 63.0625 C70.11597656 64.02349609 70.10695313 64.98449219 70.09765625 65.97460938 C70.07435369 68.31651655 70.03849381 70.65829326 70 73 C64.39 73 58.78 73 53 73 C52.94392578 71.04707031 52.94392578 71.04707031 52.88671875 69.0546875 C52.82103326 67.32809743 52.75458682 65.60153619 52.6875 63.875 C52.65366211 62.59109375 52.65366211 62.59109375 52.61914062 61.28125 C52.40553702 56.23243756 52.09240406 52.19546777 49 48 C42.86540709 44.09616815 36.15307903 44.45468891 29.0625 44.3125 C25.081875 44.209375 21.10125 44.10625 17 44 C17 53.57 17 63.14 17 73 C11.39 73 5.78 73 0 73 C0 48.91 0 24.82 0 0 Z " fill="#000000" transform="translate(526,321)"/>
<path d="M0 0 C7.02097763 5.67623393 11.05351734 11.5111705 13.75 20.1875 C13.75 20.8475 13.75 21.5075 13.75 22.1875 C-2.25760095 23.57277316 -2.25760095 23.57277316 -6.98046875 20.2890625 C-8.9375 17.875 -8.9375 17.875 -10.6640625 15.390625 C-13.12406107 11.97328708 -15.22466473 11.28531871 -19.25 10.1875 C-25.75857115 9.20507417 -30.99009504 11.46729649 -36.25 15.1875 C-40.57150391 20.24730185 -42.57534851 25.36635722 -42.46484375 32.0703125 C-41.84030954 38.22481322 -38.45981022 42.87978722 -34.25 47.1875 C-29.19524623 50.7140724 -24.2140548 50.99070862 -18.25 50.1875 C-14.33117954 49.08662994 -11.16073049 47.74705156 -9.0546875 44.140625 C-8.66539062 43.41359375 -8.27609375 42.6865625 -7.875 41.9375 C-6.5 39.828125 -6.5 39.828125 -4.25 38.1875 C1.66126086 37.1278263 7.79988066 37.73843439 13.75 38.1875 C13.22569451 42.19181113 12.458542 45.25228335 10.4375 48.75 C10.02886719 49.47316406 9.62023437 50.19632812 9.19921875 50.94140625 C6.14904546 55.66876378 3.16726163 58.8882263 -1.625 61.875 C-2.54023437 62.45636719 -3.45546875 63.03773438 -4.3984375 63.63671875 C-13.59399864 68.63759241 -25.30478805 68.68732491 -35.43359375 66.5 C-37.88565981 65.58190975 -40.01280342 64.54337672 -42.25 63.1875 C-42.95125 62.775 -43.6525 62.3625 -44.375 61.9375 C-52.50012461 56.52075026 -57.66725049 48.50726338 -59.81640625 39.04296875 C-61.51740657 27.84088553 -60.12133319 17.53762985 -53.68359375 8.0625 C-40.67372014 -8.9531385 -17.47427257 -12.22871233 0 0 Z " fill="#000000" transform="translate(931.25,326.8125)"/>
<path d="M0 0 C7.02097763 5.67623393 11.05351734 11.5111705 13.75 20.1875 C13.75 20.8475 13.75 21.5075 13.75 22.1875 C-2.25760095 23.57277316 -2.25760095 23.57277316 -6.98046875 20.2890625 C-8.9375 17.875 -8.9375 17.875 -10.6640625 15.390625 C-13.12406107 11.97328708 -15.22466473 11.28531871 -19.25 10.1875 C-25.75857115 9.20507417 -30.99009504 11.46729649 -36.25 15.1875 C-40.57150391 20.24730185 -42.57534851 25.36635722 -42.46484375 32.0703125 C-41.84030954 38.22481322 -38.45981022 42.87978722 -34.25 47.1875 C-29.19524623 50.7140724 -24.2140548 50.99070862 -18.25 50.1875 C-14.33117954 49.08662994 -11.16073049 47.74705156 -9.0546875 44.140625 C-8.66539062 43.41359375 -8.27609375 42.6865625 -7.875 41.9375 C-6.5 39.828125 -6.5 39.828125 -4.25 38.1875 C1.66126086 37.1278263 7.79988066 37.73843439 13.75 38.1875 C13.22569451 42.19181113 12.458542 45.25228335 10.4375 48.75 C10.02886719 49.47316406 9.62023437 50.19632812 9.19921875 50.94140625 C6.14904546 55.66876378 3.16726163 58.8882263 -1.625 61.875 C-2.54023438 62.45636719 -3.45546875 63.03773438 -4.3984375 63.63671875 C-13.59399864 68.63759241 -25.30478805 68.68732491 -35.43359375 66.5 C-37.88565981 65.58190975 -40.01280342 64.54337672 -42.25 63.1875 C-42.95125 62.775 -43.6525 62.3625 -44.375 61.9375 C-52.50012461 56.52075026 -57.66725049 48.50726338 -59.81640625 39.04296875 C-61.51740657 27.84088553 -60.12133319 17.53762985 -53.68359375 8.0625 C-40.67372014 -8.9531385 -17.47427257 -12.22871233 0 0 Z " fill="#000000" transform="translate(506.25,326.8125)"/>
<path d="M0 0 C5.94 0 11.88 0 18 0 C25.4833014 14.83054276 25.4833014 14.83054276 28.39453125 21.1875 C28.78777588 22.04110107 29.18102051 22.89470215 29.58618164 23.77416992 C30.35091985 25.44209172 31.10690666 27.11405912 31.85327148 28.7902832 C34.30336351 34.35664554 34.30336351 34.35664554 39 38 C42.54578685 38.16025399 42.54578685 38.16025399 46 37 C49.44430206 33.37494861 51.44442254 29.30133681 53.41796875 24.765625 C53.72068192 24.08699402 54.02339508 23.40836304 54.33528137 22.70916748 C55.29298143 20.55912179 56.24068323 18.40485761 57.1875 16.25 C58.14678969 14.08169313 59.10814852 11.91433382 60.07185364 9.74798584 C60.66913001 8.40380056 61.26352783 7.05833184 61.8547821 5.71148682 C63.88955956 1.11044044 63.88955956 1.11044044 65 0 C66.34267413 -0.08631874 67.68974322 -0.10706473 69.03515625 -0.09765625 C69.84404297 -0.09443359 70.65292969 -0.09121094 71.48632812 -0.08789062 C72.33646484 -0.07951172 73.18660156 -0.07113281 74.0625 -0.0625 C74.91650391 -0.05798828 75.77050781 -0.05347656 76.65039062 -0.04882812 C78.76695663 -0.03700373 80.88348685 -0.01906769 83 0 C82.42660905 4.86868687 80.89726203 8.88938786 78.796875 13.26953125 C78.47720764 13.94996994 78.15754028 14.63040863 77.82818604 15.33146667 C77.15247147 16.76600964 76.47318214 18.19887362 75.79052734 19.63012695 C74.75977634 21.79199538 73.74028675 23.95888272 72.72265625 26.12695312 C62.80444544 47.17151246 62.80444544 47.17151246 57.9375 50.5 C57.28652344 50.9640625 56.63554688 51.428125 55.96484375 51.90625 C54 53 54 53 50 54 C50 60.27 50 66.54 50 73 C44.39 73 38.78 73 33 73 C33 66.73 33 60.46 33 54 C31.02 53.34 29.04 52.68 27 52 C22.28400486 48.68653129 19.88793087 45.61694901 17.4375 40.4375 C17.12232422 39.77854736 16.80714844 39.11959473 16.48242188 38.44067383 C15.74911921 36.89810954 15.02367338 35.35179677 14.30419922 33.80273438 C13.04751831 31.10211722 11.77338835 28.41017081 10.49513245 25.7197113 C9.29133748 23.18250521 8.09450027 20.64206375 6.89968872 18.10061646 C6.30073112 16.82698079 5.70053463 15.553927 5.09909058 14.28146362 C4.24754007 12.47562532 3.40484892 10.66561751 2.5625 8.85546875 C2.06878906 7.79996826 1.57507813 6.74446777 1.06640625 5.65698242 C0 3 0 3 0 0 Z " fill="#000000" transform="translate(704,321)"/>
<path d="M0 0 C23.43 0 46.86 0 71 0 C71 5.28 71 10.56 71 16 C62.09 16 53.18 16 44 16 C44 34.81 44 53.62 44 73 C38.39 73 32.78 73 27 73 C27 54.19 27 35.38 27 16 C18.09 16 9.18 16 0 16 C0 10.72 0 5.44 0 0 Z " fill="#000000" transform="translate(343,321)"/>
<path d="M0 0 C5.28 0 10.56 0 16 0 C16 24.09 16 48.18 16 73 C10.72 73 5.44 73 0 73 C0 48.91 0 24.82 0 0 Z " fill="#000000" transform="translate(422,321)"/>
</svg>
