<?xml version="1.0" encoding="UTF-8"?>
<svg version="1.1" xmlns="http://www.w3.org/2000/svg" width="1280" height="720">
<path d="M0 0 C7.70206549 -0.09059204 15.40393077 -0.16388313 23.10640049 -0.20724869 C26.68352209 -0.22806871 30.26025834 -0.25628224 33.8371582 -0.30175781 C37.29312329 -0.34541779 40.74871917 -0.36917906 44.20493889 -0.37950897 C46.15640832 -0.39042916 48.1077305 -0.42162308 50.05897522 -0.45318604 C56.91236114 -0.45491048 61.5309548 -0.30943176 67 4 C69.71417944 7.00762323 70.37877248 8.91892153 70.40405273 12.94873047 C70.41673691 13.93009979 70.42942108 14.91146912 70.44248962 15.9225769 C70.43955399 16.9767984 70.43661835 18.0310199 70.43359375 19.1171875 C70.4388356 20.20709991 70.44407745 21.29701233 70.44947815 22.41995239 C70.45589953 24.72478382 70.45455989 27.02964801 70.44604492 29.33447266 C70.43754805 32.85508893 70.46627559 36.37407581 70.49804688 39.89453125 C70.49965934 42.13541618 70.49908049 44.37630398 70.49609375 46.6171875 C70.50732773 47.66736053 70.51856171 48.71753357 70.53013611 49.79953003 C70.47460002 55.64664798 70.21000782 59.55276541 66 64 C61.77395509 66.50140902 58.70217312 67.37153274 53.81103516 67.34057617 C52.61024323 67.34034958 51.40945129 67.34012299 50.17227173 67.33988953 C48.89081268 67.32440567 47.60935364 67.30892181 46.2890625 67.29296875 C44.95242796 67.28736685 43.61578722 67.28309956 42.27914429 67.28010559 C38.77735096 67.26870334 35.27593658 67.23927697 31.77429199 67.20599365 C28.19463315 67.17519236 24.61491068 67.16141399 21.03515625 67.14648438 C14.02310388 67.11599719 7.01208929 67.05726752 0 67 C0 50.5 0 34 0 17 C5.28 17 10.56 17 16 17 C16 29.54 16 42.08 16 55 C21.56875 54.87625 27.1375 54.7525 32.875 54.625 C34.63183105 54.59100098 36.38866211 54.55700195 38.19873047 54.52197266 C39.58823588 54.48677333 40.9777233 54.45085281 42.3671875 54.4140625 C43.09107666 54.40270264 43.81496582 54.39134277 44.56079102 54.37963867 C48.73634401 54.38496327 48.73634401 54.38496327 52 52 C52.33 48.04 52.66 44.08 53 40 C41.78 40 30.56 40 19 40 C19 36.04 19 32.08 19 28 C30.22 28 41.44 28 53 28 C53.36039351 16.71445127 53.36039351 16.71445127 49 13 C46.72561712 12.52900985 46.72561712 12.52900985 44.16137695 12.56762695 C43.1805867 12.54783279 42.19979645 12.52803864 41.18928528 12.50764465 C40.13295395 12.50125473 39.07662262 12.49486481 37.98828125 12.48828125 C36.90491989 12.47033005 35.82155853 12.45237885 34.70536804 12.43388367 C31.24111843 12.37965015 27.77700762 12.34584256 24.3125 12.3125 C21.96547542 12.27933851 19.61846919 12.24484996 17.27148438 12.20898438 C11.51442287 12.1239159 5.75740346 12.0571666 0 12 C0 8.04 0 4.08 0 0 Z " fill="#000000" transform="translate(737,327)"/>
<path d="M0 0 C1.06152786 -0.0127597 2.12305573 -0.02551941 3.2167511 -0.03866577 C4.93706795 -0.04200424 4.93706795 -0.04200424 6.69213867 -0.04541016 C8.46230598 -0.05539536 8.46230598 -0.05539536 10.26823425 -0.06558228 C12.76734863 -0.07571573 15.2664901 -0.08039908 17.765625 -0.08007812 C21.58468439 -0.0844436 25.4025813 -0.120737 29.22143555 -0.15869141 C31.64916597 -0.16456093 34.07690188 -0.16852942 36.50463867 -0.17041016 C38.21584648 -0.19196671 38.21584648 -0.19196671 39.96162415 -0.21395874 C46.19754324 -0.17813074 50.11358729 0.00003672 54.79760742 4.29052734 C57.10878905 7.75729979 57.04178638 9.05384616 57.0246582 13.13891602 C57.02450714 14.33993454 57.02435608 15.54095306 57.02420044 16.77836609 C57.01387787 18.07530899 57.0035553 19.37225189 56.99291992 20.70849609 C56.98918897 22.04942107 56.98634239 23.39034878 56.98434448 24.73127747 C56.97671442 28.25767567 56.95707145 31.78390868 56.93493652 35.3102417 C56.91446452 38.90976731 56.90533988 42.50931965 56.89526367 46.10888672 C56.87382485 53.16950756 56.83864788 60.22998928 56.79760742 67.29052734 C51.51760742 67.29052734 46.23760742 67.29052734 40.79760742 67.29052734 C40.79760742 58.38052734 40.79760742 49.47052734 40.79760742 40.29052734 C29.24760742 40.29052734 17.69760742 40.29052734 5.79760742 40.29052734 C5.79760742 36.33052734 5.79760742 32.37052734 5.79760742 28.29052734 C17.34760742 28.29052734 28.89760742 28.29052734 40.79760742 28.29052734 C40.91156106 18.14608665 40.91156106 18.14608665 37.62597656 14.63623047 C34.36578857 13.08507326 32.14858194 12.77434364 28.54370117 12.75927734 C27.35969727 12.75412109 26.17569336 12.74896484 24.95581055 12.74365234 C23.72797852 12.75912109 22.50014648 12.77458984 21.23510742 12.79052734 C20.0034082 12.77505859 18.77170898 12.75958984 17.50268555 12.74365234 C16.3199707 12.74880859 15.13725586 12.75396484 13.91870117 12.75927734 C12.30112915 12.76604492 12.30112915 12.76604492 10.65087891 12.77294922 C7.06919223 13.4226605 6.07049546 14.49453549 3.79760742 17.29052734 C3.18806846 19.69784113 3.18806846 19.69784113 3.25170898 22.33447266 C3.22213104 23.83557587 3.22213104 23.83557587 3.19195557 25.36700439 C3.19011261 26.97657013 3.19011261 26.97657013 3.18823242 28.61865234 C3.17169617 29.7227948 3.15515991 30.82693726 3.13812256 31.96453857 C3.08955116 35.48992423 3.06825052 39.01487823 3.04760742 42.54052734 C3.01945552 44.93117417 2.9895292 47.3218008 2.95776367 49.71240234 C2.88378919 55.57174183 2.83426997 61.43084038 2.79760742 67.29052734 C-2.48239258 67.29052734 -7.76239258 67.29052734 -13.20239258 67.29052734 C-13.31547488 59.55395814 -13.40715496 51.81769778 -13.46145344 44.08050251 C-13.48751802 40.48751875 -13.52285587 36.89513099 -13.57958984 33.30249023 C-13.63402593 29.83354549 -13.66383673 26.36517296 -13.67677879 22.89583397 C-13.69047707 20.93201684 -13.72949276 18.9684291 -13.76887512 17.00495911 C-13.77168368 8.07431845 -13.77168368 8.07431845 -10.859375 4.06469727 C-4.83113794 0.03941024 -4.83113794 0.03941024 0 0 Z " fill="#000000" transform="translate(671.202392578125,326.70947265625)"/>
<path d="M0 0 C0.99831345 -0.01283524 1.99662689 -0.02567047 3.02519226 -0.03889465 C4.10847305 -0.04628159 5.19175385 -0.05366852 6.30786133 -0.0612793 C7.42042801 -0.06935104 8.53299469 -0.07742279 9.67927551 -0.08573914 C12.03893471 -0.09958977 14.39861402 -0.11030753 16.75830078 -0.11816406 C20.35789331 -0.13534531 23.95656007 -0.17922035 27.5559082 -0.22338867 C29.84821915 -0.23351821 32.14053792 -0.24203349 34.43286133 -0.2487793 C35.50602097 -0.26628738 36.5791806 -0.28379547 37.68486023 -0.30183411 C44.09081151 -0.28335317 48.03432164 0.28438579 53.20239258 4.17700195 C55.92369688 7.17781929 56.58117966 9.09825033 56.60644531 13.12573242 C56.61912949 14.10710175 56.63181366 15.08847107 56.6448822 16.09957886 C56.64194656 17.15380035 56.63901093 18.20802185 56.63598633 19.29418945 C56.64122818 20.38410187 56.64647003 21.47401428 56.65187073 22.59695435 C56.65829211 24.90178577 56.65695247 27.20664997 56.6484375 29.51147461 C56.63994063 33.03209088 56.66866817 36.55107776 56.70043945 40.0715332 C56.70205192 42.31241813 56.70147307 44.55330593 56.69848633 46.79418945 C56.70972031 47.84436249 56.72095428 48.89453552 56.73252869 49.97653198 C56.6769926 55.82364993 56.4124004 59.72976736 52.20239258 64.17700195 C46.87731554 68.05117954 41.21277469 67.61222167 34.88989258 67.57543945 C33.2592688 67.57974472 33.2592688 67.57974472 31.59570312 67.58413696 C29.30281044 67.58617375 27.00990023 67.58067091 24.71704102 67.56811523 C21.21436583 67.55205685 17.71284453 67.56797778 14.21020508 67.5871582 C11.97843171 67.5851757 9.74665905 67.58133189 7.51489258 67.57543945 C6.47099365 67.58151215 5.42709473 67.58758484 4.3515625 67.59384155 C-2.5037194 67.52777384 -6.86868058 66.77221123 -12.14819336 62.09423828 C-14.52853251 57.88425123 -14.29817254 54.25607705 -14.18823242 49.5012207 C-14.18257263 48.57606155 -14.17691284 47.6509024 -14.17108154 46.69770813 C-14.14875222 43.75277209 -14.09856228 40.8090681 -14.04760742 37.86450195 C-14.02753797 35.86386853 -14.00928798 33.86321596 -13.99291992 31.86254883 C-13.94889868 26.96689431 -13.87989489 22.07215677 -13.79760742 17.17700195 C-8.51760742 17.17700195 -3.23760742 17.17700195 2.20239258 17.17700195 C2.23977539 19.68036133 2.2771582 22.1837207 2.31567383 24.76293945 C2.36185993 27.18230019 2.41310398 29.60150438 2.46484375 32.02075195 C2.49813693 33.7045748 2.52615514 35.38851043 2.54882812 37.07250977 C2.58229463 39.49064282 2.63460294 41.9077382 2.69067383 44.32543945 C2.69706375 45.08069916 2.70345367 45.83595886 2.71003723 46.61410522 C2.74219575 48.96346096 2.74219575 48.96346096 3.20239258 52.17700195 C6.85997796 54.61539221 8.63288502 54.42203671 12.98754883 54.4074707 C13.64444199 54.40701248 14.30133514 54.40655426 14.97813416 54.40608215 C16.36418468 54.40306571 17.75023199 54.39519754 19.13623047 54.3828125 C21.2606198 54.36453871 23.38457342 54.36230303 25.5090332 54.36254883 C32.0534407 54.71871723 32.0534407 54.71871723 38.20239258 53.17700195 C38.20239258 39.97700195 38.20239258 26.77700195 38.20239258 13.17700195 C21.04239258 12.84700195 3.88239258 12.51700195 -13.79760742 12.17700195 C-12.84524905 8.36756846 -12.32612757 7.26905033 -9.86010742 4.48950195 C-9.33545898 3.88750977 -8.81081055 3.28551758 -8.27026367 2.6652832 C-5.63573318 0.00280013 -3.61737998 0.04044528 0 0 Z " fill="#000000" transform="translate(881.797607421875,326.822998046875)"/>
<path d="M0 0 C0.96084503 0.00007553 1.92169006 0.00015106 2.91165161 0.00022888 C3.95127045 0.00539017 4.99088928 0.01055145 6.06201172 0.01586914 C7.12459198 0.01728409 8.18717224 0.01869904 9.2819519 0.02015686 C12.68522931 0.02576705 16.0884416 0.0383213 19.49169922 0.05102539 C21.79508369 0.05603908 24.09846918 0.06060221 26.40185547 0.06469727 C32.05682858 0.0757398 37.71175285 0.0930113 43.36669922 0.11352539 C43.36669922 4.07352539 43.36669922 8.03352539 43.36669922 12.11352539 C42.25633301 12.13334473 41.1459668 12.15316406 40.00195312 12.17358398 C35.8905532 12.2495362 31.77951204 12.33826899 27.66845703 12.4309082 C25.88760449 12.46924104 24.10667338 12.50408628 22.32568359 12.53540039 C19.76875688 12.5809581 17.21237312 12.63896646 14.65576172 12.69946289 C13.85675446 12.7110141 13.05774719 12.72256531 12.23452759 12.73446655 C7.8321271 12.68611483 7.8321271 12.68611483 4.36669922 15.11352539 C4.19137632 17.98241121 4.13532308 20.75345184 4.17138672 23.62133789 C4.17563156 24.88226761 4.17563156 24.88226761 4.17996216 26.16867065 C4.19117492 28.85876585 4.21628119 31.54853049 4.24169922 34.23852539 C4.25172762 36.06013517 4.26085371 37.88175016 4.26904297 39.70336914 C4.2911178 44.17354897 4.32565488 48.6434811 4.36669922 53.11352539 C8.10090519 54.35826071 11.6403516 54.34562324 15.53466797 54.42993164 C16.72688713 54.46110329 16.72688713 54.46110329 17.94319153 54.49290466 C20.48010685 54.55824626 23.01712494 54.61721347 25.55419922 54.67602539 C27.27491294 54.71922526 28.99561629 54.76284002 30.71630859 54.80688477 C34.93300035 54.91391187 39.14979541 55.01522263 43.36669922 55.11352539 C43.36669922 59.07352539 43.36669922 63.03352539 43.36669922 67.11352539 C37.10451829 67.18798425 30.8425982 67.24227357 24.58007812 67.27832031 C22.45210274 67.29335615 20.32415808 67.31379022 18.19628906 67.33984375 C15.12801505 67.37645629 12.06015273 67.3933042 8.99169922 67.40649414 C8.04866943 67.421978 7.10563965 67.43746185 6.1340332 67.45341492 C-1.42912119 67.4553184 -7.5473677 66.5858533 -13.08789062 61.08447266 C-16.58242113 56.55986395 -16.46702208 52.11239745 -16.35986328 46.57836914 C-16.36086029 45.58148575 -16.3618573 44.58460236 -16.36288452 43.55751038 C-16.35822145 41.45883167 -16.33887254 39.36013988 -16.30566406 37.26171875 C-16.25838897 34.05700339 -16.26456294 30.85561142 -16.27783203 27.65063477 C-16.26667942 25.60569314 -16.25246024 23.56076546 -16.23486328 21.51586914 C-16.2366861 20.56260239 -16.23850891 19.60933563 -16.24038696 18.62718201 C-16.12009439 12.96145262 -15.44709627 9.58718193 -11.63330078 5.11352539 C-7.61118593 1.57023374 -5.32628653 -0.01394316 0 0 Z " fill="#000000" transform="translate(461.63330078125,326.886474609375)"/>
<path d="M0 0 C6.27 0 12.54 0 19 0 C19.495 26.235 19.495 26.235 20 53 C23.73420597 54.24473532 27.27365238 54.23209785 31.16796875 54.31640625 C32.36018791 54.3475779 32.36018791 54.3475779 33.57649231 54.37937927 C36.11340763 54.44472087 38.65042573 54.50368808 41.1875 54.5625 C42.90821372 54.60569986 44.62891708 54.64931463 46.34960938 54.69335938 C50.56630113 54.80038648 54.7830962 54.90169724 59 55 C59 58.96 59 62.92 59 67 C52.73781907 67.07445886 46.47589898 67.12874818 40.21337891 67.16479492 C38.08540352 67.17983076 35.95745886 67.20026483 33.82958984 67.22631836 C30.76131583 67.26293089 27.69345351 67.27977881 24.625 67.29296875 C23.68197021 67.30845261 22.73894043 67.32393646 21.76733398 67.33988953 C14.27552284 67.34177505 8.14160601 66.44512066 2.53662109 61.13452148 C-1.42959612 55.99274025 -0.74478518 50.05777409 -0.5859375 43.84765625 C-0.57744781 42.59238632 -0.56895813 41.33711639 -0.56021118 40.04380798 C-0.53240578 36.72689762 -0.47863572 33.41252257 -0.4119873 30.09631348 C-0.35030142 26.70440432 -0.3231407 23.31223181 -0.29296875 19.91992188 C-0.22694669 13.27916411 -0.12344816 6.63992847 0 0 Z " fill="#000000" transform="translate(590,327)"/>
<path d="M0 0 C0.90741943 -0.02175293 1.81483887 -0.04350586 2.74975586 -0.06591797 C6.89085763 -0.02075404 11.00599232 0.18563253 15.1328125 0.52734375 C13.84634326 4.06668598 12.33929149 6.87883985 10.0859375 9.890625 C9.4878125 10.69564453 8.8896875 11.50066406 8.2734375 12.33007812 C7.64953125 13.15830078 7.025625 13.98652344 6.3828125 14.83984375 C5.774375 15.65646484 5.1659375 16.47308594 4.5390625 17.31445312 C3.93578125 18.12333984 3.3325 18.93222656 2.7109375 19.765625 C2.11861328 20.56436035 1.52628906 21.3630957 0.91601562 22.18603516 C-0.26197572 23.73271328 -1.47688069 25.25203416 -2.72851562 26.73974609 C-4.28093095 28.62110039 -5.68841975 30.39209358 -6.8671875 32.52734375 C-6.29488634 36.90414697 -3.0752636 40.06689384 -0.3671875 43.46484375 C0.52788658 44.60532532 1.42105119 45.74730754 2.3125 46.890625 C2.77366211 47.48182129 3.23482422 48.07301758 3.70996094 48.68212891 C6.11383444 51.79957502 8.44687991 54.96561452 10.7578125 58.15234375 C11.41426758 59.03974243 11.41426758 59.03974243 12.08398438 59.94506836 C15.1328125 64.17771079 15.1328125 64.17771079 15.1328125 67.52734375 C-1.38946487 69.1913371 -1.38946487 69.1913371 -6.78125 65.5703125 C-9.10944294 62.67912018 -10.97750446 59.72242426 -12.8671875 56.52734375 C-14.21231422 54.59526178 -15.59619661 52.69547876 -16.98608398 50.79541016 C-18.31184355 48.97820322 -19.60886001 47.14377541 -20.8984375 45.30078125 C-22.60279142 42.73597465 -22.60279142 42.73597465 -23.8671875 41.52734375 C-26.85608109 41.06968708 -29.85688398 40.82413424 -32.8671875 40.52734375 C-32.8671875 36.56734375 -32.8671875 32.60734375 -32.8671875 28.52734375 C-31.68253906 28.53765625 -30.49789062 28.54796875 -29.27734375 28.55859375 C-26.49012258 28.20520625 -25.1868187 27.82143627 -23.10107422 25.90234375 C-21.38415684 23.67341801 -19.83283299 21.38959711 -18.3046875 19.02734375 C-17.73371338 18.20959473 -17.16273926 17.3918457 -16.57446289 16.54931641 C-14.25123513 13.21314406 -12.07958304 9.92951863 -10.1796875 6.33203125 C-7.65516949 1.87109318 -5.12471546 0.1110207 0 0 Z " fill="#000000" transform="translate(565.8671875,326.47265625)"/>
<path d="M0 0 C5.94 0 11.88 0 18 0 C18 22.11 18 44.22 18 67 C12.06 67 6.12 67 0 67 C0 44.89 0 22.78 0 0 Z " fill="#000000" transform="translate(840,327)"/>
<path d="M0 0 C5.94 0 11.88 0 18 0 C18 22.11 18 44.22 18 67 C12.06 67 6.12 67 0 67 C0 44.89 0 22.78 0 0 Z " fill="#000000" transform="translate(418,327)"/>
<path d="M0 0 C5.61 0 11.22 0 17 0 C17 22.11 17 44.22 17 67 C11.39 67 5.78 67 0 67 C0 44.89 0 22.78 0 0 Z " fill="#000000" transform="translate(514,327)"/>
<path d="M0 0 C21.45 0 42.9 0 65 0 C65 3.96 65 7.92 65 12 C43.55 12 22.1 12 0 12 C0 8.04 0 4.08 0 0 Z " fill="#000000" transform="translate(344,327)"/>
<path d="M0 0 C8.58 0 17.16 0 26 0 C26 3.96 26 7.92 26 12 C17.42 12 8.84 12 0 12 C0 8.04 0 4.08 0 0 Z " fill="#000000" transform="translate(363,382)"/>
<path d="M0 0 C5.28 0 10.56 0 16 0 C16 4.29 16 8.58 16 13 C10.72 13 5.44 13 0 13 C0 8.71 0 4.42 0 0 Z " fill="#000000" transform="translate(815,381)"/>
</svg>
