<?xml version="1.0" encoding="UTF-8"?>
<svg version="1.1" xmlns="http://www.w3.org/2000/svg" width="1280" height="720">
<path d="M0 0 C2.62982178 -0.38768005 2.62982178 -0.38768005 6.00683594 -0.40405273 C7.26864685 -0.41673691 8.53045776 -0.42942108 9.83050537 -0.44248962 C11.21513024 -0.44043751 12.59975398 -0.43744892 13.984375 -0.43359375 C15.40204113 -0.43815418 16.81970504 -0.44345934 18.23736572 -0.44947815 C21.21334796 -0.45842492 24.18906213 -0.45597102 27.16503906 -0.44604492 C30.9694261 -0.43458959 34.77288019 -0.45470438 38.57714462 -0.48396206 C41.50781087 -0.50236367 44.43825559 -0.5020232 47.36896515 -0.49632454 C48.77072706 -0.49617161 50.17250426 -0.50219265 51.57421112 -0.51461601 C53.54128381 -0.52958497 55.50850958 -0.51618855 57.47558594 -0.50170898 C58.59318298 -0.50154282 59.71078003 -0.50137665 60.86224365 -0.50120544 C64.73917857 0.11807173 66.92754286 1.60446469 70 4 C72.22705803 7.10767124 72.2438232 9.79908631 72.1875 13.5625 C72.18105469 14.51253906 72.17460937 15.46257812 72.16796875 16.44140625 C72 19 72 19 71 22 C71.495 22.99 71.495 22.99 72 24 C72.60110663 28.58819366 73.04707002 33.09473018 70.765625 37.24609375 C68.29081174 40.19259171 66.70068835 41.76643722 63 43 C61.00719076 43.10387491 59.01110017 43.14858335 57.015625 43.16113281 C55.78424805 43.17074036 54.55287109 43.1803479 53.28417969 43.19024658 C51.93945501 43.19509347 50.59472818 43.19937256 49.25 43.203125 C47.87141925 43.20887797 46.49283852 43.21463568 45.11425781 43.22039795 C42.22590767 43.23089577 39.33758528 43.23674695 36.44921875 43.24023438 C32.74676753 43.24572823 29.04468238 43.26977985 25.34234619 43.29820633 C22.49592001 43.31681753 19.64958248 43.3220374 16.80310059 43.32357025 C15.43792715 43.32659885 14.07275534 43.33463444 12.7076416 43.34775543 C10.79995991 43.3647883 8.89212707 43.36109487 6.984375 43.35644531 C5.89866211 43.36009094 4.81294922 43.36373657 3.69433594 43.36749268 C1 43 1 43 -0.85075378 41.70831299 C-2.86371112 38.71612461 -2.40419094 35.20320885 -2.36328125 31.71875 C-2.36377975 30.9088562 -2.36427826 30.0989624 -2.36479187 29.26452637 C-2.36245258 27.5531163 -2.35273255 25.84170272 -2.33618164 24.13037109 C-2.31258804 21.50977842 -2.31562167 18.89020315 -2.32226562 16.26953125 C-2.31668876 14.60676476 -2.30957883 12.94400256 -2.30078125 11.28125 C-2.30169266 10.49681519 -2.30260406 9.71238037 -2.30354309 8.9041748 C-2.25368827 5.08160354 -2.17016688 3.25525033 0 0 Z M10 11 C10 12.65 10 14.3 10 16 C16.94166078 16.0758805 23.88321518 16.12852796 30.82519531 16.16479492 C33.1881917 16.179909 35.55115991 16.20040076 37.9140625 16.22631836 C41.30475809 16.26258629 44.69508379 16.27969999 48.0859375 16.29296875 C49.14743011 16.30845261 50.20892273 16.32393646 51.30258179 16.33988953 C52.28344757 16.34011612 53.26431335 16.34034271 54.27490234 16.34057617 C55.14094086 16.34723801 56.00697937 16.35389984 56.89926147 16.36076355 C57.59250519 16.24171158 58.2857489 16.12265961 59 16 C59.66 15.01 60.32 14.02 61 13 C59.21915344 10.80442816 59.21915344 10.80442816 56.89926147 10.75949097 C55.6002037 10.7661528 55.6002037 10.7661528 54.27490234 10.77294922 C53.29403656 10.77310028 52.31317078 10.77325134 51.30258179 10.77340698 C50.24108917 10.78372955 49.17959656 10.79405212 48.0859375 10.8046875 C46.45877304 10.80893234 46.45877304 10.80893234 44.79873657 10.81326294 C41.32404687 10.82448422 37.84961218 10.84959238 34.375 10.875 C32.02344121 10.88502728 29.6718784 10.89415357 27.3203125 10.90234375 C21.54678756 10.92442989 15.77341199 10.95792655 10 11 Z M10 27 C10 28.65 10 30.3 10 32 C26.17 32 42.34 32 59 32 C59.33 30.68 59.66 29.36 60 28 C59.00143681 26.78045333 59.00143681 26.78045333 57.01951599 26.87974548 C56.15125687 26.88196609 55.28299774 26.88418671 54.38842773 26.88647461 C53.40748642 26.88655014 52.4265451 26.88662567 51.4158783 26.88670349 C50.3492244 26.89186478 49.2825705 26.89702606 48.18359375 26.90234375 C47.0974025 26.9037587 46.01121124 26.90517365 44.8921051 26.90663147 C41.40720925 26.91224952 37.92237658 26.92480508 34.4375 26.9375 C32.08138113 26.94251267 29.72526126 26.94707598 27.36914062 26.95117188 C21.57940536 26.96222481 15.78970719 26.97898049 10 27 Z " fill="#000000" transform="translate(377,325)"/>
<path d="M0 0 C1.27449509 -0.00622879 2.54899017 -0.01245758 3.86210632 -0.01887512 C5.24376826 -0.01018929 6.62542634 -0.00087156 8.00708008 0.0090332 C9.43003845 0.00955214 10.85299754 0.00903315 12.2759552 0.00752258 C15.25081146 0.0076121 18.22539553 0.0180027 21.20019531 0.03613281 C25.01698487 0.05888155 28.83337921 0.05935081 32.65021801 0.05261517 C35.58498156 0.04927855 38.51965461 0.05589839 41.45440102 0.0657444 C42.86224202 0.06959737 44.27009308 0.07074421 45.67793846 0.06915855 C47.64078401 0.06878873 49.60361639 0.08286671 51.56640625 0.09765625 C52.68383713 0.10226364 53.80126801 0.10687103 54.95256042 0.11161804 C57.58911133 0.37231445 57.58911133 0.37231445 59.58911133 2.37231445 C60.14286568 7.57760537 60.14286568 7.57760537 58.42936707 10.03669739 C55.85255183 11.90689311 54.00084255 11.77091007 50.83251953 11.8046875 C49.06102287 11.83437874 49.06102287 11.83437874 47.2537384 11.8646698 C45.34113472 11.87425468 45.34113472 11.87425468 43.38989258 11.8840332 C42.08457077 11.90198441 40.77924896 11.91993561 39.43437195 11.93843079 C35.96728537 11.98594498 32.50026392 12.01574467 29.03295898 12.04187012 C25.49360285 12.07166882 21.95447119 12.11820141 18.4152832 12.16333008 C11.47335375 12.2493789 4.53134959 12.31671699 -2.41088867 12.37231445 C-2.08088867 13.36231445 -1.75088867 14.35231445 -1.41088867 15.37231445 C-0.73294754 15.37818069 -0.05500641 15.38404694 0.64347839 15.39009094 C7.70025667 15.45403024 14.75657914 15.53845191 21.81298828 15.63476562 C24.44639069 15.6680177 27.07986441 15.6960487 29.71337891 15.71875 C33.49908844 15.75228975 37.28414421 15.80460766 41.06958008 15.8605957 C42.24683151 15.86698563 43.42408295 15.87337555 44.63700867 15.87995911 C45.73777237 15.89975327 46.83853607 15.91954742 47.97265625 15.93994141 C48.93862228 15.95104446 49.90458832 15.96214752 50.89982605 15.97358704 C54.8251341 16.55557361 57.46475723 18.32827136 60.33911133 20.99731445 C62.5393806 25.17782606 63.19158907 29.77817477 62.11645508 34.4074707 C60.68480985 38.09219696 59.0294896 40.43710168 55.58911133 42.37231445 C52.35762801 43.44947556 50.00375652 43.5056446 46.60473633 43.51757812 C44.7576709 43.5271479 44.7576709 43.5271479 42.87329102 43.53691101 C41.52856485 43.53843951 40.18383816 43.53955356 38.83911133 43.5402832 C37.46053024 43.54349651 36.0819495 43.54686064 34.70336914 43.55036926 C31.81501474 43.55635521 28.92669024 43.55820965 26.03833008 43.55761719 C22.33596034 43.55751545 18.63378188 43.57118168 14.93145752 43.5883894 C12.08503334 43.59950172 9.23865557 43.60153665 6.39221191 43.60100746 C5.0270522 43.6021882 3.6618913 43.60661523 2.29675293 43.61433983 C0.38902247 43.62412613 -1.51876407 43.62000094 -3.42651367 43.61523438 C-4.51222656 43.61665939 -5.59793945 43.61808441 -6.71655273 43.61955261 C-9.41088867 43.37231445 -9.41088867 43.37231445 -12.41088867 41.37231445 C-12.72338867 37.87231445 -12.72338867 37.87231445 -12.41088867 34.37231445 C-9.75693337 31.71835916 -8.47563864 32.10080062 -4.76782227 32.0534668 C-3.58674896 32.03359711 -2.40567566 32.01372742 -1.18881226 31.99325562 C0.09141815 31.98170441 1.37164856 31.9701532 2.69067383 31.95825195 C3.99741058 31.9388858 5.30414734 31.91951965 6.65048218 31.89956665 C10.12578241 31.84817275 13.60112145 31.80858623 17.07659912 31.77142334 C20.62253474 31.73142892 24.16830795 31.68031586 27.71411133 31.63012695 C34.67232609 31.53328198 41.63064498 31.4489048 48.58911133 31.37231445 C48.91911133 30.05231445 49.24911133 28.73231445 49.58911133 27.37231445 C48.90086273 27.3811969 48.21261414 27.39007935 47.50350952 27.39923096 C40.33339756 27.48779741 33.16344127 27.54808784 25.99291992 27.59204102 C23.31747757 27.6098827 20.64289117 27.63942494 17.9675293 27.67407227 C14.11992561 27.72264951 10.27290346 27.7452981 6.42504883 27.76293945 C5.2310849 27.78358459 4.03712097 27.80422974 2.80697632 27.82550049 C-3.54612098 27.82721318 -7.65284393 27.78612605 -12.41088867 23.37231445 C-15.46235304 18.89683338 -16.36142652 14.66364181 -15.41088867 9.37231445 C-11.87315879 2.42788173 -7.68624086 -0.00432027 0 0 Z " fill="#000000" transform="translate(679.410888671875,324.627685546875)"/>
<path d="M0 0 C1.71218971 -0.01902626 1.71218971 -0.01902626 3.45896912 -0.03843689 C4.68301956 -0.03550125 5.90707001 -0.03256561 7.16821289 -0.02954102 C8.43427872 -0.03478287 9.70034454 -0.04002472 11.004776 -0.04542542 C13.6805843 -0.05184519 16.35553862 -0.05195138 19.03125 -0.04199219 C22.44884287 -0.03050704 25.86540176 -0.05071248 29.28285885 -0.07990932 C32.55714826 -0.10273855 35.83136257 -0.09580175 39.10571289 -0.09204102 C40.93875221 -0.10889198 40.93875221 -0.10889198 42.80882263 -0.12608337 C49.19391141 -0.0737528 53.40843149 -0.02105023 58.20336914 4.40405273 C60.18542152 7.26322024 60.47639613 9.58651782 60.45336914 13.02905273 C60.46110352 14.19307617 60.46110352 14.19307617 60.46899414 15.38061523 C60.20336914 17.40405273 60.20336914 17.40405273 58.20336914 19.40405273 C54.76586914 19.77905273 54.76586914 19.77905273 51.20336914 19.40405273 C48.87206196 17.15045579 48.23265006 15.49189549 47.20336914 12.40405273 C31.36336914 12.40405273 15.52336914 12.40405273 -0.79663086 12.40405273 C-1.12663086 13.72405273 -1.45663086 15.04405273 -1.79663086 16.40405273 C-0.49012573 16.38048706 -0.49012573 16.38048706 0.84277344 16.35644531 C4.13987429 16.30467211 7.43653028 16.26739545 10.73388672 16.23925781 C12.14867051 16.22436535 13.56340981 16.20404437 14.97802734 16.17773438 C28.80406686 15.92742269 42.69945296 16.87077094 53.49633789 26.43530273 C60.1233202 32.9098058 60.1233202 32.9098058 60.39086914 37.90405273 C60.20336914 41.40405273 60.20336914 41.40405273 58.20336914 43.40405273 C54.88305664 43.82592773 54.88305664 43.82592773 51.20336914 43.40405273 C48.64868164 41.35717773 48.64868164 41.35717773 46.32836914 38.65405273 C39.8935299 31.7294997 33.38713967 28.7971702 23.97363281 28.19873047 C22.78487549 28.16207275 21.59611816 28.12541504 20.37133789 28.08764648 C19.07905273 28.04575195 17.78676758 28.00385742 16.45532227 27.96069336 C15.10050722 27.92088922 13.74568947 27.88117682 12.39086914 27.84155273 C11.01650809 27.7983155 9.6421589 27.75469962 8.26782227 27.71069336 C4.91310245 27.60475484 1.55831054 27.50268084 -1.79663086 27.40405273 C-1.76182617 28.39147461 -1.72702148 29.37889648 -1.69116211 30.39624023 C-1.6640918 31.67756836 -1.63702148 32.95889648 -1.60913086 34.27905273 C-1.57432617 35.55522461 -1.53952148 36.83139648 -1.50366211 38.14624023 C-1.64868164 39.75885742 -1.64868164 39.75885742 -1.79663086 41.40405273 C-5.26586966 43.7168786 -6.71868661 43.82883859 -10.79663086 43.40405273 C-12.45922852 42.31347656 -12.45922852 42.31347656 -13.79663086 40.40405273 C-14.18481445 37.31298828 -14.18481445 37.31298828 -14.19506836 33.54077148 C-14.19793854 32.87116898 -14.20080872 32.20156647 -14.20376587 31.51167297 C-14.20580561 30.09533849 -14.20028186 28.67897577 -14.18774414 27.26269531 C-14.17176251 25.10929182 -14.18755423 22.95778659 -14.20678711 20.80444336 C-14.20480318 19.42488196 -14.20095641 18.04532174 -14.19506836 16.66577148 C-14.19168457 15.41755615 -14.18830078 14.16934082 -14.18481445 12.88330078 C-13.75212279 9.00513163 -12.92934393 6.66545512 -10.79663086 3.40405273 C-7.12103428 0.7151294 -4.52054385 0.02439604 0 0 Z " fill="#000000" transform="translate(921.796630859375,324.595947265625)"/>
<path d="M0 0 C1.71218971 -0.01902626 1.71218971 -0.01902626 3.45896912 -0.03843689 C4.68301956 -0.03550125 5.90707001 -0.03256561 7.16821289 -0.02954102 C8.43427872 -0.03478287 9.70034454 -0.04002472 11.004776 -0.04542542 C13.6805843 -0.05184519 16.35553862 -0.05195138 19.03125 -0.04199219 C22.44884287 -0.03050704 25.86540176 -0.05071248 29.28285885 -0.07990932 C32.55714826 -0.10273855 35.83136257 -0.09580175 39.10571289 -0.09204102 C40.93875221 -0.10889198 40.93875221 -0.10889198 42.80882263 -0.12608337 C49.19391141 -0.0737528 53.40843149 -0.02105023 58.20336914 4.40405273 C60.18542152 7.26322024 60.47639613 9.58651782 60.45336914 13.02905273 C60.46110352 14.19307617 60.46110352 14.19307617 60.46899414 15.38061523 C60.20336914 17.40405273 60.20336914 17.40405273 58.20336914 19.40405273 C54.76586914 19.77905273 54.76586914 19.77905273 51.20336914 19.40405273 C48.87206196 17.15045579 48.23265006 15.49189549 47.20336914 12.40405273 C31.36336914 12.40405273 15.52336914 12.40405273 -0.79663086 12.40405273 C-1.12663086 13.72405273 -1.45663086 15.04405273 -1.79663086 16.40405273 C-0.49012573 16.38048706 -0.49012573 16.38048706 0.84277344 16.35644531 C4.13987429 16.30467211 7.43653028 16.26739545 10.73388672 16.23925781 C12.14867051 16.22436535 13.56340981 16.20404437 14.97802734 16.17773438 C28.80406686 15.92742269 42.69945296 16.87077094 53.49633789 26.43530273 C60.1233202 32.9098058 60.1233202 32.9098058 60.39086914 37.90405273 C60.20336914 41.40405273 60.20336914 41.40405273 58.20336914 43.40405273 C54.88305664 43.82592773 54.88305664 43.82592773 51.20336914 43.40405273 C48.64868164 41.35717773 48.64868164 41.35717773 46.32836914 38.65405273 C39.8935299 31.7294997 33.38713967 28.7971702 23.97363281 28.19873047 C22.78487549 28.16207275 21.59611816 28.12541504 20.37133789 28.08764648 C19.07905273 28.04575195 17.78676758 28.00385742 16.45532227 27.96069336 C15.10050722 27.92088922 13.74568947 27.88117682 12.39086914 27.84155273 C11.01650809 27.7983155 9.6421589 27.75469962 8.26782227 27.71069336 C4.91310245 27.60475484 1.55831054 27.50268084 -1.79663086 27.40405273 C-1.76182617 28.39147461 -1.72702148 29.37889648 -1.69116211 30.39624023 C-1.6640918 31.67756836 -1.63702148 32.95889648 -1.60913086 34.27905273 C-1.57432617 35.55522461 -1.53952148 36.83139648 -1.50366211 38.14624023 C-1.64868164 39.75885742 -1.64868164 39.75885742 -1.79663086 41.40405273 C-5.26586966 43.7168786 -6.71868661 43.82883859 -10.79663086 43.40405273 C-12.45922852 42.31347656 -12.45922852 42.31347656 -13.79663086 40.40405273 C-14.18481445 37.31298828 -14.18481445 37.31298828 -14.19506836 33.54077148 C-14.19793854 32.87116898 -14.20080872 32.20156647 -14.20376587 31.51167297 C-14.20580561 30.09533849 -14.20028186 28.67897577 -14.18774414 27.26269531 C-14.17176251 25.10929182 -14.18755423 22.95778659 -14.20678711 20.80444336 C-14.20480318 19.42488196 -14.20095641 18.04532174 -14.19506836 16.66577148 C-14.19168457 15.41755615 -14.18830078 14.16934082 -14.18481445 12.88330078 C-13.75212279 9.00513163 -12.92934393 6.66545512 -10.79663086 3.40405273 C-7.12103428 0.7151294 -4.52054385 0.02439604 0 0 Z " fill="#000000" transform="translate(512.796630859375,324.595947265625)"/>
<path d="M0 0 C1.85179367 -0.00945648 1.85179367 -0.00945648 3.74099731 -0.019104 C5.08368066 -0.01552488 6.42636269 -0.01142309 7.76904297 -0.00683594 C9.14859078 -0.00818353 10.52813814 -0.01012486 11.90768433 -0.01263428 C14.79429663 -0.01557912 17.68078494 -0.01130724 20.56738281 -0.00195312 C24.27096439 0.00946258 27.97425677 0.00286472 31.67782784 -0.00909805 C34.52422273 -0.01631574 37.37054871 -0.01402955 40.21694565 -0.00884247 C41.58292551 -0.00750682 42.94891159 -0.00915074 44.31488419 -0.01380157 C46.22033828 -0.01886734 48.12581428 -0.00978036 50.03125 0 C51.1161673 0.00159119 52.20108459 0.00318237 53.31887817 0.00482178 C55.88623047 0.25878906 55.88623047 0.25878906 57.88623047 2.25878906 C58.13623047 5.75878906 58.13623047 5.75878906 57.88623047 9.25878906 C55.26927902 11.87574051 54.13739732 11.51437632 50.49023438 11.5300293 C48.79805283 11.54530922 48.79805283 11.54530922 47.07168579 11.56089783 C45.84775116 11.56303787 44.62381653 11.56517792 43.36279297 11.56738281 C40.78987403 11.59254222 38.21695742 11.61794025 35.64404297 11.64355469 C31.57311062 11.67435725 27.50215689 11.69653951 23.43115234 11.71508789 C19.51235205 11.73401982 15.59392211 11.77613491 11.67529297 11.81738281 C10.4554068 11.81749863 9.23552063 11.81761444 7.97866821 11.81773376 C6.84424286 11.83107254 5.7098175 11.84441132 4.54101562 11.8581543 C3.5433316 11.86322495 2.54564758 11.86829559 1.51773071 11.8735199 C-1.54763934 12.32231049 -2.90647067 13.111695 -5.11376953 15.25878906 C-6.50603483 19.43558496 -6.73468086 23.34431246 -5.36376953 27.57128906 C-3.78901132 29.69721265 -2.56811653 30.27202071 -0.11376953 31.25878906 C2.5376306 31.57088132 2.5376306 31.57088132 5.44921875 31.54589844 C6.56362335 31.55931274 7.67802795 31.57272705 8.82620239 31.58654785 C10.62322098 31.5944635 10.62322098 31.5944635 12.45654297 31.60253906 C13.68911835 31.61716187 14.92169373 31.63178467 16.19161987 31.64685059 C20.80186362 31.70130645 25.41217011 31.73851964 30.02258301 31.7744751 C34.542398 31.81063032 39.06190781 31.86133647 43.58154297 31.91503906 C44.78360382 31.92031616 45.98566467 31.92559326 47.22415161 31.93103027 C48.88630203 31.95115173 48.88630203 31.95115173 50.58203125 31.97167969 C52.04952316 31.98261658 52.04952316 31.98261658 53.54666138 31.99377441 C55.88623047 32.25878906 55.88623047 32.25878906 57.88623047 34.25878906 C58.13623047 37.75878906 58.13623047 37.75878906 57.88623047 41.25878906 C55.20003171 43.94498782 53.83520571 43.52269895 50.07885742 43.54931641 C48.25104485 43.56845596 48.25104485 43.56845596 46.38630676 43.58798218 C45.04904336 43.59104078 43.71177783 43.59326803 42.37451172 43.59472656 C41.00408285 43.60115384 39.63365535 43.60788215 38.26322937 43.61489868 C35.38565902 43.62688818 32.50820881 43.63057814 29.63061523 43.62939453 C25.95639382 43.629192 22.28295166 43.65641679 18.60891438 43.69093895 C15.77516704 43.71326946 12.94160483 43.71723011 10.10777855 43.71617508 C8.09875633 43.71966277 6.0897919 43.74130021 4.08088684 43.76327515 C-2.84156102 43.72876528 -7.56541484 43.57706778 -13.11376953 39.25878906 C-18.13141594 33.15624613 -19.60727905 26.57450613 -19.43017578 18.81738281 C-18.58595944 11.99069512 -15.40057763 6.62040574 -10.11376953 2.25878906 C-6.7104463 0.12424065 -3.98225401 0.00583199 0 0 Z " fill="#000000" transform="translate(1009.11376953125,324.7412109375)"/>
<path d="M0 0 C1.21450836 -0.00630432 2.42901672 -0.01260864 3.68032837 -0.019104 C4.98770966 -0.01505554 6.29509094 -0.01100708 7.64208984 -0.00683594 C8.99921742 -0.00818357 10.35634453 -0.01012492 11.71347046 -0.01263428 C14.55300508 -0.01557894 17.39241365 -0.01130782 20.23193359 -0.00195312 C23.87498267 0.00946294 27.51773775 0.0028644 31.16077614 -0.00909805 C33.96084826 -0.01631594 36.76085033 -0.01402946 39.56092453 -0.00884247 C41.55849142 -0.00685691 43.55606102 -0.01293742 45.55361938 -0.019104 C46.76182343 -0.01279968 47.97002747 -0.00649536 49.21484375 0 C50.81557236 0.00238678 50.81557236 0.00238678 52.44863892 0.00482178 C54.97802734 0.25878906 54.97802734 0.25878906 56.97802734 2.25878906 C57.22802734 5.75878906 57.22802734 5.75878906 56.97802734 9.25878906 C54.37509473 11.86172168 53.29744013 11.50949752 49.67382812 11.51416016 C48.56572784 11.52111908 47.45762756 11.528078 46.31594849 11.5352478 C44.51285721 11.53375229 44.51285721 11.53375229 42.67333984 11.53222656 C40.14599166 11.5525155 37.61864795 11.57336628 35.09130859 11.59472656 C31.09273079 11.61734796 27.09433586 11.63464496 23.09570312 11.63964844 C19.2462561 11.64914738 15.39760863 11.68289793 11.54833984 11.71972656 C10.35032745 11.71468109 9.15231506 11.70963562 7.91799927 11.70443726 C6.24639236 11.72433212 6.24639236 11.72433212 4.54101562 11.74462891 C3.5610965 11.74747894 2.58117737 11.75032898 1.57156372 11.75326538 C-1.74216177 12.39916598 -2.91180111 13.68340413 -5.02197266 16.25878906 C-6.81206771 19.83897917 -6.48836163 23.82075639 -5.27197266 27.57128906 C-3.69898779 29.69481863 -2.47162857 30.2703375 -0.02197266 31.25878906 C2.58853456 31.5773292 2.58853456 31.5773292 5.44921875 31.56176758 C6.5436026 31.57840958 7.63798645 31.59505157 8.76553345 31.61219788 C9.94167206 31.62061203 11.11781067 31.62902618 12.32958984 31.63769531 C13.53996918 31.65468979 14.75034851 31.67168427 15.99740601 31.68919373 C19.86589339 31.74235397 23.73436985 31.7826409 27.60302734 31.82128906 C31.47877152 31.86517899 35.35443139 31.91184084 39.23007202 31.96409607 C41.64278853 31.99611563 44.05557971 32.02298602 46.46841431 32.04432678 C47.55649384 32.05781662 48.64457336 32.07130646 49.765625 32.08520508 C50.72618805 32.09471695 51.6867511 32.10422882 52.67642212 32.11402893 C54.97802734 32.25878906 54.97802734 32.25878906 56.97802734 33.25878906 C57.17333984 39.31347656 57.17333984 39.31347656 56.97802734 41.25878906 C54.3076722 43.9291442 52.99454815 43.52242679 49.26245117 43.54931641 C48.06393021 43.56207611 46.86540924 43.57483582 45.63056946 43.58798218 C43.67754158 43.59132065 43.67754158 43.59132065 41.68505859 43.59472656 C40.33704994 43.60115399 38.9890427 43.60788231 37.64103699 43.61489868 C34.81054455 43.62688794 31.98017425 43.63057817 29.1496582 43.62939453 C25.53596551 43.62919202 21.92306527 43.6564152 18.30955982 43.69093895 C15.52213506 43.71327234 12.73489846 43.71723002 9.94739342 43.71617508 C7.97160894 43.71966206 5.99588321 43.7412979 4.0202179 43.76327515 C-2.8592659 43.72841401 -7.50212284 43.53369521 -13.02197266 39.25878906 C-18.03961906 33.15624613 -19.51548218 26.57450613 -19.33837891 18.81738281 C-18.49416257 11.99069512 -15.30878075 6.62040574 -10.02197266 2.25878906 C-6.64171677 0.14554231 -3.95326805 0.00588578 0 0 Z " fill="#000000" transform="translate(768.02197265625,324.7412109375)"/>
<path d="M0 0 C1.21450836 -0.00630432 2.42901672 -0.01260864 3.68032837 -0.019104 C4.98770966 -0.01505554 6.29509094 -0.01100708 7.64208984 -0.00683594 C8.99921742 -0.00818357 10.35634453 -0.01012492 11.71347046 -0.01263428 C14.55300508 -0.01557894 17.39241365 -0.01130782 20.23193359 -0.00195312 C23.87498267 0.00946294 27.51773775 0.0028644 31.16077614 -0.00909805 C33.96084826 -0.01631594 36.76085033 -0.01402946 39.56092453 -0.00884247 C41.55849142 -0.00685691 43.55606102 -0.01293742 45.55361938 -0.019104 C46.76182343 -0.01279968 47.97002747 -0.00649536 49.21484375 0 C50.81557236 0.00238678 50.81557236 0.00238678 52.44863892 0.00482178 C54.97802734 0.25878906 54.97802734 0.25878906 56.97802734 2.25878906 C57.22802734 5.75878906 57.22802734 5.75878906 56.97802734 9.25878906 C54.37509473 11.86172168 53.29744013 11.50949752 49.67382812 11.51416016 C48.56572784 11.52111908 47.45762756 11.528078 46.31594849 11.5352478 C44.51285721 11.53375229 44.51285721 11.53375229 42.67333984 11.53222656 C40.14599166 11.5525155 37.61864795 11.57336628 35.09130859 11.59472656 C31.09273079 11.61734796 27.09433586 11.63464496 23.09570312 11.63964844 C19.2462561 11.64914738 15.39760863 11.68289793 11.54833984 11.71972656 C10.35032745 11.71468109 9.15231506 11.70963562 7.91799927 11.70443726 C6.24639236 11.72433212 6.24639236 11.72433212 4.54101562 11.74462891 C3.5610965 11.74747894 2.58117737 11.75032898 1.57156372 11.75326538 C-1.74216177 12.39916598 -2.91180111 13.68340413 -5.02197266 16.25878906 C-6.81206771 19.83897917 -6.48836163 23.82075639 -5.27197266 27.57128906 C-3.69898779 29.69481863 -2.47162857 30.2703375 -0.02197266 31.25878906 C2.58853456 31.5773292 2.58853456 31.5773292 5.44921875 31.56176758 C6.5436026 31.57840958 7.63798645 31.59505157 8.76553345 31.61219788 C9.94167206 31.62061203 11.11781067 31.62902618 12.32958984 31.63769531 C13.53996918 31.65468979 14.75034851 31.67168427 15.99740601 31.68919373 C19.86589339 31.74235397 23.73436985 31.7826409 27.60302734 31.82128906 C31.47877152 31.86517899 35.35443139 31.91184084 39.23007202 31.96409607 C41.64278853 31.99611563 44.05557971 32.02298602 46.46841431 32.04432678 C47.55649384 32.05781662 48.64457336 32.07130646 49.765625 32.08520508 C50.72618805 32.09471695 51.6867511 32.10422882 52.67642212 32.11402893 C54.97802734 32.25878906 54.97802734 32.25878906 56.97802734 33.25878906 C57.17333984 39.31347656 57.17333984 39.31347656 56.97802734 41.25878906 C54.3076722 43.9291442 52.99454815 43.52242679 49.26245117 43.54931641 C48.06393021 43.56207611 46.86540924 43.57483582 45.63056946 43.58798218 C43.67754158 43.59132065 43.67754158 43.59132065 41.68505859 43.59472656 C40.33704994 43.60115399 38.9890427 43.60788231 37.64103699 43.61489868 C34.81054455 43.62688794 31.98017425 43.63057817 29.1496582 43.62939453 C25.53596551 43.62919202 21.92306527 43.6564152 18.30955982 43.69093895 C15.52213506 43.71327234 12.73489846 43.71723002 9.94739342 43.71617508 C7.97160894 43.71966206 5.99588321 43.7412979 4.0202179 43.76327515 C-2.8592659 43.72841401 -7.50212284 43.53369521 -13.02197266 39.25878906 C-18.03961906 33.15624613 -19.51548218 26.57450613 -19.33837891 18.81738281 C-18.49416257 11.99069512 -15.30878075 6.62040574 -10.02197266 2.25878906 C-6.64171677 0.14554231 -3.95326805 0.00588578 0 0 Z " fill="#000000" transform="translate(599.02197265625,324.7412109375)"/>
<path d="M0 0 C0.70125 0.00515625 1.4025 0.0103125 2.125 0.015625 C2.82625 0.01046875 3.5275 0.0053125 4.25 0 C6.125 0.265625 6.125 0.265625 8.125 2.265625 C8.70285515 4.52140028 9.07537975 6.77902796 9.46484375 9.07421875 C10.23018437 11.61478731 11.05538876 12.63487108 13.125 14.265625 C17.0990796 15.5903182 20.9509188 15.48089489 25.09765625 15.546875 C26.41593666 15.57448914 26.41593666 15.57448914 27.760849 15.60266113 C31.52346612 15.68135836 35.28626144 15.74917034 39.04907227 15.81787109 C41.79452509 15.8695424 44.53982182 15.92680557 47.28515625 15.984375 C48.14037369 15.99795044 48.99559113 16.01152588 49.87672424 16.0255127 C55.89934916 16.15279958 55.89934916 16.15279958 58.125 17.265625 C58.07279297 15.80189453 58.07279297 15.80189453 58.01953125 14.30859375 C57.99246094 13.03628906 57.96539063 11.76398438 57.9375 10.453125 C57.88529297 8.55626953 57.88529297 8.55626953 57.83203125 6.62109375 C58.125 3.265625 58.125 3.265625 59.4140625 1.3359375 C62.26260233 -0.44602577 64.87263243 -0.03004478 68.125 0.265625 C70.75685269 2.89747769 70.37371862 4.80431369 70.40289307 8.38708496 C70.3988446 9.22356567 70.39479614 10.06004639 70.390625 10.921875 C70.39253845 11.77994751 70.3944519 12.63802002 70.39642334 13.52209473 C70.39778544 15.33781222 70.39408728 17.15353945 70.38574219 18.96923828 C70.37504291 21.7544535 70.38563653 24.53902368 70.3984375 27.32421875 C70.39711591 29.08593893 70.39455353 30.84765871 70.390625 32.609375 C70.39467346 33.44585571 70.39872192 34.28233643 70.40289307 35.14416504 C70.35491834 41.03570666 70.35491834 41.03570666 68.125 43.265625 C64.6875 43.640625 64.6875 43.640625 61.125 43.265625 C58.31627246 40.92501872 58.14064003 39.41159863 57.75 35.765625 C57.43589967 32.22300117 57.43589967 32.22300117 55.15454102 30.08276367 C51.03273095 27.61047482 47.74916939 27.68063498 43.02734375 27.69140625 C42.15606339 27.67724167 41.28478302 27.66307709 40.38710022 27.64848328 C37.61210719 27.60666842 34.83776332 27.59136232 32.0625 27.578125 C29.28396888 27.54902414 26.50560014 27.51443196 23.72718811 27.47563171 C22.00105637 27.45323128 20.27482453 27.43735917 18.54856873 27.42878723 C17.37198448 27.41823555 17.37198448 27.41823555 16.17163086 27.4074707 C15.48499863 27.40399124 14.79836639 27.40051178 14.09092712 27.39692688 C12.00345205 27.25750696 10.13562885 26.83084602 8.125 26.265625 C8.15980469 27.24144531 8.19460938 28.21726562 8.23046875 29.22265625 C8.25753906 30.49496094 8.28460937 31.76726562 8.3125 33.078125 C8.34730469 34.34269531 8.38210938 35.60726562 8.41796875 36.91015625 C8.125 40.265625 8.125 40.265625 6.80078125 42.19140625 C4.17688653 43.87339004 2.15695448 43.64461931 -0.875 43.265625 C-2.53923035 41.97950745 -2.53923035 41.97950745 -3.875 40.265625 C-4.1611263 37.34751203 -4.27146919 34.64736052 -4.23828125 31.73046875 C-4.23877975 30.89600723 -4.23927826 30.06154572 -4.23979187 29.20179749 C-4.2374526 27.43911353 -4.2277327 25.67642616 -4.21118164 23.91381836 C-4.1875585 21.20982146 -4.19062533 18.50680843 -4.19726562 15.80273438 C-4.19168988 14.09113993 -4.18458065 12.37954965 -4.17578125 10.66796875 C-4.17669266 9.85649887 -4.17760406 9.04502899 -4.17854309 8.20896912 C-4.08168472 0.57823867 -4.08168472 0.57823867 0 0 Z " fill="#000000" transform="translate(1077.875,324.734375)"/>
<path d="M0 0 C0.825 -0.00773437 1.65 -0.01546875 2.5 -0.0234375 C8.3975761 0.91648869 11.25604544 4.58764935 14.6875 9.1875 C15.32389404 10.03550171 15.32389404 10.03550171 15.97314453 10.90063477 C17.32818334 12.7164067 18.66670118 14.54321342 20 16.375 C20.45165527 16.99536133 20.90331055 17.61572266 21.36865234 18.25488281 C24.28081568 22.27072369 27.16161682 26.30665078 30 30.375 C30.74765625 31.42300781 31.4953125 32.47101563 32.265625 33.55078125 C34.4312098 37.07717272 34.4694729 39.30623487 34 43.375 C32 45.375 32 45.375 28.63671875 45.77734375 C25 45.375 25 45.375 22.76953125 43.56640625 C22.12371094 42.69886719 21.47789062 41.83132813 20.8125 40.9375 C20.06226563 39.9475 19.31203125 38.9575 18.5390625 37.9375 C17.68831694 36.75314211 16.84233669 35.56535311 16 34.375 C15.25314941 33.323125 15.25314941 33.323125 14.49121094 32.25 C12.36638055 29.24840024 10.24319955 26.2467358 8.16137695 23.21508789 C5.67471919 19.61402214 3.25803952 16.3389647 0 13.375 C-6.81311532 22.18800099 -13.59610028 31.00159441 -19.92724609 40.17041016 C-22.79114012 44.27057006 -22.79114012 44.27057006 -25 45.375 C-30.25465839 45.82220497 -30.25465839 45.82220497 -32.875 44.25 C-34.57863928 41.41060119 -34.39231109 39.66349002 -34 36.375 C-32.54151635 33.70453698 -30.66585206 31.41846038 -28.75 29.0625 C-27.64705958 27.65835098 -26.54688823 26.25202332 -25.44921875 24.84375 C-24.87993652 24.11671875 -24.3106543 23.3896875 -23.72412109 22.640625 C-20.33268183 18.18401832 -17.20957974 13.52735099 -14.09863281 8.87182617 C-10.32288377 3.37786239 -7.06103932 -0.06619724 0 0 Z " fill="#000000" transform="translate(866,322.625)"/>
<path d="M0 0 C0.825 -0.00773437 1.65 -0.01546875 2.5 -0.0234375 C8.3975761 0.91648869 11.25604544 4.58764935 14.6875 9.1875 C15.32389404 10.03550171 15.32389404 10.03550171 15.97314453 10.90063477 C17.32818334 12.7164067 18.66670118 14.54321342 20 16.375 C20.45165527 16.99536133 20.90331055 17.61572266 21.36865234 18.25488281 C24.28081568 22.27072369 27.16161682 26.30665078 30 30.375 C30.74765625 31.42300781 31.4953125 32.47101563 32.265625 33.55078125 C34.4312098 37.07717272 34.4694729 39.30623487 34 43.375 C32 45.375 32 45.375 28.63671875 45.77734375 C25 45.375 25 45.375 22.76953125 43.56640625 C22.12371094 42.69886719 21.47789062 41.83132813 20.8125 40.9375 C20.06226563 39.9475 19.31203125 38.9575 18.5390625 37.9375 C17.68831694 36.75314211 16.84233669 35.56535311 16 34.375 C15.25314941 33.323125 15.25314941 33.323125 14.49121094 32.25 C12.36638055 29.24840024 10.24319955 26.2467358 8.16137695 23.21508789 C5.67471919 19.61402214 3.25803952 16.3389647 0 13.375 C-6.81311532 22.18800099 -13.59610028 31.00159441 -19.92724609 40.17041016 C-22.79114012 44.27057006 -22.79114012 44.27057006 -25 45.375 C-30.25465839 45.82220497 -30.25465839 45.82220497 -32.875 44.25 C-34.57863928 41.41060119 -34.39231109 39.66349002 -34 36.375 C-32.54151635 33.70453698 -30.66585206 31.41846038 -28.75 29.0625 C-27.64705958 27.65835098 -26.54688823 26.25202332 -25.44921875 24.84375 C-24.87993652 24.11671875 -24.3106543 23.3896875 -23.72412109 22.640625 C-20.33268183 18.18401832 -17.20957974 13.52735099 -14.09863281 8.87182617 C-10.32288377 3.37786239 -7.06103932 -0.06619724 0 0 Z " fill="#000000" transform="translate(333,322.625)"/>
<path d="M0 0 C1.875 -0.36328125 1.875 -0.36328125 4 -0.3125 C4.70125 -0.30863281 5.4025 -0.30476563 6.125 -0.30078125 C8 0 8 0 10 2 C10.30297852 4.78149414 10.30297852 4.78149414 10.37890625 8.28515625 C10.43014648 10.16364258 10.43014648 10.16364258 10.48242188 12.08007812 C10.50884766 13.39427734 10.53527344 14.70847656 10.5625 16.0625 C10.62214406 18.65765098 10.68572388 21.25271556 10.75390625 23.84765625 C10.77783447 25.00273682 10.8017627 26.15781738 10.82641602 27.34790039 C10.70217244 29.92197732 10.70217244 29.92197732 12 31 C13.79939693 31.11282578 15.60315326 31.15680645 17.40600586 31.17358398 C19.13801491 31.19381874 19.13801491 31.19381874 20.90501404 31.21446228 C22.16225784 31.22490067 23.41950165 31.23533905 24.71484375 31.24609375 C26.67202066 31.27059298 28.62919752 31.29510342 30.5863657 31.32029057 C35.43208057 31.3812201 40.27789258 31.43179183 45.1237793 31.47680664 C47.83827209 31.50241129 50.5526135 31.53320759 53.26698303 31.56959534 C55.82990521 31.60356552 58.39294972 31.62940994 60.95603943 31.64659119 C62.11386429 31.66323318 63.27168915 31.67987518 64.46459961 31.69702148 C65.99895912 31.71248268 65.99895912 31.71248268 67.5643158 31.72825623 C70 32 70 32 72 34 C72.25 37.5 72.25 37.5 72 41 C69.30920947 43.69079053 67.93935302 43.25858999 64.17675781 43.2746582 C62.3441037 43.28895622 62.3441037 43.28895622 60.47442627 43.30354309 C59.13399222 43.30328158 57.79355816 43.30234413 56.453125 43.30078125 C55.0803006 43.30466821 53.7074774 43.30900288 52.33465576 43.31376648 C49.45288198 43.32123665 46.57123066 43.32093298 43.68945312 43.31567383 C40.00628985 43.3098964 36.32363227 43.32676376 32.64055252 43.3500185 C29.8025624 43.36479729 26.96469263 43.36562163 24.12667084 43.36250877 C22.11154464 43.36326865 20.09643707 43.37711884 18.08135986 43.39118958 C16.22979279 43.38184639 16.22979279 43.38184639 14.34082031 43.37231445 C13.25875305 43.37294388 12.17668579 43.3735733 11.06182861 43.3742218 C6.6157574 42.83081556 3.20938825 41.33449738 0.1875 38 C-3.052075 32.54387369 -2.18601667 26.25518769 -2.18530273 20.12109375 C-2.18749212 18.00760855 -2.20566952 15.8946431 -2.22460938 13.78125 C-2.22754302 12.43750178 -2.22952801 11.09375109 -2.23046875 9.75 C-2.23457764 8.52796875 -2.23868652 7.3059375 -2.24291992 6.046875 C-2 3 -2 3 0 0 Z " fill="#000000" transform="translate(220,325)"/>
<path d="M0 0 C2 2 2 2 2.25 5.5 C2 9 2 9 0 11 C-1.60827985 11.66684774 -3.23637405 12.28665062 -4.875 12.875 C-8.71673912 14.36623784 -11.4809947 15.60481894 -14 19 C-14.33 19.99 -14.66 20.98 -15 22 C-11.5740331 27.62837419 -7.32258057 29.54321204 -1.328125 32.01953125 C1 33 1 33 2 34 C2.1875 37.4375 2.1875 37.4375 2 41 C0 43 0 43 -3 43.375 C-10.31988517 43.13100383 -17.2129272 39.62637918 -22.52734375 34.7265625 C-25.0516647 31.7670138 -26.46507478 28.5610265 -28 25 C-28.60328125 25.73089844 -28.60328125 25.73089844 -29.21875 26.4765625 C-31.4517553 28.38636966 -32.59825803 28.40401742 -35.5 28.375 C-36.2734375 28.38273437 -37.046875 28.39046875 -37.84375 28.3984375 C-40.51835588 27.90421685 -41.40672456 27.18132978 -43 25 C-43.38991688 20.63293092 -43.46324069 18.69486103 -41 15 C-38.72265625 14.6015625 -38.72265625 14.6015625 -36.0625 14.625 C-34.74958984 14.61339844 -34.74958984 14.61339844 -33.41015625 14.6015625 C-30.61559919 15.06354762 -29.74225055 15.82649931 -28 18 C-27.484375 16.80375 -26.96875 15.6075 -26.4375 14.375 C-22.93125324 7.43606411 -17.37431183 3.60245692 -10.28125 0.6875 C-6.65152515 -0.40638968 -3.77178196 -0.39702968 0 0 Z " fill="#000000" transform="translate(208,325)"/>
<path d="M0 0 C7.95830042 -0.11369001 14.03736463 2.79798306 20.0625 7.90625 C20.76375 8.751875 21.465 9.5975 22.1875 10.46875 C22.950625 11.335 23.71375 12.20125 24.5 13.09375 C26.91390405 17.92155811 26.95591598 22.16905628 26.1875 27.46875 C22.47309844 35.34328131 15.52988831 39.88057628 7.5546875 42.77734375 C4.59516539 43.64175862 2.23978578 43.98987196 -0.8125 43.46875 C-2.75 42.40625 -2.75 42.40625 -3.8125 40.46875 C-4.1875 37.09375 -4.1875 37.09375 -2.8125 33.46875 C-0.14780774 31.89295192 2.5631711 30.79367792 5.4375 29.6484375 C9.09553849 28.07922212 10.91027725 26.72192536 13.1875 23.46875 C13.5134856 20.84758489 13.5134856 20.84758489 12.1875 18.46875 C8.12216337 14.14113359 2.64619036 12.46143697 -2.8125 10.46875 C-4.56498139 1.18059864 -4.56498139 1.18059864 0 0 Z " fill="#000000" transform="translate(137.8125,324.53125)"/>
<path d="M0 0 C1.05449341 -0.00960754 2.10898682 -0.01921509 3.19543457 -0.02911377 C4.33814819 -0.03336365 5.48086182 -0.03761353 6.65820312 -0.04199219 C8.41142883 -0.0505423 8.41142883 -0.0505423 10.20007324 -0.05926514 C12.67487683 -0.06872293 15.14969305 -0.0752522 17.62451172 -0.07910156 C21.42372357 -0.08882692 25.22239914 -0.11985177 29.02148438 -0.15136719 C31.42122073 -0.15789496 33.82096097 -0.16314631 36.22070312 -0.16699219 C37.36341675 -0.17933899 38.50613037 -0.19168579 39.68347168 -0.20440674 C40.73796509 -0.20140564 41.7924585 -0.19840454 42.87890625 -0.1953125 C43.80997192 -0.19895813 44.7410376 -0.20260376 45.70031738 -0.20635986 C46.43923218 -0.08508728 47.17814697 0.0361853 47.93945312 0.16113281 C50.09447843 3.39367077 50.40801447 4.41264205 49.93945312 8.16113281 C48.28808973 10.40480414 47.39517531 11.08766885 44.61802673 11.53535461 C43.70694656 11.53472519 42.79586639 11.53409576 41.85717773 11.53344727 C40.30558205 11.54279045 40.30558205 11.54279045 38.72264099 11.55232239 C37.60696243 11.54311264 36.49128387 11.53390289 35.34179688 11.52441406 C34.19659073 11.52491257 33.05138458 11.52541107 31.87147522 11.52592468 C29.44969956 11.52358313 27.02792151 11.5138499 24.60620117 11.49731445 C20.88828915 11.4737048 17.171093 11.47675525 13.453125 11.48339844 C11.10351133 11.4778225 8.75390069 11.47071315 6.40429688 11.46191406 C5.28659409 11.46282547 4.1688913 11.46373688 3.01731873 11.4646759 C1.98607376 11.45514389 0.9548288 11.44561188 -0.10766602 11.43579102 C-1.01795059 11.43118362 -1.92823517 11.42657623 -2.86610413 11.42182922 C-5.06054688 11.16113281 -5.06054688 11.16113281 -7.06054688 9.16113281 C-7.33046594 6.47273897 -7.14792044 3.86971345 -7.06054688 1.16113281 C-4.54996361 -0.09415882 -2.8097035 0.02060506 0 0 Z " fill="#000000" transform="translate(772.060546875,340.8388671875)"/>
<path d="M0 0 C1.05449341 -0.00960754 2.10898682 -0.01921509 3.19543457 -0.02911377 C4.33814819 -0.03336365 5.48086182 -0.03761353 6.65820312 -0.04199219 C8.41142883 -0.0505423 8.41142883 -0.0505423 10.20007324 -0.05926514 C12.67487683 -0.06872293 15.14969305 -0.0752522 17.62451172 -0.07910156 C21.42372357 -0.08882692 25.22239914 -0.11985177 29.02148438 -0.15136719 C31.42122073 -0.15789496 33.82096097 -0.16314631 36.22070312 -0.16699219 C37.36341675 -0.17933899 38.50613037 -0.19168579 39.68347168 -0.20440674 C40.73796509 -0.20140564 41.7924585 -0.19840454 42.87890625 -0.1953125 C43.80997192 -0.19895813 44.7410376 -0.20260376 45.70031738 -0.20635986 C46.43923218 -0.08508728 47.17814697 0.0361853 47.93945312 0.16113281 C50.09447843 3.39367077 50.40801447 4.41264205 49.93945312 8.16113281 C48.28808973 10.40480414 47.39517531 11.08766885 44.61802673 11.53535461 C43.70694656 11.53472519 42.79586639 11.53409576 41.85717773 11.53344727 C40.30558205 11.54279045 40.30558205 11.54279045 38.72264099 11.55232239 C37.60696243 11.54311264 36.49128387 11.53390289 35.34179688 11.52441406 C34.19659073 11.52491257 33.05138458 11.52541107 31.87147522 11.52592468 C29.44969956 11.52358313 27.02792151 11.5138499 24.60620117 11.49731445 C20.88828915 11.4737048 17.171093 11.47675525 13.453125 11.48339844 C11.10351133 11.4778225 8.75390069 11.47071315 6.40429688 11.46191406 C5.28659409 11.46282547 4.1688913 11.46373688 3.01731873 11.4646759 C1.98607376 11.45514389 0.9548288 11.44561188 -0.10766602 11.43579102 C-1.01795059 11.43118362 -1.92823517 11.42657623 -2.86610413 11.42182922 C-5.06054688 11.16113281 -5.06054688 11.16113281 -7.06054688 9.16113281 C-7.33046594 6.47273897 -7.14792044 3.86971345 -7.06054688 1.16113281 C-4.54996361 -0.09415882 -2.8097035 0.02060506 0 0 Z " fill="#000000" transform="translate(603.060546875,340.8388671875)"/>
<path d="M0 0 C2.1015625 0.4140625 2.1015625 0.4140625 4.2265625 2.5390625 C5.27037069 5.96871798 5.09169815 7.98666987 4.1015625 11.4140625 C1.58138824 13.93423676 0.58656401 13.71136627 -2.8984375 13.7265625 C-3.7853125 13.74332031 -4.6721875 13.76007813 -5.5859375 13.77734375 C-6.730625 13.59751953 -6.730625 13.59751953 -7.8984375 13.4140625 C-10.36167819 9.71920147 -10.28835438 7.78113158 -9.8984375 3.4140625 C-7.16314984 -0.31352195 -4.34643357 -0.1557354 0 0 Z " fill="#000000" transform="translate(868.8984375,349.5859375)"/>
<path d="M0 0 C2.1015625 0.4140625 2.1015625 0.4140625 4.2265625 2.5390625 C5.27037069 5.96871798 5.09169815 7.98666987 4.1015625 11.4140625 C1.58138824 13.93423676 0.58656401 13.71136627 -2.8984375 13.7265625 C-3.7853125 13.74332031 -4.6721875 13.76007813 -5.5859375 13.77734375 C-6.730625 13.59751953 -6.730625 13.59751953 -7.8984375 13.4140625 C-10.36167819 9.71920147 -10.28835438 7.78113158 -9.8984375 3.4140625 C-7.16314984 -0.31352195 -4.34643357 -0.1557354 0 0 Z " fill="#000000" transform="translate(335.8984375,349.5859375)"/>
</svg>
